<svg version="1.1" viewBox="0.0 0.0 311.0 166.501312335958" fill="none" stroke="none" stroke-linecap="square" stroke-miterlimit="10" xmlns:xlink="http://www.w3.org/1999/xlink" xmlns="http://www.w3.org/2000/svg"><clipPath id="p.0"><path d="m0 0l311.0 0l0 166.50131l-311.0 0l0 -166.50131z" clip-rule="nonzero"/></clipPath><g clip-path="url(#p.0)"><path fill="#000000" fill-opacity="0.0" d="m0 0l311.0 0l0 166.50131l-311.0 0z" fill-rule="evenodd"/><path fill="#0f9d58" d="m112.85939 53.88791l42.67717 -42.62992l42.67717 42.62992l-42.67717 42.62992z" fill-rule="evenodd"/><path fill="#0d652d" d="m198.13948 138.55876l-42.645676 -42.006462l42.645676 -42.65496z" fill-rule="evenodd"/><path fill="#f4b400" d="m112.83195 96.731995l0 -26.866142l26.866142 26.866142z" fill-rule="evenodd"/><path fill="#f4b400" d="m112.81332 112.34393l42.64283 0l0 42.639374l-42.64283 0z" fill-rule="evenodd"/><path fill="#f4b400" d="m197.9522 154.98346l-42.642822 -42.639374l0 42.639374z" fill-rule="evenodd"/><path fill="#db4437" d="m214.17651 155.2446l0 -85.25985l85.322845 85.25985z" fill-rule="evenodd"/><path fill="#4285f4" d="m96.854645 155.2446l0 -85.25985l-85.35433 85.25985z" fill-rule="evenodd"/><path fill="#e37400" d="m155.51237 154.9656l-42.645676 -42.614174l0 42.614174z" fill-rule="evenodd"/><path fill="#f4b400" d="m198.14633 154.96523l-42.23108 -42.614174l-43.02877 0l42.23107 42.614174z" fill-rule="evenodd"/></g></svg>