<svg version="1.1" viewBox="0.0 0.0 960.0 540.0" fill="none" stroke="none" stroke-linecap="square" stroke-miterlimit="10" xmlns:xlink="http://www.w3.org/1999/xlink" xmlns="http://www.w3.org/2000/svg"><clipPath id="g4d271b9ccd_0_118.0"><path d="m0 0l960.0 0l0 540.0l-960.0 0l0 -540.0z" clip-rule="nonzero"/></clipPath><g clip-path="url(#g4d271b9ccd_0_118.0)"><path fill="#000000" fill-opacity="0.0" d="m0 0l960.0 0l0 540.0l-960.0 0z" fill-rule="evenodd"/><path fill="#d9ead3" d="m172.89764 157.48923l0 0c0 -28.84404 23.38272 -52.22676 52.22676 -52.22676l509.75122 0c13.851379 0 27.135498 5.502449 36.92987 15.296867c9.794434 9.794411 15.296875 23.078499 15.296875 36.929893l0 208.90082c0 28.844025 -23.38269 52.226746 -52.226746 52.226746l-509.75122 0l0 0c-28.84404 0 -52.22676 -23.38272 -52.22676 -52.226746z" fill-rule="evenodd"/><path stroke="#595959" stroke-width="1.0" stroke-linejoin="round" stroke-linecap="butt" d="m172.89764 157.48923l0 0c0 -28.84404 23.38272 -52.22676 52.22676 -52.22676l509.75122 0c13.851379 0 27.135498 5.502449 36.92987 15.296867c9.794434 9.794411 15.296875 23.078499 15.296875 36.929893l0 208.90082c0 28.844025 -23.38269 52.226746 -52.226746 52.226746l-509.75122 0l0 0c-28.84404 0 -52.22676 -23.38272 -52.22676 -52.226746z" fill-rule="evenodd"/><path fill="#cfe2f3" d="m212.05774 353.71143l0 0c0 -4.258911 3.45253 -7.711426 7.711441 -7.711426l134.40388 0c2.0451965 0 4.006653 0.81243896 5.45282 2.2586365c1.446167 1.446167 2.2586365 3.4075928 2.2586365 5.4527893l0 30.844849c0 4.258911 -3.4525452 7.7114563 -7.7114563 7.7114563l-134.40388 0c-4.258911 0 -7.711441 -3.4525452 -7.711441 -7.7114563z" fill-rule="evenodd"/><path stroke="#595959" stroke-width="1.0" stroke-linejoin="round" stroke-linecap="butt" d="m212.05774 353.71143l0 0c0 -4.258911 3.45253 -7.711426 7.711441 -7.711426l134.40388 0c2.0451965 0 4.006653 0.81243896 5.45282 2.2586365c1.446167 1.446167 2.2586365 3.4075928 2.2586365 5.4527893l0 30.844849c0 4.258911 -3.4525452 7.7114563 -7.7114563 7.7114563l-134.40388 0c-4.258911 0 -7.711441 -3.4525452 -7.711441 -7.7114563z" fill-rule="evenodd"/><path fill="#434343" d="m236.97504 377.67386l-3.328125 0l0 -13.03125l-3.25 1.25l0 -2.765625l6.21875 -2.546875l0.359375 0l0 17.09375zm10.890625 -5.9375l-5.734375 0l0 -2.765625l5.734375 0l0 2.765625zm6.234375 5.9375l-3.328125 0l0 -18.0l3.328125 0l0 18.0zm8.59375 0q-0.140625 -0.296875 -0.28125 -0.984375q-0.890625 1.21875 -2.421875 1.21875q-1.59375 0 -2.640625 -1.046875q-1.046875 -1.0625 -1.046875 -2.734375q0 -2.0 1.265625 -3.078125q1.28125 -1.09375 3.671875 -1.125l1.0 0l0 -1.015625q0 -0.859375 -0.296875 -1.203125q-0.28125 -0.359375 -0.84375 -0.359375q-1.25 0 -1.25 1.453125l-3.3125 0q0 -1.75 1.3125 -2.890625q1.328125 -1.15625 3.34375 -1.15625q2.078125 0 3.21875 1.09375q1.15625 1.078125 1.15625 3.09375l0 5.96875q0.015625 1.640625 0.46875 2.5625l0 0.203125l-3.34375 0zm-1.953125 -2.375q0.546875 0 0.921875 -0.21875q0.390625 -0.21875 0.578125 -0.53125l0 -2.625l-0.796875 0q-0.84375 0 -1.328125 0.546875q-0.484375 0.53125 -0.484375 1.421875q0 1.40625 1.109375 1.40625zm11.296875 -3.140625l1.6875 -7.171875l3.53125 0l-4.171875 14.59375q-0.9375 3.21875 -3.53125 3.21875q-0.59375 0 -1.359375 -0.21875l0 -2.59375l0.390625 0.015625q0.78125 0 1.171875 -0.3125q0.390625 -0.296875 0.59375 -1.03125l0.25 -0.859375l-3.65625 -12.8125l3.5625 0l1.53125 7.171875zm11.7578125 5.75q-2.546875 0 -3.984375 -1.515625q-1.421875 -1.53125 -1.421875 -4.375l0 -1.0q0 -3.0 1.3125 -4.625q1.3125 -1.640625 3.75 -1.640625q2.390625 0 3.59375 1.53125q1.21875 1.53125 1.234375 4.53125l0 1.625l-6.59375 0q0.078125 1.40625 0.625 2.0625q0.546875 0.65625 1.703125 0.65625q1.65625 0 2.765625 -1.140625l1.3125 2.0q-0.609375 0.84375 -1.78125 1.375q-1.15625 0.515625 -2.515625 0.515625zm-2.078125 -7.78125l3.3125 0l0 -0.3125q-0.03125 -1.125 -0.390625 -1.703125q-0.34375 -0.59375 -1.21875 -0.59375q-0.859375 0 -1.25 0.625q-0.390625 0.609375 -0.453125 1.984375zm14.703125 -1.9375l-1.109375 -0.09375q-1.359375 0 -1.828125 1.203125l0 8.375l-3.328125 0l0 -12.6875l3.125 0l0.09375 1.375q0.78125 -1.609375 2.171875 -1.609375q0.5625 0 0.90625 0.15625l-0.03125 3.28125zm7.3945312 9.484375l0 -17.0625l4.515625 0q2.984375 0 4.75 1.90625q1.78125 1.890625 1.8125 5.1875l0 2.765625q0 3.375 -1.78125 5.296875q-1.765625 1.90625 -4.875 1.90625l-4.421875 0zm3.4375 -14.1875l0 11.328125l1.03125 0q1.734375 0 2.4375 -0.90625q0.703125 -0.90625 0.734375 -3.140625l0 -2.96875q0 -2.390625 -0.671875 -3.328125q-0.671875 -0.9375 -2.265625 -0.984375l-1.265625 0zm22.042969 14.1875l-3.4375 0l-5.046875 -11.1875l0 11.1875l-3.4375 0l0 -17.0625l3.4375 0l5.0625 11.203125l0 -11.203125l3.421875 0l0 17.0625zm14.6953125 0l-3.4375 0l-5.046875 -11.1875l0 11.1875l-3.4375 0l0 -17.0625l3.4375 0l5.0625 11.203125l0 -11.203125l3.421875 0l0 17.0625z" fill-rule="nonzero"/><path fill="#cfe2f3" d="m404.16272 304.39404l0 0c0 -9.706482 7.868683 -17.575134 17.575165 -17.575134l114.67648 0c4.661194 0 9.131531 1.851654 12.42749 5.147644c3.2959595 3.2959595 5.147644 7.766266 5.147644 12.42749l0 70.29852c0 9.706482 -7.8686523 17.575165 -17.575134 17.575165l-114.67648 0c-9.706482 0 -17.575165 -7.868683 -17.575165 -17.575165z" fill-rule="evenodd"/><path stroke="#595959" stroke-width="1.0" stroke-linejoin="round" stroke-linecap="butt" d="m404.16272 304.39404l0 0c0 -9.706482 7.868683 -17.575134 17.575165 -17.575134l114.67648 0c4.661194 0 9.131531 1.851654 12.42749 5.147644c3.2959595 3.2959595 5.147644 7.766266 5.147644 12.42749l0 70.29852c0 9.706482 -7.8686523 17.575165 -17.575134 17.575165l-114.67648 0c-9.706482 0 -17.575165 -7.868683 -17.575165 -17.575165z" fill-rule="evenodd"/><path fill="#434343" d="m453.3515 333.5833l-10.0625 0l0 -2.34375l4.625 -5.875q0.875 -1.21875 1.28125 -2.140625q0.421875 -0.921875 0.421875 -1.765625q0 -1.125 -0.390625 -1.765625q-0.390625 -0.65625 -1.125 -0.65625q-0.8125 0 -1.296875 0.75q-0.46875 0.75 -0.46875 2.109375l-3.328125 0q0 -1.5625 0.65625 -2.859375q0.65625 -1.3125 1.828125 -2.03125q1.171875 -0.71875 2.671875 -0.71875q2.28125 0 3.53125 1.265625q1.265625 1.25 1.265625 3.578125q0 1.4375 -0.703125 2.921875q-0.6875 1.484375 -2.515625 3.640625l-2.1875 3.140625l5.796875 0l0 2.75zm8.140625 -5.9375l-5.734375 0l0 -2.765625l5.734375 0l0 2.765625zm6.359375 3.078125l6.046875 0l0 2.859375l-9.484375 0l0 -17.0625l3.4375 0l0 14.203125zm13.90625 2.859375q-0.140625 -0.296875 -0.28125 -0.984375q-0.890625 1.21875 -2.421875 1.21875q-1.59375 0 -2.640625 -1.046875q-1.046875 -1.0625 -1.046875 -2.734375q0 -2.0 1.265625 -3.078125q1.28125 -1.09375 3.671875 -1.125l1.0 0l0 -1.015625q0 -0.859375 -0.296875 -1.203125q-0.28125 -0.359375 -0.84375 -0.359375q-1.25 0 -1.25 1.453125l-3.3125 0q0 -1.75 1.3125 -2.890625q1.328125 -1.15625 3.34375 -1.15625q2.078125 0 3.21875 1.09375q1.15625 1.078125 1.15625 3.09375l0 5.96875q0.015625 1.640625 0.46875 2.5625l0 0.203125l-3.34375 0zm-1.953125 -2.375q0.546875 0 0.921875 -0.21875q0.390625 -0.21875 0.578125 -0.53125l0 -2.625l-0.796875 0q-0.84375 0 -1.328125 0.546875q-0.484375 0.53125 -0.484375 1.421875q0 1.40625 1.109375 1.40625zm11.296875 -3.140625l1.6875 -7.171875l3.53125 0l-4.171875 14.59375q-0.9375 3.21875 -3.53125 3.21875q-0.59375 0 -1.359375 -0.21875l0 -2.59375l0.390625 0.015625q0.78125 0 1.171875 -0.3125q0.390625 -0.296875 0.59375 -1.03125l0.25 -0.859375l-3.65625 -12.8125l3.5625 0l1.53125 7.171875zm11.7578125 5.75q-2.546875 0 -3.984375 -1.515625q-1.421875 -1.53125 -1.421875 -4.375l0 -1.0q0 -3.0 1.3125 -4.625q1.3125 -1.640625 3.75 -1.640625q2.390625 0 3.59375 1.53125q1.21875 1.53125 1.234375 4.53125l0 1.625l-6.59375 0q0.078125 1.40625 0.625 2.0625q0.546875 0.65625 1.703125 0.65625q1.65625 0 2.765625 -1.140625l1.3125 2.0q-0.609375 0.84375 -1.78125 1.375q-1.15625 0.515625 -2.515625 0.515625zm-2.078125 -7.78125l3.3125 0l0 -0.3125q-0.03125 -1.125 -0.390625 -1.703125q-0.34375 -0.59375 -1.21875 -0.59375q-0.859375 0 -1.25 0.625q-0.390625 0.609375 -0.453125 1.984375zm14.703125 -1.9375l-1.109375 -0.09375q-1.359375 0 -1.828125 1.203125l0 8.375l-3.328125 0l0 -12.6875l3.125 0l0.09375 1.375q0.78125 -1.609375 2.171875 -1.609375q0.5625 0 0.90625 0.15625l-0.03125 3.28125z" fill-rule="nonzero"/><path fill="#434343" d="m458.9765 362.5833l0 -17.0625l4.515625 0q2.984375 0 4.75 1.90625q1.78125 1.890625 1.8125 5.1875l0 2.765625q0 3.375 -1.78125 5.296875q-1.765625 1.90625 -4.875 1.90625l-4.421875 0zm3.4375 -14.1875l0 11.328125l1.03125 0q1.734375 0 2.4375 -0.90625q0.703125 -0.90625 0.734375 -3.140625l0 -2.96875q0 -2.390625 -0.671875 -3.328125q-0.671875 -0.9375 -2.265625 -0.984375l-1.265625 0zm22.042969 14.1875l-3.4375 0l-5.046875 -11.1875l0 11.1875l-3.4375 0l0 -17.0625l3.4375 0l5.0625 11.203125l0 -11.203125l3.421875 0l0 17.0625zm14.6953125 0l-3.4375 0l-5.046875 -11.1875l0 11.1875l-3.4375 0l0 -17.0625l3.4375 0l5.0625 11.203125l0 -11.203125l3.421875 0l0 17.0625z" fill-rule="nonzero"/><path fill="#cfe2f3" d="m596.2677 256.36795l0 0c0 -13.791443 11.180176 -24.971619 24.971619 -24.971619l99.883545 0l0 0c6.622864 0 12.974487 2.6309204 17.657593 7.3140106c4.6831055 4.68309 7.314026 11.034729 7.314026 17.657608l0 110.93863c0 13.791443 -11.180176 24.97165 -24.971619 24.97165l-99.883545 0l0 0c-13.791443 0 -24.971619 -11.180206 -24.971619 -24.97165z" fill-rule="evenodd"/><path stroke="#595959" stroke-width="1.0" stroke-linejoin="round" stroke-linecap="butt" d="m596.2677 256.36795l0 0c0 -13.791443 11.180176 -24.971619 24.971619 -24.971619l99.883545 0l0 0c6.622864 0 12.974487 2.6309204 17.657593 7.3140106c4.6831055 4.68309 7.314026 11.034729 7.314026 17.657608l0 110.93863c0 13.791443 -11.180176 24.97165 -24.971619 24.97165l-99.883545 0l0 0c-13.791443 0 -24.971619 -11.180206 -24.971619 -24.97165z" fill-rule="evenodd"/><path fill="#434343" d="m638.3471 295.83038l1.609375 0q0.921875 0 1.34375 -0.640625q0.421875 -0.640625 0.421875 -1.703125q0 -1.015625 -0.4375 -1.578125q-0.4375 -0.578125 -1.171875 -0.578125q-0.6875 0 -1.140625 0.546875q-0.4375 0.53125 -0.4375 1.359375l-3.3125 0q0 -1.34375 0.609375 -2.40625q0.625 -1.0625 1.734375 -1.65625q1.109375 -0.59375 2.453125 -0.59375q2.359375 0 3.6875 1.296875q1.34375 1.296875 1.34375 3.5625q0 1.15625 -0.609375 2.15625q-0.609375 0.984375 -1.59375 1.515625q1.21875 0.515625 1.796875 1.546875q0.59375 1.03125 0.59375 2.4375q0 2.265625 -1.453125 3.640625q-1.4375 1.375 -3.796875 1.375q-2.1875 0 -3.5625 -1.34375q-1.359375 -1.359375 -1.359375 -3.5625l3.328125 0q0 0.90625 0.46875 1.53125q0.484375 0.625 1.21875 0.625q0.859375 0 1.359375 -0.625q0.5 -0.640625 0.5 -1.703125q0 -2.515625 -1.953125 -2.53125l-1.640625 0l0 -2.671875zm15.25 4.109375l-5.734375 0l0 -2.765625l5.734375 0l0 2.765625zm6.359375 3.078125l6.046875 0l0 2.859375l-9.484375 0l0 -17.0625l3.4375 0l0 14.203125zm13.90625 2.859375q-0.140625 -0.296875 -0.28125 -0.984375q-0.890625 1.21875 -2.421875 1.21875q-1.59375 0 -2.640625 -1.046875q-1.046875 -1.0625 -1.046875 -2.734375q0 -2.0 1.265625 -3.078125q1.28125 -1.09375 3.671875 -1.125l1.0 0l0 -1.015625q0 -0.859375 -0.296875 -1.203125q-0.28125 -0.359375 -0.84375 -0.359375q-1.25 0 -1.25 1.453125l-3.3125 0q0 -1.75 1.3125 -2.890625q1.328125 -1.15625 3.34375 -1.15625q2.078125 0 3.21875 1.09375q1.15625 1.078125 1.15625 3.09375l0 5.96875q0.015625 1.640625 0.46875 2.5625l0 0.203125l-3.34375 0zm-1.953125 -2.375q0.546875 0 0.921875 -0.21875q0.390625 -0.21875 0.578125 -0.53125l0 -2.625l-0.796875 0q-0.84375 0 -1.328125 0.546875q-0.484375 0.53125 -0.484375 1.421875q0 1.40625 1.109375 1.40625zm11.296875 -3.140625l1.6875 -7.171875l3.53125 0l-4.171875 14.59375q-0.9375 3.21875 -3.53125 3.21875q-0.59375 0 -1.359375 -0.21875l0 -2.59375l0.390625 0.015625q0.78125 0 1.171875 -0.3125q0.390625 -0.296875 0.59375 -1.03125l0.25 -0.859375l-3.65625 -12.8125l3.5625 0l1.53125 7.171875zm11.7578125 5.75q-2.546875 0 -3.984375 -1.515625q-1.421875 -1.53125 -1.421875 -4.375l0 -1.0q0 -3.0 1.3125 -4.625q1.3125 -1.640625 3.75 -1.640625q2.390625 0 3.59375 1.53125q1.21875 1.53125 1.234375 4.53125l0 1.625l-6.59375 0q0.078125 1.40625 0.625 2.0625q0.546875 0.65625 1.703125 0.65625q1.65625 0 2.765625 -1.140625l1.3125 2.0q-0.609375 0.84375 -1.78125 1.375q-1.15625 0.515625 -2.515625 0.515625zm-2.078125 -7.78125l3.3125 0l0 -0.3125q-0.03125 -1.125 -0.390625 -1.703125q-0.34375 -0.59375 -1.21875 -0.59375q-0.859375 0 -1.25 0.625q-0.390625 0.609375 -0.453125 1.984375zm14.703125 -1.9375l-1.109375 -0.09375q-1.359375 0 -1.828125 1.203125l0 8.375l-3.328125 0l0 -12.6875l3.125 0l0.09375 1.375q0.78125 -1.609375 2.171875 -1.609375q0.5625 0 0.90625 0.15625l-0.03125 3.28125z" fill-rule="nonzero"/><path fill="#434343" d="m651.0815 334.87726l0 -17.0625l4.515625 0q2.984375 0 4.75 1.90625q1.78125 1.890625 1.8125 5.1875l0 2.765625q0 3.375 -1.78125 5.296875q-1.765625 1.90625 -4.875 1.90625l-4.421875 0zm3.4375 -14.1875l0 11.328125l1.03125 0q1.734375 0 2.4375 -0.90625q0.703125 -0.90625 0.734375 -3.140625l0 -2.96875q0 -2.390625 -0.671875 -3.328125q-0.671875 -0.9375 -2.265625 -0.984375l-1.265625 0zm22.042969 14.1875l-3.4375 0l-5.046875 -11.1875l0 11.1875l-3.4375 0l0 -17.0625l3.4375 0l5.0625 11.203125l0 -11.203125l3.421875 0l0 17.0625zm14.6953125 0l-3.4375 0l-5.046875 -11.1875l0 11.1875l-3.4375 0l0 -17.0625l3.4375 0l5.0625 11.203125l0 -11.203125l3.421875 0l0 17.0625z" fill-rule="nonzero"/><path fill="#fff2cc" d="m212.05774 165.24686l0 0c0 -3.8037415 3.0835419 -6.8872833 6.8872833 -6.8872833l520.2412 0c1.8265991 0 3.5784302 0.7256317 4.870056 2.0172424c1.291565 1.2916107 2.017212 3.0434265 2.017212 4.870041l0 27.548279c0 3.8037415 -3.0835571 6.8872833 -6.887268 6.8872833l-520.2412 0c-3.8037415 0 -6.8872833 -3.0835419 -6.8872833 -6.8872833z" fill-rule="evenodd"/><path stroke="#595959" stroke-width="1.0" stroke-linejoin="round" stroke-linecap="butt" d="m212.05774 165.24686l0 0c0 -3.8037415 3.0835419 -6.8872833 6.8872833 -6.8872833l520.2412 0c1.8265991 0 3.5784302 0.7256317 4.870056 2.0172424c1.291565 1.2916107 2.017212 3.0434265 2.017212 4.870041l0 27.548279c0 3.8037415 -3.0835571 6.8872833 -6.887268 6.8872833l-520.2412 0c-3.8037415 0 -6.8872833 -3.0835419 -6.8872833 -6.8872833z" fill-rule="evenodd"/><path fill="#434343" d="m412.01678 170.49849l0 11.8125q-0.015625 2.65625 -1.46875 4.078125q-1.4375 1.40625 -4.125 1.40625q-2.75 0 -4.203125 -1.421875q-1.4375 -1.4375 -1.4375 -4.140625l0 -11.734375l3.46875 0l0 11.734375q0 1.453125 0.46875 2.078125q0.46875 0.625 1.6875 0.625q1.234375 0 1.6875 -0.609375q0.46875 -0.625 0.484375 -2.03125l0 -11.796875l3.4375 0zm5.4921875 4.375l0.09375 1.265625q1.125 -1.5 2.9375 -1.5q3.265625 0 3.359375 4.59375l0 8.328125l-3.328125 0l0 -8.09375q0 -1.078125 -0.328125 -1.5625q-0.3125 -0.484375 -1.125 -0.484375q-0.90625 0 -1.40625 0.921875l0 9.21875l-3.328125 0l0 -12.6875l3.125 0zm12.25 12.6875l-3.328125 0l0 -12.6875l3.328125 0l0 12.6875zm-3.484375 -15.96875q0 -0.765625 0.484375 -1.25q0.5 -0.5 1.3125 -0.5q0.828125 0 1.3125 0.5q0.5 0.484375 0.5 1.25q0 0.765625 -0.484375 1.28125q-0.484375 0.5 -1.3125 0.5q-0.828125 0 -1.328125 -0.5q-0.484375 -0.515625 -0.484375 -1.28125zm6.8125 15.96875l0 -10.1875l-1.53125 0l0 -2.5l1.53125 0l0 -1.125q0.015625 -2.109375 1.109375 -3.265625q1.09375 -1.171875 3.03125 -1.171875q0.578125 0 1.5 0.234375l-0.03125 2.65625q-0.328125 -0.109375 -0.796875 -0.109375q-1.484375 0 -1.484375 1.75l0 1.03125l1.984375 0l0 2.5l-1.984375 0l0 10.1875l-3.328125 0zm6.7226562 -6.75q0 -2.890625 1.359375 -4.53125q1.359375 -1.640625 3.75 -1.640625q2.4375 0 3.796875 1.640625q1.359375 1.640625 1.359375 4.546875l0 0.8125q0 2.890625 -1.359375 4.53125q-1.34375 1.625 -3.765625 1.625q-2.4375 0 -3.796875 -1.625q-1.34375 -1.640625 -1.34375 -4.546875l0 -0.8125zm3.328125 0.828125q0 3.40625 1.8125 3.40625q1.671875 0 1.796875 -2.84375l0.015625 -1.390625q0 -1.734375 -0.484375 -2.5625q-0.46875 -0.84375 -1.359375 -0.84375q-0.84375 0 -1.3125 0.84375q-0.46875 0.828125 -0.46875 2.5625l0 0.828125zm15.253906 -3.5625l-1.109375 -0.09375q-1.359375 0 -1.828125 1.203125l0 8.375l-3.328125 0l0 -12.6875l3.125 0l0.09375 1.375q0.78125 -1.609375 2.171875 -1.609375q0.5625 0 0.90625 0.15625l-0.03125 3.28125zm4.8164062 -3.203125l0.09375 1.171875q1.109375 -1.40625 2.9375 -1.40625q1.90625 0 2.6875 1.71875q1.09375 -1.71875 3.109375 -1.71875q3.328125 0 3.40625 4.609375l0 8.3125l-3.3125 0l0 -8.09375q0 -1.109375 -0.3125 -1.578125q-0.296875 -0.46875 -1.03125 -0.46875q-0.921875 0 -1.375 1.140625l0.015625 0.390625l0 8.609375l-3.3125 0l0 -8.078125q0 -1.09375 -0.296875 -1.578125q-0.296875 -0.484375 -1.046875 -0.484375q-0.84375 0 -1.359375 0.921875l0 9.21875l-3.3125 0l0 -12.6875l3.109375 0zm26.238281 12.6875q-0.140625 -0.296875 -0.28125 -0.984375q-0.890625 1.21875 -2.421875 1.21875q-1.59375 0 -2.640625 -1.046875q-1.046875 -1.0625 -1.046875 -2.734375q0 -2.0 1.265625 -3.078125q1.28125 -1.09375 3.671875 -1.125l1.0 0l0 -1.015625q0 -0.859375 -0.296875 -1.203125q-0.28125 -0.359375 -0.84375 -0.359375q-1.25 0 -1.25 1.453125l-3.3125 0q0 -1.75 1.3125 -2.890625q1.328125 -1.15625 3.34375 -1.15625q2.078125 0 3.21875 1.09375q1.15625 1.078125 1.15625 3.09375l0 5.96875q0.015625 1.640625 0.46875 2.5625l0 0.203125l-3.34375 0zm-1.953125 -2.375q0.546875 0 0.921875 -0.21875q0.390625 -0.21875 0.578125 -0.53125l0 -2.625l-0.796875 0q-0.84375 0 -1.328125 0.546875q-0.484375 0.53125 -0.484375 1.421875q0 1.40625 1.109375 1.40625zm11.390625 -2.3125l1.59375 -8.0l3.46875 0l-3.484375 12.6875l-3.171875 0l-3.484375 -12.6875l3.46875 0l1.609375 8.0zm11.734375 4.921875q-2.546875 0 -3.984375 -1.515625q-1.421875 -1.53125 -1.421875 -4.375l0 -1.0q0 -3.0 1.3125 -4.625q1.3125 -1.640625 3.75 -1.640625q2.390625 0 3.59375 1.53125q1.21875 1.53125 1.234375 4.53125l0 1.625l-6.59375 0q0.078125 1.40625 0.625 2.0625q0.546875 0.65625 1.703125 0.65625q1.65625 0 2.765625 -1.140625l1.3125 2.0q-0.609375 0.84375 -1.78125 1.375q-1.15625 0.515625 -2.515625 0.515625zm-2.078125 -7.78125l3.3125 0l0 -0.3125q-0.03125 -1.125 -0.390625 -1.703125q-0.34375 -0.59375 -1.21875 -0.59375q-0.859375 0 -1.25 0.625q-0.390625 0.609375 -0.453125 1.984375zm14.703125 -1.9375l-1.109375 -0.09375q-1.359375 0 -1.828125 1.203125l0 8.375l-3.328125 0l0 -12.6875l3.125 0l0.09375 1.375q0.78125 -1.609375 2.171875 -1.609375q0.5625 0 0.90625 0.15625l-0.03125 3.28125zm7.7226562 9.484375q-0.140625 -0.296875 -0.28125 -0.984375q-0.890625 1.21875 -2.421875 1.21875q-1.59375 0 -2.640625 -1.046875q-1.046875 -1.0625 -1.046875 -2.734375q0 -2.0 1.265625 -3.078125q1.28125 -1.09375 3.671875 -1.125l1.0 0l0 -1.015625q0 -0.859375 -0.296875 -1.203125q-0.28125 -0.359375 -0.84375 -0.359375q-1.25 0 -1.25 1.453125l-3.3125 0q0 -1.75 1.3125 -2.890625q1.328125 -1.15625 3.34375 -1.15625q2.078125 0 3.21875 1.09375q1.15625 1.078125 1.15625 3.09375l0 5.96875q0.015625 1.640625 0.46875 2.5625l0 0.203125l-3.34375 0zm-1.953125 -2.375q0.546875 0 0.921875 -0.21875q0.390625 -0.21875 0.578125 -0.53125l0 -2.625l-0.796875 0q-0.84375 0 -1.328125 0.546875q-0.484375 0.53125 -0.484375 1.421875q0 1.40625 1.109375 1.40625zm6.828125 -4.359375q0 -3.109375 1.125 -4.640625q1.125 -1.546875 3.15625 -1.546875q1.71875 0 2.65625 1.359375l0.125 -1.125l2.984375 0l0 12.6875q0 2.421875 -1.359375 3.703125q-1.359375 1.2968903 -3.890625 1.2968903q-1.046875 0 -2.203125 -0.42189026q-1.140625 -0.421875 -1.703125 -1.0625l1.109375 -2.296875q0.46875 0.5 1.21875 0.796875q0.75 0.3125 1.421875 0.3125q1.109375 0 1.59375 -0.53125q0.484375 -0.53125 0.5 -1.71875l0 -1.09375q-0.953125 1.25 -2.46875 1.25q-2.03125 0 -3.140625 -1.578125q-1.109375 -1.578125 -1.125 -4.453125l0 -0.9375zm3.3125 0.84375q0 1.75 0.453125 2.5625q0.46875 0.796875 1.453125 0.796875q1.03125 0 1.515625 -0.734375l0 -6.0625q-0.515625 -0.8125 -1.484375 -0.8125q-0.984375 0 -1.46875 0.8125q-0.46875 0.8125 -0.46875 2.59375l0 0.84375zm14.2734375 6.125q-2.546875 0 -3.984375 -1.515625q-1.421875 -1.53125 -1.421875 -4.375l0 -1.0q0 -3.0 1.3125 -4.625q1.3125 -1.640625 3.75 -1.640625q2.390625 0 3.59375 1.53125q1.21875 1.53125 1.234375 4.53125l0 1.625l-6.59375 0q0.078125 1.40625 0.625 2.0625q0.546875 0.65625 1.703125 0.65625q1.65625 0 2.765625 -1.140625l1.3125 2.0q-0.609375 0.84375 -1.78125 1.375q-1.15625 0.515625 -2.515625 0.515625zm-2.078125 -7.78125l3.3125 0l0 -0.3125q-0.03125 -1.125 -0.390625 -1.703125q-0.34375 -0.59375 -1.21875 -0.59375q-0.859375 0 -1.25 0.625q-0.390625 0.609375 -0.453125 1.984375z" fill-rule="nonzero"/><path fill="#000000" fill-opacity="0.0" d="m212.05774 109.79527l160.62991 0l0 34.992126l-160.62991 0z" fill-rule="evenodd"/><path fill="#434343" d="m231.24524 134.44466l-5.375 0l0 4.53125l6.359375 0l0 2.859375l-9.796875 0l0 -17.062508l9.765625 0l0 2.875l-6.328125 0l0 4.0312576l5.375 0l0 2.765625zm5.8398438 -5.296875l0.09375 1.265625q1.125 -1.5 2.9375 -1.5q3.265625 0 3.359375 4.59375l0 8.328125l-3.328125 0l0 -8.09375q0 -1.078125 -0.328125 -1.5625q-0.3125 -0.484375 -1.125 -0.484375q-0.90625 0 -1.40625 0.921875l0 9.21875l-3.328125 0l0 -12.6875l3.125 0zm14.390625 9.28125q0 -0.421875 -0.40625 -0.765625q-0.40625 -0.359375 -1.796875 -0.96875q-2.0625 -0.84375 -2.828125 -1.734375q-0.765625 -0.890625 -0.765625 -2.203125q0 -1.671875 1.203125 -2.75q1.203125 -1.09375 3.1875 -1.09375q2.078125 0 3.328125 1.078125q1.265625 1.078125 1.265625 2.90625l-3.328125 0q0 -1.546875 -1.28125 -1.546875q-0.53125 0 -0.875 0.328125q-0.328125 0.328125 -0.328125 0.90625q0 0.421875 0.375 0.75q0.375 0.3125 1.765625 0.921875q2.03125 0.75 2.859375 1.671875q0.84375 0.90625 0.84375 2.375q0 1.703125 -1.28125 2.734375q-1.28125 1.03125 -3.34375 1.03125q-1.40625 0 -2.46875 -0.546875q-1.0625 -0.546875 -1.671875 -1.515625q-0.59375 -0.96875 -0.59375 -2.09375l3.140625 0q0.03125 0.859375 0.40625 1.296875q0.390625 0.4375 1.25 0.4375q1.34375 0 1.34375 -1.21875zm10.3984375 3.640625q-2.546875 0 -3.984375 -1.515625q-1.421875 -1.53125 -1.421875 -4.375l0 -1.0q0 -3.0 1.3125 -4.625q1.3125 -1.640625 3.75 -1.640625q2.390625 0 3.59375 1.53125q1.21875 1.53125 1.234375 4.53125l0 1.625l-6.59375 0q0.078125 1.40625 0.625 2.0625q0.546875 0.65625 1.703125 0.65625q1.65625 0 2.765625 -1.140625l1.3125 2.0q-0.609375 0.84375 -1.78125 1.375q-1.15625 0.515625 -2.515625 0.515625zm-2.078125 -7.78125l3.3125 0l0 -0.3125q-0.03125 -1.125 -0.390625 -1.703125q-0.34375 -0.59375 -1.21875 -0.59375q-0.859375 0 -1.25 0.625q-0.390625 0.609375 -0.453125 1.984375zm11.5625 -5.140625l0.09375 1.171875q1.109375 -1.40625 2.9375 -1.40625q1.90625 0 2.6875 1.71875q1.09375 -1.71875 3.109375 -1.71875q3.328125 0 3.40625 4.609375l0 8.3125l-3.3125 0l0 -8.09375q0 -1.109375 -0.3125 -1.578125q-0.296875 -0.46875 -1.03125 -0.46875q-0.921875 0 -1.375 1.140625l0.015625 0.390625l0 8.609375l-3.3125 0l0 -8.078125q0 -1.09375 -0.296875 -1.578125q-0.296875 -0.484375 -1.046875 -0.484375q-0.84375 0 -1.359375 0.921875l0 9.21875l-3.3125 0l0 -12.6875l3.109375 0zm24.566406 6.75q0 3.09375 -0.984375 4.640625q-0.984375 1.53125 -3.09375 1.53125q-1.640625 0 -2.640625 -1.484375l-0.109375 1.25l-3.0625 0l0 -18.000008l3.328125 0l0 6.3437576q0.9375 -1.265625 2.46875 -1.265625q2.109375 0 3.09375 1.53125q0.984375 1.53125 1.0 4.484375l0 0.96875zm-3.3125 -0.828125q0 -2.0 -0.390625 -2.6875q-0.375 -0.6875 -1.34375 -0.6875q-1.046875 0 -1.515625 0.953125l0 5.78125q0.4375 0.890625 1.546875 0.890625q0.9375 0 1.3125 -0.625q0.375 -0.625 0.390625 -2.421875l0 -1.203125zm8.7890625 6.765625l-3.328125 0l0 -18.000008l3.328125 0l0 18.000008zm7.6875 0.234375q-2.546875 0 -3.984375 -1.515625q-1.421875 -1.53125 -1.421875 -4.375l0 -1.0q0 -3.0 1.3125 -4.625q1.3125 -1.640625 3.75 -1.640625q2.390625 0 3.59375 1.53125q1.21875 1.53125 1.234375 4.53125l0 1.625l-6.59375 0q0.078125 1.40625 0.625 2.0625q0.546875 0.65625 1.703125 0.65625q1.65625 0 2.765625 -1.140625l1.3125 2.0q-0.609375 0.84375 -1.78125 1.375q-1.15625 0.515625 -2.515625 0.515625zm-2.078125 -7.78125l3.3125 0l0 -0.3125q-0.03125 -1.125 -0.390625 -1.703125q-0.34375 -0.59375 -1.21875 -0.59375q-0.859375 0 -1.25 0.625q-0.390625 0.609375 -0.453125 1.984375z" fill-rule="nonzero"/><path fill="#000000" fill-opacity="0.0" d="m479.0656 158.35957l-0.22045898 -105.44881" fill-rule="evenodd"/><path stroke="#595959" stroke-width="3.0" stroke-linejoin="round" stroke-linecap="butt" d="m479.0656 158.35957l-0.18283081 -87.44885" fill-rule="evenodd"/><path fill="#595959" stroke="#595959" stroke-width="3.0" stroke-linecap="butt" d="m483.83795 70.90036l-4.9836426 -13.603901l-4.9267273 13.624622z" fill-rule="evenodd"/><path fill="#000000" fill-opacity="0.0" d="m478.59317 487.08923l0.56692505 -71.08661" fill-rule="evenodd"/><path stroke="#595959" stroke-width="3.0" stroke-linejoin="round" stroke-linecap="butt" d="m478.59317 487.08923l0.42340088 -53.08719" fill-rule="evenodd"/><path fill="#595959" stroke="#595959" stroke-width="3.0" stroke-linecap="butt" d="m483.9716 434.04156l-4.846466 -13.653381l-5.0635986 13.574341z" fill-rule="evenodd"/><path fill="#000000" fill-opacity="0.0" d="m480.0 418.6168l-193.03937 -26.362183" fill-rule="evenodd"/><path stroke="#595959" stroke-width="3.0" stroke-linejoin="round" stroke-linecap="butt" d="m480.0 418.6168l-175.2049 -23.926666" fill-rule="evenodd"/><path fill="#595959" stroke="#595959" stroke-width="3.0" stroke-linecap="butt" d="m305.46558 389.78052l-14.159576 3.067505l12.8186035 6.7517395z" fill-rule="evenodd"/><path fill="#000000" fill-opacity="0.0" d="m479.3281 419.10236l-0.25198364 -26.834625" fill-rule="evenodd"/><path stroke="#595959" stroke-width="3.0" stroke-linejoin="round" stroke-linecap="butt" d="m479.3281 419.10236l-0.082977295 -8.835419" fill-rule="evenodd"/><path fill="#595959" stroke="#595959" stroke-width="3.0" stroke-linecap="butt" d="m484.2001 410.2204l-5.0828247 -13.567169l-4.8271484 13.660217z" fill-rule="evenodd"/><path fill="#000000" fill-opacity="0.0" d="m480.0 418.6168l191.18109 -26.330688" fill-rule="evenodd"/><path stroke="#595959" stroke-width="3.0" stroke-linejoin="round" stroke-linecap="butt" d="m480.0 418.6168l173.34943 -23.874786" fill-rule="evenodd"/><path fill="#595959" stroke="#595959" stroke-width="3.0" stroke-linecap="butt" d="m654.0255 399.65085l12.810913 -6.766388l-14.163086 -3.0513306z" fill-rule="evenodd"/><path fill="#000000" fill-opacity="0.0" d="m286.97113 346.0l-0.9763794 -142.01575" fill-rule="evenodd"/><path stroke="#595959" stroke-width="3.0" stroke-linejoin="round" stroke-linecap="butt" d="m286.97113 346.0l-0.8526306 -124.016174" fill-rule="evenodd"/><path fill="#595959" stroke="#595959" stroke-width="3.0" stroke-linecap="butt" d="m291.07358 221.94975l-5.0486755 -13.579895l-4.8614807 13.648041z" fill-rule="evenodd"/><path fill="#000000" fill-opacity="0.0" d="m479.0761 286.8189l0 -87.14961" fill-rule="evenodd"/><path stroke="#595959" stroke-width="3.0" stroke-linejoin="round" stroke-linecap="butt" d="m479.0761 286.8189l0 -69.14961" fill-rule="evenodd"/><path fill="#595959" stroke="#595959" stroke-width="3.0" stroke-linecap="butt" d="m484.0313 217.6693l-4.9552 -13.614304l-4.9552 13.614304z" fill-rule="evenodd"/><path fill="#000000" fill-opacity="0.0" d="m671.1811 231.39633l0.5039673 -31.2126" fill-rule="evenodd"/><path stroke="#595959" stroke-width="3.0" stroke-linejoin="round" stroke-linecap="butt" d="m671.1811 231.39633l0.2133789 -13.214935" fill-rule="evenodd"/><path fill="#595959" stroke="#595959" stroke-width="3.0" stroke-linecap="butt" d="m676.349 218.26137l-4.734741 -13.692505l-5.1743774 13.532532z" fill-rule="evenodd"/></g></svg>