<svg version="1.1" viewBox="0.0 0.0 960.0 540.0" fill="none" stroke="none" stroke-linecap="square" stroke-miterlimit="10" xmlns:xlink="http://www.w3.org/1999/xlink" xmlns="http://www.w3.org/2000/svg"><clipPath id="g4d271b9ccd_1_79.0"><path d="m0 0l960.0 0l0 540.0l-960.0 0l0 -540.0z" clip-rule="nonzero"/></clipPath><g clip-path="url(#g4d271b9ccd_1_79.0)"><path fill="#ffffff" d="m0 0l960.0 0l0 540.0l-960.0 0z" fill-rule="evenodd"/><path fill="#000000" fill-opacity="0.0" d="m737.2002 190.69397l0 0c0 -6.415909 5.201172 -11.61702 11.617065 -11.61702l138.30927 0c3.0809937 0 6.0358276 1.2239227 8.214478 3.402542c2.1785889 2.1786194 3.4025269 5.1334534 3.4025269 8.214478l0 46.466736c0 6.415909 -5.201111 11.61702 -11.617004 11.61702l-138.30927 0l0 0c-6.4158936 0 -11.617065 -5.201111 -11.617065 -11.61702z" fill-rule="evenodd"/><path stroke="#595959" stroke-width="1.0" stroke-linejoin="round" stroke-linecap="butt" d="m737.2002 190.69397l0 0c0 -6.415909 5.201172 -11.61702 11.617065 -11.61702l138.30927 0c3.0809937 0 6.0358276 1.2239227 8.214478 3.402542c2.1785889 2.1786194 3.4025269 5.1334534 3.4025269 8.214478l0 46.466736c0 6.415909 -5.201111 11.61702 -11.617004 11.61702l-138.30927 0l0 0c-6.4158936 0 -11.617065 -5.201111 -11.617065 -11.61702z" fill-rule="evenodd"/><path fill="#000000" fill-opacity="0.0" d="m399.87256 190.69397l0 0c0 -6.415909 5.2011414 -11.61702 11.617035 -11.61702l138.30923 0c3.0810547 0 6.0358887 1.2239227 8.214478 3.402542c2.17865 2.1786194 3.402588 5.1334534 3.402588 8.214478l0 46.466736c0 6.415909 -5.201172 11.61702 -11.617065 11.61702l-138.30923 0l0 0c-6.4158936 0 -11.617035 -5.201111 -11.617035 -11.61702z" fill-rule="evenodd"/><path stroke="#595959" stroke-width="1.0" stroke-linejoin="round" stroke-linecap="butt" d="m399.87256 190.69397l0 0c0 -6.415909 5.2011414 -11.61702 11.617035 -11.61702l138.30923 0c3.0810547 0 6.0358887 1.2239227 8.214478 3.402542c2.17865 2.1786194 3.402588 5.1334534 3.402588 8.214478l0 46.466736c0 6.415909 -5.201172 11.61702 -11.617065 11.61702l-138.30923 0l0 0c-6.4158936 0 -11.617035 -5.201111 -11.617035 -11.61702z" fill-rule="evenodd"/><path fill="#000000" fill-opacity="0.0" d="m62.546898 190.69397l0 0c0 -6.415909 5.2011185 -11.61702 11.617027 -11.61702l138.30925 0c3.0810242 0 6.035858 1.2239227 8.214478 3.402542c2.1786194 2.1786194 3.4025574 5.1334534 3.4025574 8.214478l0 46.466736c0 6.415909 -5.201126 11.61702 -11.617035 11.61702l-138.30925 0l0 0c-6.415909 0 -11.617027 -5.201111 -11.617027 -11.61702z" fill-rule="evenodd"/><path stroke="#595959" stroke-width="1.0" stroke-linejoin="round" stroke-linecap="butt" d="m62.546898 190.69397l0 0c0 -6.415909 5.2011185 -11.61702 11.617027 -11.61702l138.30925 0c3.0810242 0 6.035858 1.2239227 8.214478 3.402542c2.1786194 2.1786194 3.4025574 5.1334534 3.4025574 8.214478l0 46.466736c0 6.415909 -5.201126 11.61702 -11.617035 11.61702l-138.30925 0l0 0c-6.415909 0 -11.617027 -5.201111 -11.617027 -11.61702z" fill-rule="evenodd"/><path fill="#000000" fill-opacity="0.0" d="m8.094487 204.4528l0 0c0 -18.725876 15.180318 -33.90619 33.906193 -33.90619l875.99866 0c8.992493 0 17.616638 3.5722504 23.97528 9.930893c6.3586426 6.3586426 9.930908 14.982819 9.930908 23.975296l0 135.62068c0 18.725891 -15.180298 33.90619 -33.90619 33.90619l-875.99866 0c-18.725874 0 -33.906193 -15.180298 -33.906193 -33.90619z" fill-rule="evenodd"/><path stroke="#595959" stroke-width="1.0" stroke-linejoin="round" stroke-linecap="butt" stroke-dasharray="4.0,3.0" d="m8.094487 204.4528l0 0c0 -18.725876 15.180318 -33.90619 33.906193 -33.90619l875.99866 0c8.992493 0 17.616638 3.5722504 23.97528 9.930893c6.3586426 6.3586426 9.930908 14.982819 9.930908 23.975296l0 135.62068c0 18.725891 -15.180298 33.90619 -33.90619 33.90619l-875.99866 0c-18.725874 0 -33.906193 -15.180298 -33.906193 -33.90619z" fill-rule="evenodd"/><path fill="#f3f3f3" d="m405.95776 213.90247l0 0c0 -15.750992 12.768707 -28.519684 28.519684 -28.519684l0 0c7.563904 0 14.817993 3.0047455 20.166473 8.353226c5.34848 5.34848 8.35321 12.60257 8.35321 20.166458l0 0c0 15.750992 -12.768677 28.519684 -28.519684 28.519684l0 0c-15.750977 0 -28.519684 -12.768692 -28.519684 -28.519684z" fill-rule="evenodd"/><path stroke="#595959" stroke-width="1.0" stroke-linejoin="round" stroke-linecap="butt" d="m405.95776 213.90247l0 0c0 -15.750992 12.768707 -28.519684 28.519684 -28.519684l0 0c7.563904 0 14.817993 3.0047455 20.166473 8.353226c5.34848 5.34848 8.35321 12.60257 8.35321 20.166458l0 0c0 15.750992 -12.768677 28.519684 -28.519684 28.519684l0 0c-15.750977 0 -28.519684 -12.768692 -28.519684 -28.519684z" fill-rule="evenodd"/><path fill="#000000" d="m429.17276 218.42247l0 -8.59375l3.25 0q0.84375 0 1.296875 0.078125q0.640625 0.109375 1.0625 0.40625q0.4375 0.296875 0.6875 0.828125q0.265625 0.53125 0.265625 1.171875q0 1.09375 -0.703125 1.859375q-0.6875 0.75 -2.515625 0.75l-2.203125 0l0 3.5l-1.140625 0zm1.140625 -4.5l2.21875 0q1.109375 0 1.5625 -0.40625q0.46875 -0.421875 0.46875 -1.171875q0 -0.53125 -0.28125 -0.90625q-0.265625 -0.390625 -0.703125 -0.515625q-0.296875 -0.078125 -1.0625 -0.078125l-2.203125 0l0 3.078125z" fill-rule="nonzero"/><path fill="#000000" d="m440.28604 222.2506l0 0.671875l-3.78125 0q-0.015625 -0.25 0.078125 -0.484375q0.140625 -0.390625 0.453125 -0.765625q0.328125 -0.375 0.921875 -0.875q0.9375 -0.765625 1.265625 -1.203125q0.328125 -0.453125 0.328125 -0.84375q0 -0.421875 -0.296875 -0.703125q-0.296875 -0.296875 -0.78125 -0.296875q-0.5 0 -0.8125 0.3125q-0.296875 0.296875 -0.3125 0.84375l-0.71875 -0.078125q0.078125 -0.8125 0.5625 -1.234375q0.484375 -0.421875 1.296875 -0.421875q0.828125 0 1.296875 0.453125q0.484375 0.453125 0.484375 1.140625q0 0.34375 -0.140625 0.671875q-0.140625 0.328125 -0.46875 0.703125q-0.3125 0.359375 -1.078125 1.0q-0.625 0.53125 -0.8125 0.71875q-0.171875 0.1875 -0.296875 0.390625l2.8125 0z" fill-rule="nonzero"/><path fill="#f3f3f3" d="m498.2931 213.90247l0 0c0 -15.750992 12.768707 -28.519684 28.519714 -28.519684l0 0c7.563843 0 14.817932 3.0047455 20.166443 8.353226c5.3484497 5.34848 8.35321 12.60257 8.35321 20.166458l0 0c0 15.750992 -12.768677 28.519684 -28.519653 28.519684l0 0c-15.751007 0 -28.519714 -12.768692 -28.519714 -28.519684z" fill-rule="evenodd"/><path stroke="#595959" stroke-width="1.0" stroke-linejoin="round" stroke-linecap="butt" d="m498.2931 213.90247l0 0c0 -15.750992 12.768707 -28.519684 28.519714 -28.519684l0 0c7.563843 0 14.817932 3.0047455 20.166443 8.353226c5.3484497 5.34848 8.35321 12.60257 8.35321 20.166458l0 0c0 15.750992 -12.768677 28.519684 -28.519653 28.519684l0 0c-15.751007 0 -28.519714 -12.768692 -28.519714 -28.519684z" fill-rule="evenodd"/><path fill="#000000" d="m521.5081 218.42247l0 -8.59375l3.25 0q0.84375 0 1.296875 0.078125q0.640625 0.109375 1.0625 0.40625q0.4375 0.296875 0.6875 0.828125q0.265625 0.53125 0.265625 1.171875q0 1.09375 -0.703125 1.859375q-0.6875 0.75 -2.515625 0.75l-2.203125 0l0 3.5l-1.140625 0zm1.140625 -4.5l2.21875 0q1.109375 0 1.5625 -0.40625q0.46875 -0.421875 0.46875 -1.171875q0 -0.53125 -0.28125 -0.90625q-0.265625 -0.390625 -0.703125 -0.515625q-0.296875 -0.078125 -1.0625 -0.078125l-2.203125 0l0 3.078125z" fill-rule="nonzero"/><path fill="#000000" d="m528.9339 221.40685l0.703125 -0.09375q0.109375 0.59375 0.40625 0.859375q0.296875 0.265625 0.703125 0.265625q0.5 0 0.84375 -0.34375q0.34375 -0.34375 0.34375 -0.84375q0 -0.484375 -0.328125 -0.796875q-0.3125 -0.328125 -0.796875 -0.328125q-0.203125 0 -0.5 0.078125l0.078125 -0.609375q0.078125 0 0.125 0q0.4375 0 0.796875 -0.234375q0.359375 -0.234375 0.359375 -0.71875q0 -0.390625 -0.265625 -0.640625q-0.25 -0.25 -0.671875 -0.25q-0.40625 0 -0.6875 0.265625q-0.265625 0.25 -0.34375 0.765625l-0.703125 -0.125q0.125 -0.703125 0.578125 -1.09375q0.46875 -0.390625 1.140625 -0.390625q0.46875 0 0.859375 0.203125q0.40625 0.203125 0.609375 0.546875q0.21875 0.34375 0.21875 0.734375q0 0.375 -0.203125 0.6875q-0.203125 0.296875 -0.59375 0.46875q0.515625 0.125 0.796875 0.5q0.28125 0.359375 0.28125 0.921875q0 0.75 -0.546875 1.28125q-0.546875 0.515625 -1.390625 0.515625q-0.75 0 -1.25 -0.453125q-0.5 -0.453125 -0.5625 -1.171875z" fill-rule="nonzero"/><path fill="#efefef" d="m359.7882 330.12518l0 0c0 -15.750977 12.768707 -28.519684 28.519684 -28.519684l0 0c7.563904 0 14.817993 3.0047607 20.166473 8.353241c5.34848 5.34848 8.35321 12.60257 8.35321 20.166443l0 0c0 15.751007 -12.768677 28.519684 -28.519684 28.519684l0 0c-15.750977 0 -28.519684 -12.768677 -28.519684 -28.519684z" fill-rule="evenodd"/><path stroke="#595959" stroke-width="1.0" stroke-linejoin="round" stroke-linecap="butt" d="m359.7882 330.12518l0 0c0 -15.750977 12.768707 -28.519684 28.519684 -28.519684l0 0c7.563904 0 14.817993 3.0047607 20.166473 8.353241c5.34848 5.34848 8.35321 12.60257 8.35321 20.166443l0 0c0 15.751007 -12.768677 28.519684 -28.519684 28.519684l0 0c-15.750977 0 -28.519684 -12.768677 -28.519684 -28.519684z" fill-rule="evenodd"/><path fill="#000000" d="m382.84207 334.6452l-2.28125 -8.59375l1.171875 0l1.3125 5.640625q0.203125 0.875 0.359375 1.75q0.328125 -1.375 0.390625 -1.59375l1.625 -5.796875l1.375 0l1.234375 4.34375q0.453125 1.625 0.671875 3.046875q0.15625 -0.8125 0.421875 -1.875l1.34375 -5.515625l1.140625 0l-2.34375 8.59375l-1.109375 0l-1.796875 -6.546875q-0.234375 -0.8125 -0.28125 -1.0q-0.125 0.578125 -0.25 1.0l-1.8125 6.546875l-1.171875 0z" fill-rule="nonzero"/><path fill="#000000" d="m392.09012 337.62958l0.703125 -0.09375q0.109375 0.59375 0.40625 0.859375q0.296875 0.265625 0.703125 0.265625q0.5 0 0.84375 -0.34375q0.34375 -0.34375 0.34375 -0.84375q0 -0.484375 -0.328125 -0.796875q-0.3125 -0.328125 -0.796875 -0.328125q-0.203125 0 -0.5 0.078125l0.078125 -0.609375q0.078125 0 0.125 0q0.4375 0 0.796875 -0.234375q0.359375 -0.234375 0.359375 -0.71875q0 -0.390625 -0.265625 -0.640625q-0.25 -0.25 -0.671875 -0.25q-0.40625 0 -0.6875 0.265625q-0.265625 0.25 -0.34375 0.765625l-0.703125 -0.125q0.125 -0.703125 0.578125 -1.09375q0.46875 -0.390625 1.140625 -0.390625q0.46875 0 0.859375 0.203125q0.40625 0.203125 0.609375 0.546875q0.21875 0.34375 0.21875 0.734375q0 0.375 -0.203125 0.6875q-0.203125 0.296875 -0.59375 0.46875q0.515625 0.125 0.796875 0.5q0.28125 0.359375 0.28125 0.921875q0 0.75 -0.546875 1.28125q-0.546875 0.515625 -1.390625 0.515625q-0.75 0 -1.25 -0.453125q-0.5 -0.453125 -0.5625 -1.171875z" fill-rule="nonzero"/><path fill="#efefef" d="m452.12354 330.12518l0 0c0 -15.750977 12.768707 -28.519684 28.519684 -28.519684l0 0c7.563904 0 14.817993 3.0047607 20.166473 8.353241c5.34848 5.34848 8.35321 12.60257 8.35321 20.166443l0 0c0 15.751007 -12.768707 28.519684 -28.519684 28.519684l0 0c-15.750977 0 -28.519684 -12.768677 -28.519684 -28.519684z" fill-rule="evenodd"/><path stroke="#595959" stroke-width="1.0" stroke-linejoin="round" stroke-linecap="butt" d="m452.12354 330.12518l0 0c0 -15.750977 12.768707 -28.519684 28.519684 -28.519684l0 0c7.563904 0 14.817993 3.0047607 20.166473 8.353241c5.34848 5.34848 8.35321 12.60257 8.35321 20.166443l0 0c0 15.751007 -12.768707 28.519684 -28.519684 28.519684l0 0c-15.750977 0 -28.519684 -12.768677 -28.519684 -28.519684z" fill-rule="evenodd"/><path fill="#000000" d="m475.1774 334.6452l-2.28125 -8.59375l1.171875 0l1.3125 5.640625q0.203125 0.875 0.359375 1.75q0.328125 -1.375 0.390625 -1.59375l1.625 -5.796875l1.375 0l1.234375 4.34375q0.453125 1.625 0.671875 3.046875q0.15625 -0.8125 0.421875 -1.875l1.34375 -5.515625l1.140625 0l-2.34375 8.59375l-1.109375 0l-1.796875 -6.546875q-0.234375 -0.8125 -0.28125 -1.0q-0.125 0.578125 -0.25 1.0l-1.8125 6.546875l-1.171875 0z" fill-rule="nonzero"/><path fill="#000000" d="m486.67545 339.1452l0 -1.375l-2.484375 0l0 -0.640625l2.609375 -3.71875l0.578125 0l0 3.71875l0.765625 0l0 0.640625l-0.765625 0l0 1.375l-0.703125 0zm0 -2.015625l0 -2.578125l-1.796875 2.578125l1.796875 0z" fill-rule="nonzero"/><path fill="#efefef" d="m544.45886 330.12518l0 0c0 -15.750977 12.768677 -28.519684 28.519653 -28.519684l0 0c7.563904 0 14.817993 3.0047607 20.166504 8.353241c5.3484497 5.34848 8.35321 12.60257 8.35321 20.166443l0 0c0 15.751007 -12.768677 28.519684 -28.519714 28.519684l0 0c-15.750977 0 -28.519653 -12.768677 -28.519653 -28.519684z" fill-rule="evenodd"/><path stroke="#595959" stroke-width="1.0" stroke-linejoin="round" stroke-linecap="butt" d="m544.45886 330.12518l0 0c0 -15.750977 12.768677 -28.519684 28.519653 -28.519684l0 0c7.563904 0 14.817993 3.0047607 20.166504 8.353241c5.3484497 5.34848 8.35321 12.60257 8.35321 20.166443l0 0c0 15.751007 -12.768677 28.519684 -28.519714 28.519684l0 0c-15.750977 0 -28.519653 -12.768677 -28.519653 -28.519684z" fill-rule="evenodd"/><path fill="#000000" d="m567.5127 334.6452l-2.28125 -8.59375l1.171875 0l1.3125 5.640625q0.203125 0.875 0.359375 1.75q0.328125 -1.375 0.390625 -1.59375l1.625 -5.796875l1.375 0l1.234375 4.34375q0.453125 1.625 0.671875 3.046875q0.15625 -0.8125 0.421875 -1.875l1.34375 -5.515625l1.140625 0l-2.34375 8.59375l-1.109375 0l-1.796875 -6.546875q-0.234375 -0.8125 -0.28125 -1.0q-0.125 0.578125 -0.25 1.0l-1.8125 6.546875l-1.171875 0z" fill-rule="nonzero"/><path fill="#000000" d="m576.7451 337.6452l0.75 -0.0625q0.078125 0.53125 0.375 0.8125q0.296875 0.265625 0.71875 0.265625q0.515625 0 0.859375 -0.375q0.359375 -0.390625 0.359375 -1.015625q0 -0.609375 -0.34375 -0.953125q-0.34375 -0.34375 -0.890625 -0.34375q-0.328125 0 -0.609375 0.15625q-0.265625 0.140625 -0.421875 0.390625l-0.671875 -0.078125l0.5625 -2.953125l2.84375 0l0 0.671875l-2.28125 0l-0.3125 1.546875q0.515625 -0.359375 1.078125 -0.359375q0.75 0 1.265625 0.515625q0.515625 0.515625 0.515625 1.34375q0 0.765625 -0.453125 1.34375q-0.546875 0.6875 -1.5 0.6875q-0.78125 0 -1.28125 -0.4375q-0.484375 -0.4375 -0.5625 -1.15625z" fill-rule="nonzero"/><path fill="#f3f3f3" d="m68.634094 213.90446l0 0c0 -15.750992 12.7687 -28.519684 28.519684 -28.519684l0 0c7.563896 0 14.817986 3.0047455 20.166466 8.35321c5.34848 5.34848 8.353226 12.602585 8.353226 20.166473l0 0c0 15.750977 -12.7687 28.519684 -28.519691 28.519684l0 0c-15.750984 0 -28.519684 -12.768707 -28.519684 -28.519684z" fill-rule="evenodd"/><path stroke="#595959" stroke-width="1.0" stroke-linejoin="round" stroke-linecap="butt" d="m68.634094 213.90446l0 0c0 -15.750992 12.7687 -28.519684 28.519684 -28.519684l0 0c7.563896 0 14.817986 3.0047455 20.166466 8.35321c5.34848 5.34848 8.353226 12.602585 8.353226 20.166473l0 0c0 15.750977 -12.7687 28.519684 -28.519691 28.519684l0 0c-15.750984 0 -28.519684 -12.768707 -28.519684 -28.519684z" fill-rule="evenodd"/><path fill="#000000" d="m91.84909 218.42445l0 -8.59375l3.25 0q0.84375 0 1.296875 0.078125q0.640625 0.109375 1.0625 0.40625q0.4375 0.296875 0.6875 0.828125q0.265625 0.53125 0.265625 1.171875q0 1.09375 -0.703125 1.859375q-0.6875 0.75 -2.515625 0.75l-2.203125 0l0 3.5l-1.140625 0zm1.140625 -4.5l2.21875 0q1.109375 0 1.5625 -0.40625q0.46875 -0.421875 0.46875 -1.171875q0 -0.53125 -0.28125 -0.90625q-0.265625 -0.390625 -0.703125 -0.515625q-0.296875 -0.078125 -1.0625 -0.078125l-2.203125 0l0 3.078125z" fill-rule="nonzero"/><path fill="#000000" d="m99.25925 220.09633q0 -1.015625 0.203125 -1.625q0.21875 -0.625 0.625 -0.953125q0.421875 -0.34375 1.046875 -0.34375q0.453125 0 0.796875 0.1875q0.359375 0.1875 0.578125 0.53125q0.234375 0.34375 0.359375 0.859375q0.125 0.5 0.125 1.34375q0 1.015625 -0.203125 1.640625q-0.203125 0.609375 -0.625 0.953125q-0.40625 0.328125 -1.03125 0.328125q-0.828125 0 -1.296875 -0.59375q-0.578125 -0.71875 -0.578125 -2.328125zm0.734375 0q0 1.40625 0.328125 1.875q0.328125 0.46875 0.8125 0.46875q0.484375 0 0.8125 -0.46875q0.328125 -0.46875 0.328125 -1.875q0 -1.40625 -0.328125 -1.875q-0.328125 -0.46875 -0.828125 -0.46875q-0.484375 0 -0.765625 0.40625q-0.359375 0.53125 -0.359375 1.9375z" fill-rule="nonzero"/><path fill="#f3f3f3" d="m160.96942 213.90446l0 0c0 -15.750992 12.768692 -28.519684 28.519684 -28.519684l0 0c7.5638885 0 14.817978 3.0047455 20.166458 8.35321c5.34848 5.34848 8.353226 12.602585 8.353226 20.166473l0 0c0 15.750977 -12.768707 28.519684 -28.519684 28.519684l0 0c-15.750992 0 -28.519684 -12.768707 -28.519684 -28.519684z" fill-rule="evenodd"/><path stroke="#595959" stroke-width="1.0" stroke-linejoin="round" stroke-linecap="butt" d="m160.96942 213.90446l0 0c0 -15.750992 12.768692 -28.519684 28.519684 -28.519684l0 0c7.5638885 0 14.817978 3.0047455 20.166458 8.35321c5.34848 5.34848 8.353226 12.602585 8.353226 20.166473l0 0c0 15.750977 -12.768707 28.519684 -28.519684 28.519684l0 0c-15.750992 0 -28.519684 -12.768707 -28.519684 -28.519684z" fill-rule="evenodd"/><path fill="#000000" d="m184.18442 218.42445l0 -8.59375l3.25 0q0.84375 0 1.296875 0.078125q0.640625 0.109375 1.0625 0.40625q0.4375 0.296875 0.6875 0.828125q0.265625 0.53125 0.265625 1.171875q0 1.09375 -0.703125 1.859375q-0.6875 0.75 -2.515625 0.75l-2.203125 0l0 3.5l-1.140625 0zm1.140625 -4.5l2.21875 0q1.109375 0 1.5625 -0.40625q0.46875 -0.421875 0.46875 -1.171875q0 -0.53125 -0.28125 -0.90625q-0.265625 -0.390625 -0.703125 -0.515625q-0.296875 -0.078125 -1.0625 -0.078125l-2.203125 0l0 3.078125z" fill-rule="nonzero"/><path fill="#000000" d="m194.25082 222.92445l-0.703125 0l0 -4.484375q-0.25 0.25 -0.671875 0.5q-0.40625 0.234375 -0.734375 0.34375l0 -0.671875q0.59375 -0.28125 1.03125 -0.671875q0.4375 -0.390625 0.625 -0.765625l0.453125 0l0 5.75z" fill-rule="nonzero"/><path fill="#efefef" d="m22.464537 330.1272l0 0c0 -15.751007 12.768698 -28.519684 28.519686 -28.519684l0 0c7.5638924 0 14.817986 3.0047302 20.166466 8.35321c5.3484726 5.34848 8.353218 12.60257 8.353218 20.166473l0 0c0 15.750977 -12.7687 28.519684 -28.519684 28.519684l0 0c-15.750988 0 -28.519686 -12.768707 -28.519686 -28.519684z" fill-rule="evenodd"/><path stroke="#595959" stroke-width="1.0" stroke-linejoin="round" stroke-linecap="butt" d="m22.464537 330.1272l0 0c0 -15.751007 12.768698 -28.519684 28.519686 -28.519684l0 0c7.5638924 0 14.817986 3.0047302 20.166466 8.35321c5.3484726 5.34848 8.353218 12.60257 8.353218 20.166473l0 0c0 15.750977 -12.7687 28.519684 -28.519684 28.519684l0 0c-15.750988 0 -28.519686 -12.768707 -28.519686 -28.519684z" fill-rule="evenodd"/><path fill="#000000" d="m45.518402 334.6472l-2.28125 -8.59375l1.171875 0l1.3125 5.640625q0.203125 0.875 0.359375 1.75q0.328125 -1.375 0.390625 -1.59375l1.625 -5.796875l1.375 0l1.234375 4.34375q0.453125 1.625 0.671875 3.046875q0.15625 -0.8125 0.421875 -1.875l1.34375 -5.515625l1.140625 0l-2.34375 8.59375l-1.109375 0l-1.796875 -6.546875q-0.234375 -0.8125 -0.28125 -1.0q-0.125 0.578125 -0.25 1.0l-1.8125 6.546875l-1.171875 0z" fill-rule="nonzero"/><path fill="#000000" d="m54.750824 336.31906q0 -1.015625 0.203125 -1.625q0.21875 -0.625 0.625 -0.953125q0.421875 -0.34375 1.046875 -0.34375q0.453125 0 0.796875 0.1875q0.359375 0.1875 0.578125 0.53125q0.234375 0.34375 0.359375 0.859375q0.125 0.5 0.125 1.34375q0 1.015625 -0.203125 1.640625q-0.203125 0.609375 -0.625 0.953125q-0.40625 0.328125 -1.03125 0.328125q-0.828125 0 -1.296875 -0.59375q-0.578125 -0.71875 -0.578125 -2.328125zm0.734375 0q0 1.40625 0.328125 1.875q0.328125 0.46875 0.8125 0.46875q0.484375 0 0.8125 -0.46875q0.328125 -0.46875 0.328125 -1.875q0 -1.40625 -0.328125 -1.875q-0.328125 -0.46875 -0.828125 -0.46875q-0.484375 0 -0.765625 0.40625q-0.359375 0.53125 -0.359375 1.9375z" fill-rule="nonzero"/><path fill="#efefef" d="m114.79986 330.1272l0 0c0 -15.751007 12.7687 -28.519684 28.519676 -28.519684l0 0c7.563904 0 14.817993 3.0047302 20.166473 8.35321c5.34848 5.34848 8.353226 12.60257 8.353226 20.166473l0 0c0 15.750977 -12.768707 28.519684 -28.5197 28.519684l0 0c-15.750977 0 -28.519676 -12.768707 -28.519676 -28.519684z" fill-rule="evenodd"/><path stroke="#595959" stroke-width="1.0" stroke-linejoin="round" stroke-linecap="butt" d="m114.79986 330.1272l0 0c0 -15.751007 12.7687 -28.519684 28.519676 -28.519684l0 0c7.563904 0 14.817993 3.0047302 20.166473 8.35321c5.34848 5.34848 8.353226 12.60257 8.353226 20.166473l0 0c0 15.750977 -12.768707 28.519684 -28.5197 28.519684l0 0c-15.750977 0 -28.519676 -12.768707 -28.519676 -28.519684z" fill-rule="evenodd"/><path fill="#000000" d="m137.85371 334.6472l-2.28125 -8.59375l1.171875 0l1.3125 5.640625q0.203125 0.875 0.359375 1.75q0.328125 -1.375 0.390625 -1.59375l1.625 -5.796875l1.375 0l1.234375 4.34375q0.453125 1.625 0.671875 3.046875q0.15625 -0.8125 0.421875 -1.875l1.34375 -5.515625l1.140625 0l-2.34375 8.59375l-1.109375 0l-1.796875 -6.546875q-0.234375 -0.8125 -0.28125 -1.0q-0.125 0.578125 -0.25 1.0l-1.8125 6.546875l-1.171875 0z" fill-rule="nonzero"/><path fill="#000000" d="m149.74239 339.1472l-0.703125 0l0 -4.484375q-0.25 0.25 -0.671875 0.5q-0.40625 0.234375 -0.734375 0.34375l0 -0.671875q0.59375 -0.28125 1.03125 -0.671875q0.4375 -0.390625 0.625 -0.765625l0.453125 0l0 5.75z" fill-rule="nonzero"/><path fill="#efefef" d="m207.13518 330.1272l0 0c0 -15.751007 12.768692 -28.519684 28.519684 -28.519684l0 0c7.5638885 0 14.817978 3.0047302 20.166458 8.35321c5.34848 5.34848 8.353241 12.60257 8.353241 20.166473l0 0c0 15.750977 -12.768707 28.519684 -28.5197 28.519684l0 0c-15.750992 0 -28.519684 -12.768707 -28.519684 -28.519684z" fill-rule="evenodd"/><path stroke="#595959" stroke-width="1.0" stroke-linejoin="round" stroke-linecap="butt" d="m207.13518 330.1272l0 0c0 -15.751007 12.768692 -28.519684 28.519684 -28.519684l0 0c7.5638885 0 14.817978 3.0047302 20.166458 8.35321c5.34848 5.34848 8.353241 12.60257 8.353241 20.166473l0 0c0 15.750977 -12.768707 28.519684 -28.5197 28.519684l0 0c-15.750992 0 -28.519684 -12.768707 -28.519684 -28.519684z" fill-rule="evenodd"/><path fill="#000000" d="m230.18904 334.6472l-2.28125 -8.59375l1.171875 0l1.3125 5.640625q0.203125 0.875 0.359375 1.75q0.328125 -1.375 0.390625 -1.59375l1.625 -5.796875l1.375 0l1.234375 4.34375q0.453125 1.625 0.671875 3.046875q0.15625 -0.8125 0.421875 -1.875l1.34375 -5.515625l1.140625 0l-2.34375 8.59375l-1.109375 0l-1.796875 -6.546875q-0.234375 -0.8125 -0.28125 -1.0q-0.125 0.578125 -0.25 1.0l-1.8125 6.546875l-1.171875 0z" fill-rule="nonzero"/><path fill="#000000" d="m243.12459 338.4753l0 0.671875l-3.78125 0q-0.015625 -0.25 0.078125 -0.484375q0.140625 -0.390625 0.453125 -0.765625q0.328125 -0.375 0.921875 -0.875q0.9375 -0.765625 1.265625 -1.203125q0.328125 -0.453125 0.328125 -0.84375q0 -0.421875 -0.296875 -0.703125q-0.296875 -0.296875 -0.78125 -0.296875q-0.5 0 -0.8125 0.3125q-0.296875 0.296875 -0.3125 0.84375l-0.71875 -0.078125q0.078125 -0.8125 0.5625 -1.234375q0.484375 -0.421875 1.296875 -0.421875q0.828125 0 1.296875 0.453125q0.484375 0.453125 0.484375 1.140625q0 0.34375 -0.140625 0.671875q-0.140625 0.328125 -0.46875 0.703125q-0.3125 0.359375 -1.078125 1.0q-0.625 0.53125 -0.8125 0.71875q-0.171875 0.1875 -0.296875 0.390625l2.8125 0z" fill-rule="nonzero"/><path fill="#f3f3f3" d="m743.28143 213.90048l0 0c0 -15.750992 12.768738 -28.519684 28.519714 -28.519684l0 0c7.563904 0 14.817993 3.0047302 20.166443 8.35321c5.3485107 5.34848 8.35321 12.60257 8.35321 20.166473l0 0c0 15.750977 -12.768677 28.519684 -28.519653 28.519684l0 0c-15.750977 0 -28.519714 -12.768707 -28.519714 -28.519684z" fill-rule="evenodd"/><path stroke="#595959" stroke-width="1.0" stroke-linejoin="round" stroke-linecap="butt" d="m743.28143 213.90048l0 0c0 -15.750992 12.768738 -28.519684 28.519714 -28.519684l0 0c7.563904 0 14.817993 3.0047302 20.166443 8.35321c5.3485107 5.34848 8.35321 12.60257 8.35321 20.166473l0 0c0 15.750977 -12.768677 28.519684 -28.519653 28.519684l0 0c-15.750977 0 -28.519714 -12.768707 -28.519714 -28.519684z" fill-rule="evenodd"/><path fill="#000000" d="m766.49646 218.42047l0 -8.59375l3.25 0q0.84375 0 1.296875 0.078125q0.640625 0.109375 1.0625 0.40625q0.4375 0.296875 0.6875 0.828125q0.265625 0.53125 0.265625 1.171875q0 1.09375 -0.703125 1.859375q-0.6875 0.75 -2.515625 0.75l-2.203125 0l0 3.5l-1.140625 0zm1.140625 -4.5l2.21875 0q1.109375 0 1.5625 -0.40625q0.46875 -0.421875 0.46875 -1.171875q0 -0.53125 -0.28125 -0.90625q-0.265625 -0.390625 -0.703125 -0.515625q-0.296875 -0.078125 -1.0625 -0.078125l-2.203125 0l0 3.078125z" fill-rule="nonzero"/><path fill="#000000" d="m776.17224 222.92047l0 -1.375l-2.484375 0l0 -0.640625l2.609375 -3.71875l0.578125 0l0 3.71875l0.765625 0l0 0.640625l-0.765625 0l0 1.375l-0.703125 0zm0 -2.015625l0 -2.578125l-1.796875 2.578125l1.796875 0z" fill-rule="nonzero"/><path fill="#f3f3f3" d="m835.61676 213.90048l0 0c0 -15.750992 12.768677 -28.519684 28.519714 -28.519684l0 0c7.563843 0 14.817932 3.0047302 20.166443 8.35321c5.3484497 5.34848 8.35321 12.60257 8.35321 20.166473l0 0c0 15.750977 -12.768677 28.519684 -28.519653 28.519684l0 0c-15.751038 0 -28.519714 -12.768707 -28.519714 -28.519684z" fill-rule="evenodd"/><path stroke="#595959" stroke-width="1.0" stroke-linejoin="round" stroke-linecap="butt" d="m835.61676 213.90048l0 0c0 -15.750992 12.768677 -28.519684 28.519714 -28.519684l0 0c7.563843 0 14.817932 3.0047302 20.166443 8.35321c5.3484497 5.34848 8.35321 12.60257 8.35321 20.166473l0 0c0 15.750977 -12.768677 28.519684 -28.519653 28.519684l0 0c-15.751038 0 -28.519714 -12.768707 -28.519714 -28.519684z" fill-rule="evenodd"/><path fill="#000000" d="m858.8318 218.42047l0 -8.59375l3.25 0q0.84375 0 1.296875 0.078125q0.640625 0.109375 1.0625 0.40625q0.4375 0.296875 0.6875 0.828125q0.265625 0.53125 0.265625 1.171875q0 1.09375 -0.703125 1.859375q-0.6875 0.75 -2.515625 0.75l-2.203125 0l0 3.5l-1.140625 0zm1.140625 -4.5l2.21875 0q1.109375 0 1.5625 -0.40625q0.46875 -0.421875 0.46875 -1.171875q0 -0.53125 -0.28125 -0.90625q-0.265625 -0.390625 -0.703125 -0.515625q-0.296875 -0.078125 -1.0625 -0.078125l-2.203125 0l0 3.078125z" fill-rule="nonzero"/><path fill="#000000" d="m866.24194 221.42047l0.75 -0.0625q0.078125 0.53125 0.375 0.8125q0.296875 0.265625 0.71875 0.265625q0.515625 0 0.859375 -0.375q0.359375 -0.390625 0.359375 -1.015625q0 -0.609375 -0.34375 -0.953125q-0.34375 -0.34375 -0.890625 -0.34375q-0.328125 0 -0.609375 0.15625q-0.265625 0.140625 -0.421875 0.390625l-0.671875 -0.078125l0.5625 -2.953125l2.84375 0l0 0.671875l-2.28125 0l-0.3125 1.546875q0.515625 -0.359375 1.078125 -0.359375q0.75 0 1.265625 0.515625q0.515625 0.515625 0.515625 1.34375q0 0.765625 -0.453125 1.34375q-0.546875 0.6875 -1.5 0.6875q-0.78125 0 -1.28125 -0.4375q-0.484375 -0.4375 -0.5625 -1.15625z" fill-rule="nonzero"/><path fill="#efefef" d="m697.1119 330.1232l0 0c0 -15.750977 12.768738 -28.519684 28.519714 -28.519684l0 0c7.563904 0 14.817993 3.0047607 20.166443 8.35321c5.3485107 5.34848 8.35321 12.6026 8.35321 20.166473l0 0c0 15.750977 -12.768677 28.519684 -28.519653 28.519684l0 0c-15.750977 0 -28.519714 -12.768707 -28.519714 -28.519684z" fill-rule="evenodd"/><path stroke="#595959" stroke-width="1.0" stroke-linejoin="round" stroke-linecap="butt" d="m697.1119 330.1232l0 0c0 -15.750977 12.768738 -28.519684 28.519714 -28.519684l0 0c7.563904 0 14.817993 3.0047607 20.166443 8.35321c5.3485107 5.34848 8.35321 12.6026 8.35321 20.166473l0 0c0 15.750977 -12.768677 28.519684 -28.519653 28.519684l0 0c-15.750977 0 -28.519714 -12.768707 -28.519714 -28.519684z" fill-rule="evenodd"/><path fill="#000000" d="m720.1658 334.6432l-2.28125 -8.59375l1.171875 0l1.3125 5.640625q0.203125 0.875 0.359375 1.75q0.328125 -1.375 0.390625 -1.59375l1.625 -5.796875l1.375 0l1.234375 4.34375q0.453125 1.625 0.671875 3.046875q0.15625 -0.8125 0.421875 -1.875l1.34375 -5.515625l1.140625 0l-2.34375 8.59375l-1.109375 0l-1.796875 -6.546875q-0.234375 -0.8125 -0.28125 -1.0q-0.125 0.578125 -0.25 1.0l-1.8125 6.546875l-1.171875 0z" fill-rule="nonzero"/><path fill="#000000" d="m733.05444 334.81506l-0.703125 0.0625q-0.09375 -0.421875 -0.265625 -0.609375q-0.28125 -0.296875 -0.703125 -0.296875q-0.328125 0 -0.59375 0.1875q-0.328125 0.234375 -0.515625 0.703125q-0.1875 0.46875 -0.203125 1.328125q0.25 -0.390625 0.609375 -0.578125q0.375 -0.1875 0.78125 -0.1875q0.703125 0 1.1875 0.515625q0.5 0.515625 0.5 1.34375q0 0.53125 -0.234375 1.0q-0.21875 0.46875 -0.625 0.71875q-0.40625 0.234375 -0.921875 0.234375q-0.890625 0 -1.453125 -0.640625q-0.546875 -0.65625 -0.546875 -2.140625q0 -1.65625 0.625 -2.40625q0.53125 -0.65625 1.4375 -0.65625q0.671875 0 1.09375 0.375q0.4375 0.375 0.53125 1.046875zm-2.875 2.46875q0 0.359375 0.15625 0.703125q0.15625 0.328125 0.421875 0.5q0.28125 0.171875 0.59375 0.171875q0.4375 0 0.75 -0.359375q0.328125 -0.359375 0.328125 -0.96875q0 -0.59375 -0.3125 -0.9375q-0.3125 -0.34375 -0.796875 -0.34375q-0.46875 0 -0.8125 0.34375q-0.328125 0.34375 -0.328125 0.890625z" fill-rule="nonzero"/><path fill="#efefef" d="m789.4472 330.1232l0 0c0 -15.750977 12.768677 -28.519684 28.519714 -28.519684l0 0c7.563843 0 14.817932 3.0047607 20.166443 8.35321c5.3484497 5.34848 8.35321 12.6026 8.35321 20.166473l0 0c0 15.750977 -12.768677 28.519684 -28.519653 28.519684l0 0c-15.751038 0 -28.519714 -12.768707 -28.519714 -28.519684z" fill-rule="evenodd"/><path stroke="#595959" stroke-width="1.0" stroke-linejoin="round" stroke-linecap="butt" d="m789.4472 330.1232l0 0c0 -15.750977 12.768677 -28.519684 28.519714 -28.519684l0 0c7.563843 0 14.817932 3.0047607 20.166443 8.35321c5.3484497 5.34848 8.35321 12.6026 8.35321 20.166473l0 0c0 15.750977 -12.768677 28.519684 -28.519653 28.519684l0 0c-15.751038 0 -28.519714 -12.768707 -28.519714 -28.519684z" fill-rule="evenodd"/><path fill="#000000" d="m812.5011 334.6432l-2.28125 -8.59375l1.171875 0l1.3125 5.640625q0.203125 0.875 0.359375 1.75q0.328125 -1.375 0.390625 -1.59375l1.625 -5.796875l1.375 0l1.234375 4.34375q0.453125 1.625 0.671875 3.046875q0.15625 -0.8125 0.421875 -1.875l1.34375 -5.515625l1.140625 0l-2.34375 8.59375l-1.109375 0l-1.796875 -6.546875q-0.234375 -0.8125 -0.28125 -1.0q-0.125 0.578125 -0.25 1.0l-1.8125 6.546875l-1.171875 0z" fill-rule="nonzero"/><path fill="#000000" d="m821.7804 334.1588l0 -0.671875l3.71875 0l0 0.546875q-0.546875 0.578125 -1.09375 1.546875q-0.53125 0.96875 -0.828125 1.984375q-0.203125 0.71875 -0.265625 1.578125l-0.71875 0q0 -0.671875 0.25 -1.625q0.265625 -0.96875 0.734375 -1.859375q0.484375 -0.890625 1.015625 -1.5l-2.8125 0z" fill-rule="nonzero"/><path fill="#efefef" d="m881.78253 330.1232l0 0c0 -15.750977 12.768677 -28.519684 28.519653 -28.519684l0 0c7.563904 0 14.817993 3.0047607 20.166504 8.35321c5.3484497 5.34848 8.35321 12.6026 8.35321 20.166473l0 0c0 15.750977 -12.768677 28.519684 -28.519714 28.519684l0 0c-15.750977 0 -28.519653 -12.768707 -28.519653 -28.519684z" fill-rule="evenodd"/><path stroke="#595959" stroke-width="1.0" stroke-linejoin="round" stroke-linecap="butt" d="m881.78253 330.1232l0 0c0 -15.750977 12.768677 -28.519684 28.519653 -28.519684l0 0c7.563904 0 14.817993 3.0047607 20.166504 8.35321c5.3484497 5.34848 8.35321 12.6026 8.35321 20.166473l0 0c0 15.750977 -12.768677 28.519684 -28.519714 28.519684l0 0c-15.750977 0 -28.519653 -12.768707 -28.519653 -28.519684z" fill-rule="evenodd"/><path fill="#000000" d="m904.83636 334.6432l-2.28125 -8.59375l1.171875 0l1.3125 5.640625q0.203125 0.875 0.359375 1.75q0.328125 -1.375 0.390625 -1.59375l1.625 -5.796875l1.375 0l1.234375 4.34375q0.453125 1.625 0.671875 3.046875q0.15625 -0.8125 0.421875 -1.875l1.34375 -5.515625l1.140625 0l-2.34375 8.59375l-1.109375 0l-1.796875 -6.546875q-0.234375 -0.8125 -0.28125 -1.0q-0.125 0.578125 -0.25 1.0l-1.8125 6.546875l-1.171875 0z" fill-rule="nonzero"/><path fill="#000000" d="m915.16254 336.0338q-0.4375 -0.15625 -0.65625 -0.453125q-0.203125 -0.296875 -0.203125 -0.71875q0 -0.625 0.4375 -1.046875q0.453125 -0.421875 1.203125 -0.421875q0.75 0 1.203125 0.4375q0.453125 0.4375 0.453125 1.0625q0 0.390625 -0.203125 0.6875q-0.203125 0.296875 -0.640625 0.453125q0.53125 0.171875 0.796875 0.5625q0.28125 0.375 0.28125 0.90625q0 0.734375 -0.515625 1.234375q-0.515625 0.5 -1.359375 0.5q-0.859375 0 -1.375 -0.5q-0.515625 -0.5 -0.515625 -1.25q0 -0.5625 0.28125 -0.9375q0.28125 -0.375 0.8125 -0.515625zm-0.140625 -1.1875q0 0.40625 0.25 0.671875q0.265625 0.25 0.6875 0.25q0.40625 0 0.65625 -0.25q0.265625 -0.265625 0.265625 -0.640625q0 -0.375 -0.265625 -0.640625q-0.265625 -0.265625 -0.671875 -0.265625q-0.390625 0 -0.65625 0.265625q-0.265625 0.25 -0.265625 0.609375zm-0.234375 2.640625q0 0.296875 0.140625 0.578125q0.140625 0.28125 0.421875 0.4375q0.28125 0.15625 0.609375 0.15625q0.5 0 0.828125 -0.3125q0.328125 -0.328125 0.328125 -0.828125q0 -0.515625 -0.34375 -0.84375q-0.328125 -0.328125 -0.828125 -0.328125q-0.5 0 -0.828125 0.328125q-0.328125 0.328125 -0.328125 0.8125z" fill-rule="nonzero"/><path fill="#000000" fill-opacity="0.0" d="m62.545826 113.002625l265.44882 0l0 72.37796l-265.44882 0z" fill-rule="evenodd"/><path fill="#595959" d="m74.93645 130.06325l-0.203125 1.0625q1.078125 -1.265625 2.4375 -1.234375q0.9375 0 1.484375 0.640625q0.5625 0.625 0.640625 1.703125q0.03125 0.625 -0.03125 1.234375l-1.078125 6.453125l-1.5625 0l1.078125 -6.484375l0.03125 -0.71875q0 -1.390625 -1.140625 -1.421875q-0.9375 -0.03125 -1.75 1.0625l-0.265625 0.390625l-1.25 7.171875l-1.578125 0l1.71875 -9.859375l1.46875 0z" fill-rule="nonzero"/><path fill="#595959" d="m92.99162 135.4695q0 2.34375 -0.84375 3.5q-0.84375 1.140625 -2.390625 1.140625q-1.484375 0 -2.28125 -1.125l0 4.734375l-1.59375 0l0 -13.65625l1.453125 0l0.078125 1.09375q0.8125 -1.265625 2.328125 -1.265625q1.625 0 2.421875 1.125q0.796875 1.125 0.828125 3.375l0 1.078125zm-1.609375 -0.921875q0 -1.65625 -0.515625 -2.4375q-0.5 -0.796875 -1.625 -0.796875q-1.15625 0 -1.765625 1.15625l0 5.125q0.59375 1.140625 1.78125 1.140625q1.09375 0 1.609375 -0.78125q0.515625 -0.796875 0.515625 -2.421875l0 -0.984375zm8.763092 5.375q-0.15625 -0.3125 -0.21875 -1.078125q-0.859375 1.265625 -2.1875 1.265625q-1.328125 0 -2.09375 -0.75q-0.75 -0.765625 -0.75 -2.125q0 -1.5 1.015625 -2.375q1.03125 -0.890625 2.8125 -0.90625l1.1875 0l0 -1.046875q0 -0.890625 -0.40625 -1.265625q-0.390625 -0.375 -1.1875 -0.375q-0.734375 0 -1.1875 0.4375q-0.453125 0.4375 -0.453125 1.09375l-1.609375 0q0 -0.75 0.4375 -1.4375q0.453125 -0.6875 1.203125 -1.078125q0.765625 -0.390625 1.6875 -0.390625q1.515625 0 2.296875 0.75q0.796875 0.75 0.8125 2.1875l0 4.96875q0.015625 1.140625 0.3125 1.984375l0 0.140625l-1.671875 0zm-2.15625 -1.28125q0.59375 0 1.125 -0.328125q0.546875 -0.328125 0.796875 -0.828125l0 -2.34375l-0.921875 0q-1.140625 0.015625 -1.8125 0.515625q-0.65625 0.5 -0.65625 1.390625q0 0.828125 0.328125 1.21875q0.34375 0.375 1.140625 0.375zm10.092667 -7.0625q-0.34375 -0.0625 -0.734375 -0.0625q-1.234375 0 -1.734375 1.359375l0 7.046875l-1.609375 0l0 -9.859375l1.5625 0l0.03125 1.0q0.640625 -1.171875 1.828125 -1.171875q0.390625 0 0.640625 0.125l0.015625 1.5625zm6.6752167 8.34375q-0.15625 -0.3125 -0.21875 -1.078125q-0.859375 1.265625 -2.1875 1.265625q-1.328125 0 -2.09375 -0.75q-0.75 -0.765625 -0.75 -2.125q0 -1.5 1.015625 -2.375q1.03125 -0.890625 2.8125 -0.90625l1.1875 0l0 -1.046875q0 -0.890625 -0.40625 -1.265625q-0.390625 -0.375 -1.1875 -0.375q-0.734375 0 -1.1875 0.4375q-0.453125 0.4375 -0.453125 1.09375l-1.609375 0q0 -0.75 0.4375 -1.4375q0.453125 -0.6875 1.203125 -1.078125q0.765625 -0.390625 1.6875 -0.390625q1.515625 0 2.296875 0.75q0.796875 0.75 0.8125 2.1875l0 4.96875q0.015625 1.140625 0.3125 1.984375l0 0.140625l-1.671875 0zm-2.15625 -1.28125q0.59375 0 1.125 -0.328125q0.546875 -0.328125 0.796875 -0.828125l0 -2.34375l-0.921875 0q-1.140625 0.015625 -1.8125 0.515625q-0.65625 0.5 -0.65625 1.390625q0 0.828125 0.328125 1.21875q0.34375 0.375 1.140625 0.375zm7.5301666 -8.578125l0.046875 0.90625q0.890625 -1.078125 2.375 -1.078125q1.640625 0 2.296875 1.421875q0.9375 -1.421875 2.59375 -1.421875q2.71875 0 2.78125 3.390625l0 6.640625l-1.59375 0l0 -6.484375q0 -1.078125 -0.390625 -1.59375q-0.375 -0.53125 -1.296875 -0.53125q-0.71875 0 -1.1875 0.5625q-0.453125 0.5625 -0.515625 1.4375l0 6.609375l-1.625 0l0 -6.5625q-0.03125 -2.046875 -1.671875 -2.046875q-1.21875 0 -1.71875 1.21875l0 7.390625l-1.59375 0l0 -9.859375l1.5 0zm16.05336 10.046875q-1.84375 0 -2.828125 -1.09375q-0.984375 -1.109375 -1.0 -3.234375l0 -1.1875q0 -2.203125 0.953125 -3.453125q0.96875 -1.25 2.6875 -1.25q1.734375 0 2.578125 1.109375q0.859375 1.09375 0.875 3.421875l0 1.046875l-5.5 0l0 0.234375q0 1.59375 0.59375 2.3125q0.609375 0.71875 1.71875 0.71875q0.71875 0 1.25 -0.265625q0.546875 -0.28125 1.03125 -0.859375l0.828125 1.015625q-1.046875 1.484375 -3.1875 1.484375zm-0.1875 -8.84375q-1.0 0 -1.484375 0.6875q-0.484375 0.6875 -0.546875 2.140625l3.875 0l0 -0.21875q-0.0625 -1.40625 -0.5 -2.0q-0.4375 -0.609375 -1.34375 -0.609375zm7.5016327 -3.59375l0 2.390625l1.484375 0l0 1.3125l-1.484375 0l0 6.109375q0 0.578125 0.1875 0.890625q0.203125 0.296875 0.65625 0.296875q0.328125 0 0.65625 -0.109375l-0.015625 1.359375q-0.546875 0.1875 -1.125 0.1875q-0.953125 0 -1.453125 -0.6875q-0.5 -0.6875 -0.5 -1.9375l0 -6.109375l-1.515625 0l0 -1.3125l1.515625 0l0 -2.390625l1.59375 0zm6.9331207 12.4375q-1.84375 0 -2.828125 -1.09375q-0.984375 -1.109375 -1.0 -3.234375l0 -1.1875q0 -2.203125 0.953125 -3.453125q0.96875 -1.25 2.6875 -1.25q1.734375 0 2.578125 1.109375q0.859375 1.09375 0.875 3.421875l0 1.046875l-5.5 0l0 0.234375q0 1.59375 0.59375 2.3125q0.609375 0.71875 1.71875 0.71875q0.71875 0 1.25 -0.265625q0.546875 -0.28125 1.03125 -0.859375l0.828125 1.015625q-1.046875 1.484375 -3.1875 1.484375zm-0.1875 -8.84375q-1.0 0 -1.484375 0.6875q-0.484375 0.6875 -0.546875 2.140625l3.875 0l0 -0.21875q-0.0625 -1.40625 -0.5 -2.0q-0.4375 -0.609375 -1.34375 -0.609375zm9.470383 0.3125q-0.34375 -0.0625 -0.734375 -0.0625q-1.234375 0 -1.734375 1.359375l0 7.046875l-1.609375 0l0 -9.859375l1.5625 0l0.03125 1.0q0.640625 -1.171875 1.828125 -1.171875q0.390625 0 0.640625 0.125l0.015625 1.5625zm10.666321 5.828125q0 -0.53125 -0.40625 -0.90625q-0.390625 -0.375 -1.5 -0.875q-1.3125 -0.53125 -1.84375 -0.90625q-0.53125 -0.390625 -0.796875 -0.875q-0.265625 -0.484375 -0.265625 -1.15625q0 -1.203125 0.875 -2.0q0.890625 -0.796875 2.25 -0.796875q1.4375 0 2.3125 0.84375q0.875 0.828125 0.875 2.140625l-1.59375 0q0 -0.671875 -0.453125 -1.140625q-0.4375 -0.46875 -1.140625 -0.46875q-0.703125 0 -1.109375 0.375q-0.40625 0.359375 -0.40625 0.984375q0 0.484375 0.296875 0.796875q0.296875 0.296875 1.421875 0.78125q1.796875 0.703125 2.4375 1.375q0.65625 0.671875 0.65625 1.703125q0 1.28125 -0.890625 2.0625q-0.875 0.765625 -2.359375 0.765625q-1.546875 0 -2.5 -0.875q-0.953125 -0.890625 -0.953125 -2.25l1.609375 0q0.03125 0.8125 0.5 1.28125q0.484375 0.46875 1.34375 0.46875q0.796875 0 1.21875 -0.359375q0.421875 -0.359375 0.421875 -0.96875zm7.233536 2.703125q-1.84375 0 -2.828125 -1.09375q-0.984375 -1.109375 -1.0 -3.234375l0 -1.1875q0 -2.203125 0.953125 -3.453125q0.96875 -1.25 2.6875 -1.25q1.734375 0 2.578125 1.109375q0.859375 1.09375 0.875 3.421875l0 1.046875l-5.5 0l0 0.234375q0 1.59375 0.59375 2.3125q0.609375 0.71875 1.71875 0.71875q0.71875 0 1.25 -0.265625q0.546875 -0.28125 1.03125 -0.859375l0.828125 1.015625q-1.046875 1.484375 -3.1875 1.484375zm-0.1875 -8.84375q-1.0 0 -1.484375 0.6875q-0.484375 0.6875 -0.546875 2.140625l3.875 0l0 -0.21875q-0.0625 -1.40625 -0.5 -2.0q-0.4375 -0.609375 -1.34375 -0.609375zm9.470383 0.3125q-0.34375 -0.0625 -0.734375 -0.0625q-1.234375 0 -1.734375 1.359375l0 7.046875l-1.609375 0l0 -9.859375l1.5625 0l0.03125 1.0q0.640625 -1.171875 1.828125 -1.171875q0.390625 0 0.640625 0.125l0.015625 1.5625zm4.3939667 5.890625l1.859375 -7.40625l1.640625 0l-2.921875 9.859375l-1.203125 0l-2.953125 -9.859375l1.640625 0l1.9375 7.40625zm8.714294 2.640625q-1.84375 0 -2.828125 -1.09375q-0.984375 -1.109375 -1.0 -3.234375l0 -1.1875q0 -2.203125 0.953125 -3.453125q0.96875 -1.25 2.6875 -1.25q1.734375 0 2.578125 1.109375q0.859375 1.09375 0.875 3.421875l0 1.046875l-5.5 0l0 0.234375q0 1.59375 0.59375 2.3125q0.609375 0.71875 1.71875 0.71875q0.71875 0 1.25 -0.265625q0.546875 -0.28125 1.03125 -0.859375l0.828125 1.015625q-1.046875 1.484375 -3.1875 1.484375zm-0.1875 -8.84375q-1.0 0 -1.484375 0.6875q-0.484375 0.6875 -0.546875 2.140625l3.875 0l0 -0.21875q-0.0625 -1.40625 -0.5 -2.0q-0.4375 -0.609375 -1.34375 -0.609375zm9.470383 0.3125q-0.34375 -0.0625 -0.734375 -0.0625q-1.234375 0 -1.734375 1.359375l0 7.046875l-1.609375 0l0 -9.859375l1.5625 0l0.03125 1.0q0.640625 -1.171875 1.828125 -1.171875q0.390625 0 0.640625 0.125l0.015625 1.5625zm6.3939667 5.828125q0 -0.53125 -0.40625 -0.90625q-0.390625 -0.375 -1.5 -0.875q-1.3125 -0.53125 -1.84375 -0.90625q-0.53125 -0.390625 -0.796875 -0.875q-0.265625 -0.484375 -0.265625 -1.15625q0 -1.203125 0.875 -2.0q0.890625 -0.796875 2.25 -0.796875q1.4375 0 2.3125 0.84375q0.875 0.828125 0.875 2.140625l-1.59375 0q0 -0.671875 -0.453125 -1.140625q-0.4375 -0.46875 -1.140625 -0.46875q-0.703125 0 -1.109375 0.375q-0.40625 0.359375 -0.40625 0.984375q0 0.484375 0.296875 0.796875q0.296875 0.296875 1.421875 0.78125q1.796875 0.703125 2.4375 1.375q0.65625 0.671875 0.65625 1.703125q0 1.28125 -0.890625 2.0625q-0.875 0.765625 -2.359375 0.765625q-1.546875 0 -2.5 -0.875q-0.953125 -0.890625 -0.953125 -2.25l1.609375 0q0.03125 0.8125 0.5 1.28125q0.484375 0.46875 1.34375 0.46875q0.796875 0 1.21875 -0.359375q0.421875 -0.359375 0.421875 -0.96875z" fill-rule="nonzero"/><path fill="#000000" fill-opacity="0.0" d="m378.65042 379.80585l202.67715 0l0 72.37796l-202.67715 0z" fill-rule="evenodd"/><path fill="#595959" d="m445.16528 396.86646l-0.1875 0.90625q1.046875 -1.125 2.421875 -1.078125q0.71875 0.015625 1.265625 0.375q0.546875 0.34375 0.765625 1.03125q1.1875 -1.4375 2.6875 -1.421875q1.0 0.03125 1.5625 0.640625q0.578125 0.59375 0.671875 1.65625q0.0625 0.640625 0 1.265625l-1.09375 6.484375l-1.5625 0l1.078125 -6.5l0.03125 -0.765625q-0.015625 -0.640625 -0.34375 -1.0q-0.328125 -0.359375 -0.921875 -0.359375q-0.71875 -0.015625 -1.296875 0.59375q-0.578125 0.59375 -0.703125 1.421875l0 0.046875l-1.109375 6.5625l-1.59375 0l1.09375 -6.484375q0.03125 -0.359375 0.015625 -0.75q-0.0625 -1.34375 -1.25 -1.390625q-1.109375 -0.015625 -1.859375 1.234375l-1.28125 7.390625l-1.5625 0l1.71875 -9.859375l1.453125 0z" fill-rule="nonzero"/><path fill="#595959" d="m468.26724 403.8977l1.5 -7.03125l1.59375 0l-2.40625 9.859375l-1.296875 0l-1.921875 -7.046875l-1.875 7.046875l-1.296875 0l-2.390625 -9.859375l1.59375 0l1.53125 6.859375l1.828125 -6.859375l1.265625 0l1.875 7.03125zm4.4372253 -2.5625q0 -2.140625 1.046875 -3.390625q1.046875 -1.25 2.75 -1.25q1.71875 0 2.765625 1.21875q1.046875 1.21875 1.0625 3.3125l0 1.046875q0 2.140625 -1.046875 3.390625q-1.03125 1.25 -2.75 1.25q-1.71875 0 -2.75 -1.203125q-1.03125 -1.21875 -1.078125 -3.296875l0 -1.078125zm1.625 0.9375q0 1.515625 0.59375 2.390625q0.59375 0.875 1.609375 0.875q2.125 0 2.1875 -3.078125l0 -1.125q0 -1.5 -0.609375 -2.375q-0.59375 -0.890625 -1.59375 -0.890625q-1.0 0 -1.59375 0.890625q-0.59375 0.875 -0.59375 2.375l0 0.9375zm12.161438 -3.890625q-0.34375 -0.0625 -0.734375 -0.0625q-1.234375 0 -1.734375 1.359375l0 7.046875l-1.609375 0l0 -9.859375l1.5625 0l0.03125 1.0q0.640625 -1.171875 1.828125 -1.171875q0.390625 0 0.640625 0.125l0.015625 1.5625zm4.081482 3.828125l-0.859375 0.984375l0 3.53125l-1.609375 0l0 -14.0l1.609375 0l0 8.375l3.0625 -4.234375l1.9375 0l-3.140625 4.125l3.546875 5.734375l-1.875 0l-2.671875 -4.515625zm9.454926 4.703125q-1.84375 0 -2.828125 -1.09375q-0.984375 -1.109375 -1.0 -3.234375l0 -1.1875q0 -2.203125 0.953125 -3.453125q0.96875 -1.25 2.6875 -1.25q1.734375 0 2.578125 1.109375q0.859375 1.09375 0.875 3.421875l0 1.046875l-5.5 0l0 0.234375q0 1.59375 0.59375 2.3125q0.609375 0.71875 1.71875 0.71875q0.71875 0 1.25 -0.265625q0.546875 -0.28125 1.03125 -0.859375l0.828125 1.015625q-1.046875 1.484375 -3.1875 1.484375zm-0.1875 -8.84375q-1.0 0 -1.484375 0.6875q-0.484375 0.6875 -0.546875 2.140625l3.875 0l0 -0.21875q-0.0625 -1.40625 -0.5 -2.0q-0.4375 -0.609375 -1.34375 -0.609375zm9.470398 0.3125q-0.34375 -0.0625 -0.734375 -0.0625q-1.234375 0 -1.734375 1.359375l0 7.046875l-1.609375 0l0 -9.859375l1.5625 0l0.03125 1.0q0.640625 -1.171875 1.828125 -1.171875q0.390625 0 0.640625 0.125l0.015625 1.5625zm6.3939514 5.828125q0 -0.53125 -0.40625 -0.90625q-0.390625 -0.375 -1.5 -0.875q-1.3125 -0.53125 -1.8437195 -0.90625q-0.53125 -0.390625 -0.796875 -0.875q-0.265625 -0.484375 -0.265625 -1.15625q0 -1.203125 0.875 -2.0q0.8905945 -0.796875 2.2499695 -0.796875q1.4375 0 2.3125 0.84375q0.875 0.828125 0.875 2.140625l-1.59375 0q0 -0.671875 -0.453125 -1.140625q-0.4375 -0.46875 -1.140625 -0.46875q-0.703125 0 -1.109375 0.375q-0.40625 0.359375 -0.40625 0.984375q0 0.484375 0.296875 0.796875q0.296875 0.296875 1.421875 0.78125q1.796875 0.703125 2.4375 1.375q0.65625 0.671875 0.65625 1.703125q0 1.28125 -0.890625 2.0625q-0.875 0.765625 -2.359375 0.765625q-1.546875 0 -2.4999695 -0.875q-0.953125 -0.890625 -0.953125 -2.25l1.6093445 0q0.03125 0.8125 0.5 1.28125q0.484375 0.46875 1.34375 0.46875q0.796875 0 1.21875 -0.359375q0.421875 -0.359375 0.421875 -0.96875z" fill-rule="nonzero"/><path fill="#000000" fill-opacity="0.0" d="m394.42453 87.81627l171.11813 0l0 59.181107l-171.11813 0z" fill-rule="evenodd"/><path fill="#595959" d="m425.42957 114.73627l0 -13.265625l3.15625 0q2.328125 0 3.609375 1.453125q1.28125 1.453125 1.28125 4.09375l0 2.21875q0 2.625 -1.3125 4.0625q-1.296875 1.4375 -3.765625 1.4375l-2.96875 0zm1.65625 -11.828125l0 10.390625l1.34375 0q1.75 0 2.5625 -1.0q0.8125 -1.0 0.828125 -2.984375l0 -2.34375q0 -2.09375 -0.8125 -3.078125q-0.796875 -0.984375 -2.421875 -0.984375l-1.5 0zm13.836487 11.828125q-0.15625 -0.3125 -0.21875 -1.078125q-0.859375 1.265625 -2.1875 1.265625q-1.328125 0 -2.09375 -0.75q-0.75 -0.765625 -0.75 -2.125q0 -1.5 1.015625 -2.375q1.03125 -0.890625 2.8125 -0.90625l1.1875 0l0 -1.046875q0 -0.890625 -0.40625 -1.265625q-0.390625 -0.375 -1.1875 -0.375q-0.734375 0 -1.1875 0.4375q-0.453125 0.4375 -0.453125 1.09375l-1.609375 0q0 -0.75 0.4375 -1.4375q0.453125 -0.6875 1.203125 -1.078125q0.765625 -0.390625 1.6875 -0.390625q1.515625 0 2.296875 0.75q0.796875 0.75 0.8125 2.1875l0 4.96875q0.015625 1.140625 0.3125 1.984375l0 0.140625l-1.671875 0zm-2.15625 -1.28125q0.59375 0 1.125 -0.328125q0.546875 -0.328125 0.796875 -0.828125l0 -2.34375l-0.921875 0q-1.140625 0.015625 -1.8125 0.515625q-0.65625 0.5 -0.65625 1.390625q0 0.828125 0.328125 1.21875q0.34375 0.375 1.140625 0.375zm8.123932 -10.96875l0 2.390625l1.484375 0l0 1.3125l-1.484375 0l0 6.109375q0 0.578125 0.1875 0.890625q0.203125 0.296875 0.65625 0.296875q0.328125 0 0.65625 -0.109375l-0.015625 1.359375q-0.546875 0.1875 -1.125 0.1875q-0.953125 0 -1.453125 -0.6875q-0.5 -0.6875 -0.5 -1.9375l0 -6.109375l-1.515625 0l0 -1.3125l1.515625 0l0 -2.390625l1.59375 0zm8.47998 12.25q-0.15625 -0.3125 -0.21875 -1.078125q-0.859375 1.265625 -2.1875 1.265625q-1.328125 0 -2.09375 -0.75q-0.75 -0.765625 -0.75 -2.125q0 -1.5 1.015625 -2.375q1.03125 -0.890625 2.8125 -0.90625l1.1875 0l0 -1.046875q0 -0.890625 -0.40625 -1.265625q-0.390625 -0.375 -1.1875 -0.375q-0.734375 0 -1.1875 0.4375q-0.453125 0.4375 -0.453125 1.09375l-1.609375 0q0 -0.75 0.4375 -1.4375q0.453125 -0.6875 1.203125 -1.078125q0.765625 -0.390625 1.6875 -0.390625q1.515625 0 2.296875 0.75q0.796875 0.75 0.8125 2.1875l0 4.96875q0.015625 1.140625 0.3125 1.984375l0 0.140625l-1.671875 0zm-2.15625 -1.28125q0.59375 0 1.125 -0.328125q0.546875 -0.328125 0.796875 -0.828125l0 -2.34375l-0.921875 0q-1.140625 0.015625 -1.8125 0.515625q-0.65625 0.5 -0.65625 1.390625q0 0.828125 0.328125 1.21875q0.34375 0.375 1.140625 0.375zm6.717682 1.28125l0 -8.546875l-1.28125 0l0 -1.3125l1.28125 0l0 -1.140625q0.03125 -1.5 0.765625 -2.34375q0.734375 -0.84375 2.078125 -0.84375q0.484375 0 0.96875 0.15625l-0.078125 1.375q-0.34375 -0.09375 -0.734375 -0.09375q-1.375 0 -1.375 1.96875l0 0.921875l1.671875 0l0 1.3125l-1.671875 0l0 8.546875l-1.625 0zm6.934204 0l-1.609375 0l0 -14.0l1.609375 0l0 14.0zm2.1942139 -5.390625q0 -2.140625 1.046875 -3.390625q1.046875 -1.25 2.75 -1.25q1.71875 0 2.765625 1.21875q1.046875 1.21875 1.0625 3.3125l0 1.046875q0 2.140625 -1.046875 3.390625q-1.03125 1.25 -2.75 1.25q-1.71875 0 -2.75 -1.203125q-1.03125 -1.21875 -1.078125 -3.296875l0 -1.078125zm1.625 0.9375q0 1.515625 0.59375 2.390625q0.59375 0.875 1.609375 0.875q2.125 0 2.1875 -3.078125l0 -1.125q0 -1.5 -0.609375 -2.375q-0.59375 -0.890625 -1.59375 -0.890625q-1.0 0 -1.59375 0.890625q-0.59375 0.875 -0.59375 2.375l0 0.9375zm15.427063 1.625l1.5 -7.03125l1.59375 0l-2.40625 9.859375l-1.296875 0l-1.921875 -7.046875l-1.875 7.046875l-1.296875 0l-2.390625 -9.859375l1.59375 0l1.53125 6.859375l1.828125 -6.859375l1.265625 0l1.875 7.03125zm8.740845 -2.546875q0 -2.296875 0.828125 -3.46875q0.84375 -1.1875 2.453125 -1.1875q1.5 0 2.28125 1.28125l0.09375 -1.109375l1.453125 0l0 9.953125q0 1.828125 -0.9375 2.796875q-0.9375 0.984375 -2.609375 0.984375q-0.734375 0 -1.640625 -0.359375q-0.90625 -0.359375 -1.359375 -0.890625l0.65625 -1.109375q1.0 0.984375 2.203125 0.984375q2.015625 0 2.078125 -2.1875l0 -1.28125q-0.78125 1.15625 -2.234375 1.15625q-1.53125 0 -2.390625 -1.15625q-0.84375 -1.15625 -0.875 -3.3125l0 -1.09375zm1.609375 0.921875q0 1.65625 0.484375 2.4375q0.484375 0.78125 1.59375 0.78125q1.203125 0 1.8125 -1.234375l0 -4.921875q-0.640625 -1.21875 -1.796875 -1.21875q-1.109375 0 -1.609375 0.78125q-0.484375 0.78125 -0.484375 2.390625l0 0.984375zm11.972748 -3.890625q-0.34375 -0.0625 -0.734375 -0.0625q-1.234375 0 -1.734375 1.359375l0 7.046875l-1.609375 0l0 -9.859375l1.5625 0l0.03125 1.0q0.640625 -1.171875 1.828125 -1.171875q0.390625 0 0.640625 0.125l0.015625 1.5625zm6.6752014 8.34375q-0.15625 -0.3125 -0.21875 -1.078125q-0.859375 1.265625 -2.1875 1.265625q-1.328125 0 -2.09375 -0.75q-0.75 -0.765625 -0.75 -2.125q0 -1.5 1.015625 -2.375q1.03125 -0.890625 2.8125 -0.90625l1.1875 0l0 -1.046875q0 -0.890625 -0.40625 -1.265625q-0.390625 -0.375 -1.1875 -0.375q-0.734375 0 -1.1875 0.4375q-0.453125 0.4375 -0.453125 1.09375l-1.609375 0q0 -0.75 0.4375 -1.4375q0.453125 -0.6875 1.203125 -1.078125q0.765625 -0.390625 1.6875 -0.390625q1.515625 0 2.296875 0.75q0.796875 0.75 0.8125 2.1875l0 4.96875q0.015625 1.140625 0.3125 1.984375l0 0.140625l-1.671875 0zm-2.15625 -1.28125q0.59375 0 1.125 -0.328125q0.546875 -0.328125 0.796875 -0.828125l0 -2.34375l-0.921875 0q-1.140625 0.015625 -1.8125 0.515625q-0.65625 0.5 -0.65625 1.390625q0 0.828125 0.328125 1.21875q0.34375 0.375 1.140625 0.375zm13.139587 -3.171875q0 2.34375 -0.84375 3.5q-0.84375 1.140625 -2.390625 1.140625q-1.484436 0 -2.281311 -1.125l0 4.734375l-1.59375 0l0 -13.65625l1.453125 0l0.078125 1.09375q0.8125 -1.265625 2.328186 -1.265625q1.625 0 2.421875 1.125q0.796875 1.125 0.828125 3.375l0 1.078125zm-1.609375 -0.921875q0 -1.65625 -0.515625 -2.4375q-0.5 -0.796875 -1.625061 -0.796875q-1.15625 0 -1.765625 1.15625l0 5.125q0.59375 1.140625 1.78125 1.140625q1.093811 0 1.609436 -0.78125q0.515625 -0.796875 0.515625 -2.421875l0 -0.984375zm5.2943115 -3.46875q0.921875 -1.1875 2.359375 -1.1875q2.609375 0 2.640625 3.484375l0 6.546875l-1.59375 0l0 -6.484375q0 -1.15625 -0.390625 -1.640625q-0.390625 -0.484375 -1.15625 -0.484375q-0.609375 0 -1.09375 0.40625q-0.46875 0.390625 -0.765625 1.046875l0 7.15625l-1.609375 0l0 -14.0l1.609375 0l0 5.15625z" fill-rule="nonzero"/><path fill="#000000" fill-opacity="0.0" d="m479.98358 146.99738l0.03149414 23.559052" fill-rule="evenodd"/><path stroke="#595959" stroke-width="1.0" stroke-linejoin="round" stroke-linecap="butt" stroke-dasharray="4.0,3.0" d="m479.98358 146.99738l0.03149414 23.559052" fill-rule="evenodd"/><path fill="#000000" fill-opacity="0.0" d="m143.31856 248.77773c0 13.205002 -23.086624 19.807632 -46.173233 26.409988c-23.086617 6.602356 -46.17323 13.204468 -46.17323 26.408905" fill-rule="evenodd"/><path stroke="#595959" stroke-width="1.0" stroke-linejoin="round" stroke-linecap="butt" d="m143.31856 248.77773c0 13.205002 -23.086624 19.807632 -46.173233 26.409988c-23.086617 6.602356 -46.17323 13.204468 -46.17323 26.408905" fill-rule="evenodd"/><path fill="#000000" fill-opacity="0.0" d="m480.64423 248.77773c0 13.205002 -107.41733 19.807632 -214.83466 26.409988c-107.41731 6.602356 -214.83464 13.204468 -214.83464 26.408905" fill-rule="evenodd"/><path stroke="#595959" stroke-width="1.0" stroke-linejoin="round" stroke-linecap="butt" d="m480.64423 248.77773c0 13.205002 -107.41733 19.807632 -214.83466 26.409988c-107.41731 6.602356 -214.83464 13.204468 -214.83464 26.408905" fill-rule="evenodd"/><path fill="#000000" fill-opacity="0.0" d="m817.97186 248.77773c0 13.205002 -191.74799 19.807632 -383.49603 26.409988c-191.74805 6.602356 -383.4961 13.204468 -383.4961 26.408905" fill-rule="evenodd"/><path stroke="#595959" stroke-width="1.0" stroke-linejoin="round" stroke-linecap="butt" d="m817.97186 248.77773c0 13.205002 -191.74799 19.807632 -383.49603 26.409988c-191.74805 6.602356 -383.4961 13.204468 -383.4961 26.408905" fill-rule="evenodd"/><path fill="#000000" fill-opacity="0.0" d="m143.31856 248.77773c0 13.205002 0.01574707 19.807632 0.03149414 26.409988c0.01574707 6.602356 0.03149414 13.204468 0.03149414 26.408905" fill-rule="evenodd"/><path stroke="#595959" stroke-width="1.0" stroke-linejoin="round" stroke-linecap="butt" d="m143.31856 248.77773c0 13.205002 0.01574707 19.807632 0.03149414 26.409988c0.01574707 6.602356 0.03149414 13.204468 0.03149414 26.408905" fill-rule="evenodd"/><path fill="#000000" fill-opacity="0.0" d="m480.64423 248.77773c0 13.205002 -61.24411 19.807632 -122.48819 26.409988c-61.24411 6.602356 -122.48819 13.204468 -122.48819 26.408905" fill-rule="evenodd"/><path stroke="#595959" stroke-width="1.0" stroke-linejoin="round" stroke-linecap="butt" d="m480.64423 248.77773c0 13.205002 -61.24411 19.807632 -122.48819 26.409988c-61.24411 6.602356 -122.48819 13.204468 -122.48819 26.408905" fill-rule="evenodd"/><path fill="#000000" fill-opacity="0.0" d="m817.97186 248.77773c0 13.2044525 -107.4173 19.806564 -214.83466 26.40892c-107.4173 6.602356 -214.83463 13.204987 -214.83463 26.409973" fill-rule="evenodd"/><path stroke="#595959" stroke-width="1.0" stroke-linejoin="round" stroke-linecap="butt" d="m817.97186 248.77773c0 13.2044525 -107.4173 19.806564 -214.83466 26.40892c-107.4173 6.602356 -214.83463 13.204987 -214.83463 26.409973" fill-rule="evenodd"/><path fill="#000000" fill-opacity="0.0" d="m143.31856 248.77773c0 13.2044525 107.41731 19.806564 214.83464 26.40892c107.41733 6.602356 214.83466 13.204987 214.83466 26.409973" fill-rule="evenodd"/><path stroke="#595959" stroke-width="1.0" stroke-linejoin="round" stroke-linecap="butt" d="m143.31856 248.77773c0 13.2044525 107.41731 19.806564 214.83464 26.40892c107.41733 6.602356 214.83466 13.204987 214.83466 26.409973" fill-rule="evenodd"/><path fill="#000000" fill-opacity="0.0" d="m480.64423 248.77773c0 13.203934 61.24408 19.805496 122.48816 26.407883c61.24414 6.602356 122.48822 13.205505 122.48822 26.41101" fill-rule="evenodd"/><path stroke="#595959" stroke-width="1.0" stroke-linejoin="round" stroke-linecap="butt" d="m480.64423 248.77773c0 13.203934 61.24408 19.805496 122.48816 26.407883c61.24414 6.602356 122.48822 13.205505 122.48822 26.41101" fill-rule="evenodd"/><path fill="#000000" fill-opacity="0.0" d="m817.97186 248.77773c0 13.203934 0.01574707 19.805496 0.03149414 26.407883c0.01574707 6.602356 0.03149414 13.205505 0.03149414 26.41101" fill-rule="evenodd"/><path stroke="#595959" stroke-width="1.0" stroke-linejoin="round" stroke-linecap="butt" d="m817.97186 248.77773c0 13.203934 0.01574707 19.805496 0.03149414 26.407883c0.01574707 6.602356 0.03149414 13.205505 0.03149414 26.41101" fill-rule="evenodd"/><path fill="#000000" fill-opacity="0.0" d="m817.97186 248.77773c0 13.203934 23.078735 19.805496 46.15747 26.407883c23.078735 6.602356 46.15753 13.205505 46.15753 26.41101" fill-rule="evenodd"/><path stroke="#595959" stroke-width="1.0" stroke-linejoin="round" stroke-linecap="butt" d="m817.97186 248.77773c0 13.203934 23.078735 19.805496 46.15747 26.407883c23.078735 6.602356 46.15753 13.205505 46.15753 26.41101" fill-rule="evenodd"/><path fill="#000000" fill-opacity="0.0" d="m817.97186 248.77773c0 13.2044525 -84.33069 19.806564 -168.66138 26.40892c-84.33075 6.602356 -168.66144 13.204987 -168.66144 26.409973" fill-rule="evenodd"/><path stroke="#595959" stroke-width="1.0" stroke-linejoin="round" stroke-linecap="butt" d="m817.97186 248.77773c0 13.2044525 -84.33069 19.806564 -168.66138 26.40892c-84.33075 6.602356 -168.66144 13.204987 -168.66144 26.409973" fill-rule="evenodd"/><path fill="#000000" fill-opacity="0.0" d="m143.31856 248.77773c0 13.203934 191.74803 19.805496 383.4961 26.407883c191.74799 6.602356 383.49603 13.205505 383.49603 26.41101" fill-rule="evenodd"/><path stroke="#595959" stroke-width="1.0" stroke-linejoin="round" stroke-linecap="butt" d="m143.31856 248.77773c0 13.203934 191.74803 19.805496 383.4961 26.407883c191.74799 6.602356 383.49603 13.205505 383.49603 26.41101" fill-rule="evenodd"/><path fill="#000000" fill-opacity="0.0" d="m143.31856 248.77773c0 13.2044525 84.3307 19.806564 168.66142 26.40892c84.33069 6.602356 168.6614 13.204987 168.6614 26.409973" fill-rule="evenodd"/><path stroke="#595959" stroke-width="1.0" stroke-linejoin="round" stroke-linecap="butt" d="m143.31856 248.77773c0 13.2044525 84.3307 19.806564 168.66142 26.40892c84.33069 6.602356 168.6614 13.204987 168.6614 26.409973" fill-rule="evenodd"/><path fill="#000000" fill-opacity="0.0" d="m480.64423 248.77773c0 13.2044525 0.01574707 19.806564 0.03149414 26.40892c0.01574707 6.602356 0.03149414 13.204987 0.03149414 26.409973" fill-rule="evenodd"/><path stroke="#595959" stroke-width="2.0" stroke-linejoin="round" stroke-linecap="butt" d="m480.64423 248.77773c0 13.2044525 0.01574707 19.806564 0.03149414 26.40892c0.01574707 6.602356 0.03149414 13.204987 0.03149414 26.409973" fill-rule="evenodd"/><path fill="#000000" fill-opacity="0.0" d="m143.31856 248.77773c0 13.205002 23.086609 19.807632 46.173218 26.409988c23.086624 6.602356 46.173233 13.204468 46.173233 26.408905" fill-rule="evenodd"/><path stroke="#595959" stroke-width="1.0" stroke-linejoin="round" stroke-linecap="butt" d="m143.31856 248.77773c0 13.205002 23.086609 19.807632 46.173218 26.409988c23.086624 6.602356 46.173233 13.204468 46.173233 26.408905" fill-rule="evenodd"/><path fill="#000000" fill-opacity="0.0" d="m480.64423 248.77773c0 13.205002 -84.33072 19.807632 -168.66144 26.409988c-84.33069 6.602356 -168.6614 13.204468 -168.6614 26.408905" fill-rule="evenodd"/><path stroke="#595959" stroke-width="1.0" stroke-linejoin="round" stroke-linecap="butt" d="m480.64423 248.77773c0 13.205002 -84.33072 19.807632 -168.66144 26.409988c-84.33069 6.602356 -168.6614 13.204468 -168.6614 26.408905" fill-rule="evenodd"/><path fill="#000000" fill-opacity="0.0" d="m480.64423 248.77773c0 13.203934 84.33069 19.805496 168.66144 26.407883c84.33069 6.602356 168.66138 13.205505 168.66138 26.41101" fill-rule="evenodd"/><path stroke="#595959" stroke-width="1.0" stroke-linejoin="round" stroke-linecap="butt" d="m480.64423 248.77773c0 13.203934 84.33069 19.805496 168.66144 26.407883c84.33069 6.602356 168.66138 13.205505 168.66138 26.41101" fill-rule="evenodd"/><path fill="#000000" fill-opacity="0.0" d="m817.97186 248.77773c0 13.203934 -23.086609 19.805496 -46.173218 26.407883c-23.086609 6.602356 -46.173218 13.205505 -46.173218 26.41101" fill-rule="evenodd"/><path stroke="#595959" stroke-width="1.0" stroke-linejoin="round" stroke-linecap="butt" d="m817.97186 248.77773c0 13.203934 -23.086609 19.805496 -46.173218 26.407883c-23.086609 6.602356 -46.173218 13.205505 -46.173218 26.41101" fill-rule="evenodd"/><path fill="#000000" fill-opacity="0.0" d="m480.64423 248.77773c0 13.203934 107.4173 19.805496 214.83466 26.407883c107.4173 6.602356 214.83466 13.205505 214.83466 26.41101" fill-rule="evenodd"/><path stroke="#595959" stroke-width="1.0" stroke-linejoin="round" stroke-linecap="butt" d="m480.64423 248.77773c0 13.203934 107.4173 19.805496 214.83466 26.407883c107.4173 6.602356 214.83466 13.205505 214.83466 26.41101" fill-rule="evenodd"/><path fill="#000000" fill-opacity="0.0" d="m480.64423 248.77773c0 13.2044525 -23.086609 19.806564 -46.17325 26.40892c-23.086609 6.602356 -46.173218 13.204987 -46.173218 26.409973" fill-rule="evenodd"/><path stroke="#595959" stroke-width="1.0" stroke-linejoin="round" stroke-linecap="butt" d="m480.64423 248.77773c0 13.2044525 -23.086609 19.806564 -46.17325 26.40892c-23.086609 6.602356 -46.173218 13.204987 -46.173218 26.409973" fill-rule="evenodd"/><path fill="#000000" fill-opacity="0.0" d="m480.64423 248.77773c0 13.2044525 23.086609 19.806564 46.173218 26.40892c23.086609 6.602356 46.173218 13.204987 46.173218 26.409973" fill-rule="evenodd"/><path stroke="#595959" stroke-width="1.0" stroke-linejoin="round" stroke-linecap="butt" d="m480.64423 248.77773c0 13.2044525 23.086609 19.806564 46.173218 26.40892c23.086609 6.602356 46.173218 13.204987 46.173218 26.409973" fill-rule="evenodd"/><path fill="#000000" fill-opacity="0.0" d="m817.97186 248.77773c0 13.205002 -145.58264 19.807632 -291.16534 26.409988c-145.58267 6.602356 -291.16534 13.204468 -291.16534 26.408905" fill-rule="evenodd"/><path stroke="#595959" stroke-width="1.0" stroke-linejoin="round" stroke-linecap="butt" d="m817.97186 248.77773c0 13.205002 -145.58264 19.807632 -291.16534 26.409988c-145.58267 6.602356 -291.16534 13.204468 -291.16534 26.408905" fill-rule="evenodd"/><path fill="#000000" fill-opacity="0.0" d="m143.31856 248.77773c0 13.203934 145.57478 19.805496 291.1496 26.407883c145.5748 6.602356 291.14957 13.205505 291.14957 26.41101" fill-rule="evenodd"/><path stroke="#595959" stroke-width="1.0" stroke-linejoin="round" stroke-linecap="butt" d="m143.31856 248.77773c0 13.203934 145.57478 19.805496 291.1496 26.407883c145.5748 6.602356 291.14957 13.205505 291.14957 26.41101" fill-rule="evenodd"/><path fill="#000000" fill-opacity="0.0" d="m143.31856 248.77773c0 13.203934 168.66142 19.805496 337.3228 26.407883c168.6614 6.602356 337.32285 13.205505 337.32285 26.41101" fill-rule="evenodd"/><path stroke="#595959" stroke-width="1.0" stroke-linejoin="round" stroke-linecap="butt" d="m143.31856 248.77773c0 13.203934 168.66142 19.805496 337.3228 26.407883c168.6614 6.602356 337.32285 13.205505 337.32285 26.41101" fill-rule="evenodd"/><path fill="#000000" fill-opacity="0.0" d="m143.31856 248.77773c0 13.203934 191.74803 19.805496 383.4961 26.407883c191.74799 6.602356 383.49603 13.205505 383.49603 26.41101" fill-rule="evenodd"/><path stroke="#595959" stroke-width="1.0" stroke-linejoin="round" stroke-linecap="butt" d="m143.31856 248.77773c0 13.203934 191.74803 19.805496 383.4961 26.407883c191.74799 6.602356 383.49603 13.205505 383.49603 26.41101" fill-rule="evenodd"/><path fill="#000000" fill-opacity="0.0" d="m480.64423 248.77773c0 13.203934 107.4173 19.805496 214.83466 26.407883c107.4173 6.602356 214.83466 13.205505 214.83466 26.41101" fill-rule="evenodd"/><path stroke="#595959" stroke-width="1.0" stroke-linejoin="round" stroke-linecap="butt" d="m480.64423 248.77773c0 13.203934 107.4173 19.805496 214.83466 26.407883c107.4173 6.602356 214.83466 13.205505 214.83466 26.41101" fill-rule="evenodd"/></g></svg>