<svg version="1.1" viewBox="0.0 0.0 960.0 540.0" fill="none" stroke="none" stroke-linecap="square" stroke-miterlimit="10" xmlns:xlink="http://www.w3.org/1999/xlink" xmlns="http://www.w3.org/2000/svg"><clipPath id="g4d271b9ccd_1_154.0"><path d="m0 0l960.0 0l0 540.0l-960.0 0l0 -540.0z" clip-rule="nonzero"/></clipPath><g clip-path="url(#g4d271b9ccd_1_154.0)"><path fill="#ffffff" d="m0 0l960.0 0l0 540.0l-960.0 0z" fill-rule="evenodd"/><path fill="#000000" fill-opacity="0.0" d="m39.425194 126.71466l0 0c0 -17.055939 13.826572 -30.882507 30.882507 -30.882507l798.046 0c8.190552 0 16.045654 3.253685 21.83722 9.04528c5.791626 5.7915955 9.045288 13.646675 9.045288 21.837227l0 123.52632c0 17.055954 -13.826538 30.882523 -30.882507 30.882523l-798.046 0l0 0c-17.055935 0 -30.882507 -13.826569 -30.882507 -30.882523z" fill-rule="evenodd"/><path stroke="#595959" stroke-width="1.0" stroke-linejoin="round" stroke-linecap="butt" stroke-dasharray="4.0,3.0" d="m39.425194 126.71466l0 0c0 -17.055939 13.826572 -30.882507 30.882507 -30.882507l798.046 0c8.190552 0 16.045654 3.253685 21.83722 9.04528c5.791626 5.7915955 9.045288 13.646675 9.045288 21.837227l0 123.52632c0 17.055954 -13.826538 30.882523 -30.882507 30.882523l-798.046 0l0 0c-17.055935 0 -30.882507 -13.826569 -30.882507 -30.882523z" fill-rule="evenodd"/><path fill="#fff2cc" d="m401.89478 135.33267l0 0c0 -14.350708 11.633545 -25.984253 25.984253 -25.984253l0 0c6.891449 0 13.500641 2.7376175 18.373657 7.610611c4.872986 4.8729935 7.6105957 11.482193 7.6105957 18.373642l0 0c0 14.350708 -11.633545 25.984253 -25.984253 25.984253l0 0c-14.350708 0 -25.984253 -11.633545 -25.984253 -25.984253z" fill-rule="evenodd"/><path stroke="#595959" stroke-width="1.0" stroke-linejoin="round" stroke-linecap="butt" d="m401.89478 135.33267l0 0c0 -14.350708 11.633545 -25.984253 25.984253 -25.984253l0 0c6.891449 0 13.500641 2.7376175 18.373657 7.610611c4.872986 4.8729935 7.6105957 11.482193 7.6105957 18.373642l0 0c0 14.350708 -11.633545 25.984253 -25.984253 25.984253l0 0c-14.350708 0 -25.984253 -11.633545 -25.984253 -25.984253z" fill-rule="evenodd"/><path fill="#000000" d="m422.57434 139.85268l0 -8.59375l3.25 0q0.84375 0 1.296875 0.078125q0.640625 0.109375 1.0625 0.40625q0.4375 0.296875 0.6875 0.828125q0.265625 0.53125 0.265625 1.171875q0 1.09375 -0.703125 1.859375q-0.6875 0.75 -2.515625 0.75l-2.203125 0l0 3.5l-1.140625 0zm1.140625 -4.5l2.21875 0q1.109375 0 1.5625 -0.40625q0.46875 -0.421875 0.46875 -1.171875q0 -0.53125 -0.28125 -0.90625q-0.265625 -0.390625 -0.703125 -0.515625q-0.296875 -0.078125 -1.0625 -0.078125l-2.203125 0l0 3.078125z" fill-rule="nonzero"/><path fill="#000000" d="m433.68762 143.6808l0 0.671875l-3.78125 0q-0.015625 -0.25 0.078125 -0.484375q0.140625 -0.390625 0.453125 -0.765625q0.328125 -0.375 0.921875 -0.875q0.9375 -0.765625 1.265625 -1.203125q0.328125 -0.453125 0.328125 -0.84375q0 -0.421875 -0.296875 -0.703125q-0.296875 -0.296875 -0.78125 -0.296875q-0.5 0 -0.8125 0.3125q-0.296875 0.296875 -0.3125 0.84375l-0.71875 -0.078125q0.078125 -0.8125 0.5625 -1.234375q0.484375 -0.421875 1.296875 -0.421875q0.828125 0 1.296875 0.453125q0.484375 0.453125 0.484375 1.140625q0 0.34375 -0.140625 0.671875q-0.140625 0.328125 -0.46875 0.703125q-0.3125 0.359375 -1.078125 1.0q-0.625 0.53125 -0.8125 0.71875q-0.171875 0.1875 -0.296875 0.390625l2.8125 0z" fill-rule="nonzero"/><path fill="#fff2cc" d="m486.016 135.33267l0 0c0 -14.350708 11.633545 -25.984253 25.984253 -25.984253l0 0c6.8914795 0 13.500671 2.7376175 18.373657 7.610611c4.872986 4.8729935 7.6105957 11.482193 7.6105957 18.373642l0 0c0 14.350708 -11.633545 25.984253 -25.984253 25.984253l0 0c-14.350708 0 -25.984253 -11.633545 -25.984253 -25.984253z" fill-rule="evenodd"/><path stroke="#595959" stroke-width="1.0" stroke-linejoin="round" stroke-linecap="butt" d="m486.016 135.33267l0 0c0 -14.350708 11.633545 -25.984253 25.984253 -25.984253l0 0c6.8914795 0 13.500671 2.7376175 18.373657 7.610611c4.872986 4.8729935 7.6105957 11.482193 7.6105957 18.373642l0 0c0 14.350708 -11.633545 25.984253 -25.984253 25.984253l0 0c-14.350708 0 -25.984253 -11.633545 -25.984253 -25.984253z" fill-rule="evenodd"/><path fill="#000000" d="m506.69556 139.85268l0 -8.59375l3.25 0q0.84375 0 1.296875 0.078125q0.640625 0.109375 1.0625 0.40625q0.4375 0.296875 0.6875 0.828125q0.265625 0.53125 0.265625 1.171875q0 1.09375 -0.703125 1.859375q-0.6875 0.75 -2.515625 0.75l-2.203125 0l0 3.5l-1.140625 0zm1.140625 -4.5l2.21875 0q1.109375 0 1.5625 -0.40625q0.46875 -0.421875 0.46875 -1.171875q0 -0.53125 -0.28125 -0.90625q-0.265625 -0.390625 -0.703125 -0.515625q-0.296875 -0.078125 -1.0625 -0.078125l-2.203125 0l0 3.078125z" fill-rule="nonzero"/><path fill="#000000" d="m514.12134 142.83705l0.703125 -0.09375q0.109375 0.59375 0.40625 0.859375q0.296875 0.265625 0.703125 0.265625q0.5 0 0.84375 -0.34375q0.34375 -0.34375 0.34375 -0.84375q0 -0.484375 -0.328125 -0.796875q-0.3125 -0.328125 -0.796875 -0.328125q-0.203125 0 -0.5 0.078125l0.078125 -0.609375q0.078125 0 0.125 0q0.4375 0 0.796875 -0.234375q0.359375 -0.234375 0.359375 -0.71875q0 -0.390625 -0.265625 -0.640625q-0.25 -0.25 -0.671875 -0.25q-0.40625 0 -0.6875 0.265625q-0.265625 0.25 -0.34375 0.765625l-0.703125 -0.125q0.125 -0.703125 0.578125 -1.09375q0.46875 -0.390625 1.140625 -0.390625q0.46875 0 0.859375 0.203125q0.40625 0.203125 0.609375 0.546875q0.21875 0.34375 0.21875 0.734375q0 0.375 -0.203125 0.6875q-0.203125 0.296875 -0.59375 0.46875q0.515625 0.125 0.796875 0.5q0.28125 0.359375 0.28125 0.921875q0 0.75 -0.546875 1.28125q-0.546875 0.515625 -1.390625 0.515625q-0.75 0 -1.25 -0.453125q-0.5 -0.453125 -0.5625 -1.171875z" fill-rule="nonzero"/><path fill="#f4cccc" d="m359.83243 241.2156l0 0c0 -14.350708 11.633545 -25.984253 25.984253 -25.984253l0 0c6.8914795 0 13.500671 2.7376251 18.373657 7.610611c4.872986 4.873001 7.6105957 11.482193 7.6105957 18.373642l0 0c0 14.350708 -11.633545 25.984253 -25.984253 25.984253l0 0c-14.350708 0 -25.984253 -11.633545 -25.984253 -25.984253z" fill-rule="evenodd"/><path stroke="#595959" stroke-width="1.0" stroke-linejoin="round" stroke-linecap="butt" d="m359.83243 241.2156l0 0c0 -14.350708 11.633545 -25.984253 25.984253 -25.984253l0 0c6.8914795 0 13.500671 2.7376251 18.373657 7.610611c4.872986 4.873001 7.6105957 11.482193 7.6105957 18.373642l0 0c0 14.350708 -11.633545 25.984253 -25.984253 25.984253l0 0c-14.350708 0 -25.984253 -11.633545 -25.984253 -25.984253z" fill-rule="evenodd"/><path fill="#000000" d="m380.35086 245.73561l-2.28125 -8.59375l1.171875 0l1.3125 5.640625q0.203125 0.875 0.359375 1.75q0.328125 -1.375 0.390625 -1.59375l1.625 -5.796875l1.375 0l1.234375 4.34375q0.453125 1.625 0.671875 3.046875q0.15625 -0.8125 0.421875 -1.875l1.34375 -5.515625l1.140625 0l-2.34375 8.59375l-1.109375 0l-1.796875 -6.546875q-0.234375 -0.8125 -0.28125 -1.0q-0.125 0.578125 -0.25 1.0l-1.8125 6.546875l-1.171875 0z" fill-rule="nonzero"/><path fill="#000000" d="m389.5989 248.71999l0.703125 -0.09375q0.109375 0.59375 0.40625 0.859375q0.296875 0.265625 0.703125 0.265625q0.5 0 0.84375 -0.34375q0.34375 -0.34375 0.34375 -0.84375q0 -0.484375 -0.328125 -0.796875q-0.3125 -0.328125 -0.796875 -0.328125q-0.203125 0 -0.5 0.078125l0.078125 -0.609375q0.078125 0 0.125 0q0.4375 0 0.796875 -0.234375q0.359375 -0.234375 0.359375 -0.71875q0 -0.390625 -0.265625 -0.640625q-0.25 -0.25 -0.671875 -0.25q-0.40625 0 -0.6875 0.265625q-0.265625 0.25 -0.34375 0.765625l-0.703125 -0.125q0.125 -0.703125 0.578125 -1.09375q0.46875 -0.390625 1.140625 -0.390625q0.46875 0 0.859375 0.203125q0.40625 0.203125 0.609375 0.546875q0.21875 0.34375 0.21875 0.734375q0 0.375 -0.203125 0.6875q-0.203125 0.296875 -0.59375 0.46875q0.515625 0.125 0.796875 0.5q0.28125 0.359375 0.28125 0.921875q0 0.75 -0.546875 1.28125q-0.546875 0.515625 -1.390625 0.515625q-0.75 0 -1.25 -0.453125q-0.5 -0.453125 -0.5625 -1.171875z" fill-rule="nonzero"/><path fill="#d9ead3" d="m443.95367 241.2156l0 0c0 -14.350708 11.633545 -25.984253 25.984253 -25.984253l0 0c6.891449 0 13.500641 2.7376251 18.373627 7.610611c4.872986 4.873001 7.610626 11.482193 7.610626 18.373642l0 0c0 14.350708 -11.633575 25.984253 -25.984253 25.984253l0 0c-14.350708 0 -25.984253 -11.633545 -25.984253 -25.984253z" fill-rule="evenodd"/><path stroke="#595959" stroke-width="1.0" stroke-linejoin="round" stroke-linecap="butt" d="m443.95367 241.2156l0 0c0 -14.350708 11.633545 -25.984253 25.984253 -25.984253l0 0c6.891449 0 13.500641 2.7376251 18.373627 7.610611c4.872986 4.873001 7.610626 11.482193 7.610626 18.373642l0 0c0 14.350708 -11.633575 25.984253 -25.984253 25.984253l0 0c-14.350708 0 -25.984253 -11.633545 -25.984253 -25.984253z" fill-rule="evenodd"/><path fill="#000000" d="m464.4721 245.73561l-2.28125 -8.59375l1.171875 0l1.3125 5.640625q0.203125 0.875 0.359375 1.75q0.328125 -1.375 0.390625 -1.59375l1.625 -5.796875l1.375 0l1.234375 4.34375q0.453125 1.625 0.671875 3.046875q0.15625 -0.8125 0.421875 -1.875l1.34375 -5.515625l1.140625 0l-2.34375 8.59375l-1.109375 0l-1.796875 -6.546875q-0.234375 -0.8125 -0.28125 -1.0q-0.125 0.578125 -0.25 1.0l-1.8125 6.546875l-1.171875 0z" fill-rule="nonzero"/><path fill="#000000" d="m475.97015 250.23561l0 -1.375l-2.484375 0l0 -0.640625l2.609375 -3.71875l0.578125 0l0 3.71875l0.765625 0l0 0.640625l-0.765625 0l0 1.375l-0.703125 0zm0 -2.015625l0 -2.578125l-1.796875 2.578125l1.796875 0z" fill-rule="nonzero"/><path fill="#cfe2f3" d="m528.0749 241.2156l0 0c0 -14.350708 11.633545 -25.984253 25.984253 -25.984253l0 0c6.8914185 0 13.50061 2.7376251 18.373657 7.610611c4.872986 4.873001 7.6105957 11.482193 7.6105957 18.373642l0 0c0 14.350708 -11.633545 25.984253 -25.984253 25.984253l0 0c-14.350708 0 -25.984253 -11.633545 -25.984253 -25.984253z" fill-rule="evenodd"/><path stroke="#595959" stroke-width="1.0" stroke-linejoin="round" stroke-linecap="butt" d="m528.0749 241.2156l0 0c0 -14.350708 11.633545 -25.984253 25.984253 -25.984253l0 0c6.8914185 0 13.50061 2.7376251 18.373657 7.610611c4.872986 4.873001 7.6105957 11.482193 7.6105957 18.373642l0 0c0 14.350708 -11.633545 25.984253 -25.984253 25.984253l0 0c-14.350708 0 -25.984253 -11.633545 -25.984253 -25.984253z" fill-rule="evenodd"/><path fill="#000000" d="m548.5933 245.73561l-2.28125 -8.59375l1.171875 0l1.3125 5.640625q0.203125 0.875 0.359375 1.75q0.328125 -1.375 0.390625 -1.59375l1.625 -5.796875l1.375 0l1.234375 4.34375q0.453125 1.625 0.671875 3.046875q0.15625 -0.8125 0.421875 -1.875l1.34375 -5.515625l1.140625 0l-2.34375 8.59375l-1.109375 0l-1.796875 -6.546875q-0.234375 -0.8125 -0.28125 -1.0q-0.125 0.578125 -0.25 1.0l-1.8125 6.546875l-1.171875 0z" fill-rule="nonzero"/><path fill="#000000" d="m557.82574 248.73561l0.75 -0.0625q0.078125 0.53125 0.375 0.8125q0.296875 0.265625 0.71875 0.265625q0.515625 0 0.859375 -0.375q0.359375 -0.390625 0.359375 -1.015625q0 -0.609375 -0.34375 -0.953125q-0.34375 -0.34375 -0.890625 -0.34375q-0.328125 0 -0.609375 0.15625q-0.265625 0.140625 -0.421875 0.390625l-0.671875 -0.078125l0.5625 -2.953125l2.84375 0l0 0.671875l-2.28125 0l-0.3125 1.546875q0.515625 -0.359375 1.078125 -0.359375q0.75 0 1.265625 0.515625q0.515625 0.515625 0.515625 1.34375q0 0.765625 -0.453125 1.34375q-0.546875 0.6875 -1.5 0.6875q-0.78125 0 -1.28125 -0.4375q-0.484375 -0.4375 -0.5625 -1.15625z" fill-rule="nonzero"/><path fill="#cfe2f3" d="m94.57923 135.33449l0 0c0 -14.350708 11.633545 -25.984253 25.984253 -25.984253l0 0c6.8914566 0 13.5006485 2.7376175 18.37365 7.610611c4.872986 4.8729935 7.610611 11.482193 7.610611 18.373642l0 0c0 14.350708 -11.63356 25.984253 -25.98426 25.984253l0 0c-14.350708 0 -25.984253 -11.633545 -25.984253 -25.984253z" fill-rule="evenodd"/><path stroke="#595959" stroke-width="1.0" stroke-linejoin="round" stroke-linecap="butt" d="m94.57923 135.33449l0 0c0 -14.350708 11.633545 -25.984253 25.984253 -25.984253l0 0c6.8914566 0 13.5006485 2.7376175 18.37365 7.610611c4.872986 4.8729935 7.610611 11.482193 7.610611 18.373642l0 0c0 14.350708 -11.63356 25.984253 -25.98426 25.984253l0 0c-14.350708 0 -25.984253 -11.633545 -25.984253 -25.984253z" fill-rule="evenodd"/><path fill="#000000" d="m115.2588 139.85448l0 -8.59375l3.25 0q0.84375 0 1.296875 0.078125q0.640625 0.109375 1.0625 0.40625q0.4375 0.296875 0.6875 0.828125q0.265625 0.53125 0.265625 1.171875q0 1.09375 -0.703125 1.859375q-0.6875 0.75 -2.515625 0.75l-2.203125 0l0 3.5l-1.140625 0zm1.140625 -4.5l2.21875 0q1.109375 0 1.5625 -0.40625q0.46875 -0.421875 0.46875 -1.171875q0 -0.53125 -0.28125 -0.90625q-0.265625 -0.390625 -0.703125 -0.515625q-0.296875 -0.078125 -1.0625 -0.078125l-2.203125 0l0 3.078125z" fill-rule="nonzero"/><path fill="#000000" d="m122.66895 141.52635q0 -1.015625 0.203125 -1.625q0.21875 -0.625 0.625 -0.953125q0.421875 -0.34375 1.046875 -0.34375q0.453125 0 0.796875 0.1875q0.359375 0.1875 0.578125 0.53125q0.234375 0.34375 0.359375 0.859375q0.125 0.5 0.125 1.34375q0 1.015625 -0.203125 1.640625q-0.203125 0.609375 -0.625 0.953125q-0.40625 0.328125 -1.03125 0.328125q-0.828125 0 -1.296875 -0.59375q-0.578125 -0.71875 -0.578125 -2.328125zm0.734375 0q0 1.40625 0.328125 1.875q0.328125 0.46875 0.8125 0.46875q0.484375 0 0.8125 -0.46875q0.328125 -0.46875 0.328125 -1.875q0 -1.40625 -0.328125 -1.875q-0.328125 -0.46875 -0.828125 -0.46875q-0.484375 0 -0.765625 0.40625q-0.359375 0.53125 -0.359375 1.9375z" fill-rule="nonzero"/><path fill="#cfe2f3" d="m178.70045 135.33449l0 0c0 -14.350708 11.633545 -25.984253 25.984253 -25.984253l0 0c6.891449 0 13.500641 2.7376175 18.373642 7.610611c4.872986 4.8729935 7.610611 11.482193 7.610611 18.373642l0 0c0 14.350708 -11.633545 25.984253 -25.984253 25.984253l0 0c-14.350708 0 -25.984253 -11.633545 -25.984253 -25.984253z" fill-rule="evenodd"/><path stroke="#595959" stroke-width="1.0" stroke-linejoin="round" stroke-linecap="butt" d="m178.70045 135.33449l0 0c0 -14.350708 11.633545 -25.984253 25.984253 -25.984253l0 0c6.891449 0 13.500641 2.7376175 18.373642 7.610611c4.872986 4.8729935 7.610611 11.482193 7.610611 18.373642l0 0c0 14.350708 -11.633545 25.984253 -25.984253 25.984253l0 0c-14.350708 0 -25.984253 -11.633545 -25.984253 -25.984253z" fill-rule="evenodd"/><path fill="#000000" d="m199.38002 139.85448l0 -8.59375l3.25 0q0.84375 0 1.296875 0.078125q0.640625 0.109375 1.0625 0.40625q0.4375 0.296875 0.6875 0.828125q0.265625 0.53125 0.265625 1.171875q0 1.09375 -0.703125 1.859375q-0.6875 0.75 -2.515625 0.75l-2.203125 0l0 3.5l-1.140625 0zm1.140625 -4.5l2.21875 0q1.109375 0 1.5625 -0.40625q0.46875 -0.421875 0.46875 -1.171875q0 -0.53125 -0.28125 -0.90625q-0.265625 -0.390625 -0.703125 -0.515625q-0.296875 -0.078125 -1.0625 -0.078125l-2.203125 0l0 3.078125z" fill-rule="nonzero"/><path fill="#000000" d="m209.44643 144.35448l-0.703125 0l0 -4.484375q-0.25 0.25 -0.671875 0.5q-0.40625 0.234375 -0.734375 0.34375l0 -0.671875q0.59375 -0.28125 1.03125 -0.671875q0.4375 -0.390625 0.625 -0.765625l0.453125 0l0 5.75z" fill-rule="nonzero"/><path fill="#d9ead3" d="m52.516895 241.21742l0 0c0 -14.350708 11.633541 -25.984253 25.98425 -25.984253l0 0c6.8914566 0 13.5006485 2.7376251 18.373642 7.610611c4.8729935 4.873001 7.610611 11.482193 7.610611 18.373642l0 0c0 14.350708 -11.633545 25.984268 -25.984253 25.984268l0 0c-14.350708 0 -25.98425 -11.63356 -25.98425 -25.984268z" fill-rule="evenodd"/><path stroke="#595959" stroke-width="1.0" stroke-linejoin="round" stroke-linecap="butt" d="m52.516895 241.21742l0 0c0 -14.350708 11.633541 -25.984253 25.98425 -25.984253l0 0c6.8914566 0 13.5006485 2.7376251 18.373642 7.610611c4.8729935 4.873001 7.610611 11.482193 7.610611 18.373642l0 0c0 14.350708 -11.633545 25.984268 -25.984253 25.984268l0 0c-14.350708 0 -25.98425 -11.63356 -25.98425 -25.984268z" fill-rule="evenodd"/><path fill="#000000" d="m73.035324 245.73743l-2.28125 -8.59375l1.171875 0l1.3125 5.640625q0.203125 0.875 0.359375 1.75q0.328125 -1.375 0.390625 -1.59375l1.625 -5.796875l1.375 0l1.234375 4.34375q0.453125 1.625 0.671875 3.046875q0.15625 -0.8125 0.421875 -1.875l1.34375 -5.515625l1.140625 0l-2.34375 8.59375l-1.109375 0l-1.796875 -6.546875q-0.234375 -0.8125 -0.28125 -1.0q-0.125 0.578125 -0.25 1.0l-1.8125 6.546875l-1.171875 0z" fill-rule="nonzero"/><path fill="#000000" d="m82.267746 247.4093q0 -1.015625 0.203125 -1.625q0.21875 -0.625 0.625 -0.953125q0.421875 -0.34375 1.046875 -0.34375q0.453125 0 0.796875 0.1875q0.359375 0.1875 0.578125 0.53125q0.234375 0.34375 0.359375 0.859375q0.125 0.5 0.125 1.34375q0 1.015625 -0.203125 1.640625q-0.203125 0.609375 -0.625 0.953125q-0.40625 0.328125 -1.03125 0.328125q-0.828125 0 -1.296875 -0.59375q-0.578125 -0.71875 -0.578125 -2.328125zm0.734375 0q0 1.40625 0.328125 1.875q0.328125 0.46875 0.8125 0.46875q0.484375 0 0.8125 -0.46875q0.328125 -0.46875 0.328125 -1.875q0 -1.40625 -0.328125 -1.875q-0.328125 -0.46875 -0.828125 -0.46875q-0.484375 0 -0.765625 0.40625q-0.359375 0.53125 -0.359375 1.9375z" fill-rule="nonzero"/><path fill="#cfe2f3" d="m136.6381 241.21742l0 0c0 -14.350708 11.633545 -25.984253 25.984253 -25.984253l0 0c6.891464 0 13.500656 2.7376251 18.373642 7.610611c4.873001 4.873001 7.610611 11.482193 7.610611 18.373642l0 0c0 14.350708 -11.633545 25.984268 -25.984253 25.984268l0 0c-14.350708 0 -25.984253 -11.63356 -25.984253 -25.984268z" fill-rule="evenodd"/><path stroke="#595959" stroke-width="1.0" stroke-linejoin="round" stroke-linecap="butt" d="m136.6381 241.21742l0 0c0 -14.350708 11.633545 -25.984253 25.984253 -25.984253l0 0c6.891464 0 13.500656 2.7376251 18.373642 7.610611c4.873001 4.873001 7.610611 11.482193 7.610611 18.373642l0 0c0 14.350708 -11.633545 25.984268 -25.984253 25.984268l0 0c-14.350708 0 -25.984253 -11.63356 -25.984253 -25.984268z" fill-rule="evenodd"/><path fill="#000000" d="m157.15654 245.73743l-2.28125 -8.59375l1.171875 0l1.3125 5.640625q0.203125 0.875 0.359375 1.75q0.328125 -1.375 0.390625 -1.59375l1.625 -5.796875l1.375 0l1.234375 4.34375q0.453125 1.625 0.671875 3.046875q0.15625 -0.8125 0.421875 -1.875l1.34375 -5.515625l1.140625 0l-2.34375 8.59375l-1.109375 0l-1.796875 -6.546875q-0.234375 -0.8125 -0.28125 -1.0q-0.125 0.578125 -0.25 1.0l-1.8125 6.546875l-1.171875 0z" fill-rule="nonzero"/><path fill="#000000" d="m169.04521 250.23743l-0.703125 0l0 -4.484375q-0.25 0.25 -0.671875 0.5q-0.40625 0.234375 -0.734375 0.34375l0 -0.671875q0.59375 -0.28125 1.03125 -0.671875q0.4375 -0.390625 0.625 -0.765625l0.453125 0l0 5.75z" fill-rule="nonzero"/><path fill="#fff2cc" d="m220.75934 241.21742l0 0c0 -14.350708 11.633545 -25.984253 25.984253 -25.984253l0 0c6.891449 0 13.500641 2.7376251 18.373627 7.610611c4.872986 4.873001 7.610626 11.482193 7.610626 18.373642l0 0c0 14.350708 -11.633545 25.984268 -25.984253 25.984268l0 0c-14.350708 0 -25.984253 -11.63356 -25.984253 -25.984268z" fill-rule="evenodd"/><path stroke="#595959" stroke-width="1.0" stroke-linejoin="round" stroke-linecap="butt" d="m220.75934 241.21742l0 0c0 -14.350708 11.633545 -25.984253 25.984253 -25.984253l0 0c6.891449 0 13.500641 2.7376251 18.373627 7.610611c4.872986 4.873001 7.610626 11.482193 7.610626 18.373642l0 0c0 14.350708 -11.633545 25.984268 -25.984253 25.984268l0 0c-14.350708 0 -25.984253 -11.63356 -25.984253 -25.984268z" fill-rule="evenodd"/><path fill="#000000" d="m241.27777 245.73743l-2.28125 -8.59375l1.171875 0l1.3125 5.640625q0.203125 0.875 0.359375 1.75q0.328125 -1.375 0.390625 -1.59375l1.625 -5.796875l1.375 0l1.234375 4.34375q0.453125 1.625 0.671875 3.046875q0.15625 -0.8125 0.421875 -1.875l1.34375 -5.515625l1.140625 0l-2.34375 8.59375l-1.109375 0l-1.796875 -6.546875q-0.234375 -0.8125 -0.28125 -1.0q-0.125 0.578125 -0.25 1.0l-1.8125 6.546875l-1.171875 0z" fill-rule="nonzero"/><path fill="#000000" d="m254.21332 249.56555l0 0.671875l-3.78125 0q-0.015625 -0.25 0.078125 -0.484375q0.140625 -0.390625 0.453125 -0.765625q0.328125 -0.375 0.921875 -0.875q0.9375 -0.765625 1.265625 -1.203125q0.328125 -0.453125 0.328125 -0.84375q0 -0.421875 -0.296875 -0.703125q-0.296875 -0.296875 -0.78125 -0.296875q-0.5 0 -0.8125 0.3125q-0.296875 0.296875 -0.3125 0.84375l-0.71875 -0.078125q0.078125 -0.8125 0.5625 -1.234375q0.484375 -0.421875 1.296875 -0.421875q0.828125 0 1.296875 0.453125q0.484375 0.453125 0.484375 1.140625q0 0.34375 -0.140625 0.671875q-0.140625 0.328125 -0.46875 0.703125q-0.3125 0.359375 -1.078125 1.0q-0.625 0.53125 -0.8125 0.71875q-0.171875 0.1875 -0.296875 0.390625l2.8125 0z" fill-rule="nonzero"/><path fill="#f4cccc" d="m709.2103 135.33086l0 0c0 -14.350708 11.633545 -25.984253 25.984253 -25.984253l0 0c6.8914795 0 13.500671 2.7376175 18.373657 7.610611c4.872986 4.8729935 7.6105957 11.482193 7.6105957 18.373642l0 0c0 14.350708 -11.633545 25.984253 -25.984253 25.984253l0 0c-14.350708 0 -25.984253 -11.633545 -25.984253 -25.984253z" fill-rule="evenodd"/><path stroke="#595959" stroke-width="1.0" stroke-linejoin="round" stroke-linecap="butt" d="m709.2103 135.33086l0 0c0 -14.350708 11.633545 -25.984253 25.984253 -25.984253l0 0c6.8914795 0 13.500671 2.7376175 18.373657 7.610611c4.872986 4.8729935 7.6105957 11.482193 7.6105957 18.373642l0 0c0 14.350708 -11.633545 25.984253 -25.984253 25.984253l0 0c-14.350708 0 -25.984253 -11.633545 -25.984253 -25.984253z" fill-rule="evenodd"/><path fill="#000000" d="m729.8899 139.85086l0 -8.59375l3.25 0q0.84375 0 1.296875 0.078125q0.640625 0.109375 1.0625 0.40625q0.4375 0.296875 0.6875 0.828125q0.265625 0.53125 0.265625 1.171875q0 1.09375 -0.703125 1.859375q-0.6875 0.75 -2.515625 0.75l-2.203125 0l0 3.5l-1.140625 0zm1.140625 -4.5l2.21875 0q1.109375 0 1.5625 -0.40625q0.46875 -0.421875 0.46875 -1.171875q0 -0.53125 -0.28125 -0.90625q-0.265625 -0.390625 -0.703125 -0.515625q-0.296875 -0.078125 -1.0625 -0.078125l-2.203125 0l0 3.078125z" fill-rule="nonzero"/><path fill="#000000" d="m739.5657 144.35086l0 -1.375l-2.484375 0l0 -0.640625l2.609375 -3.71875l0.578125 0l0 3.71875l0.765625 0l0 0.640625l-0.765625 0l0 1.375l-0.703125 0zm0 -2.015625l0 -2.578125l-1.796875 2.578125l1.796875 0z" fill-rule="nonzero"/><path fill="#f4cccc" d="m793.33154 135.33086l0 0c0 -14.350708 11.633545 -25.984253 25.984253 -25.984253l0 0c6.8914795 0 13.500671 2.7376175 18.373657 7.610611c4.872986 4.8729935 7.6105957 11.482193 7.6105957 18.373642l0 0c0 14.350708 -11.633545 25.984253 -25.984253 25.984253l0 0c-14.350708 0 -25.984253 -11.633545 -25.984253 -25.984253z" fill-rule="evenodd"/><path stroke="#595959" stroke-width="1.0" stroke-linejoin="round" stroke-linecap="butt" d="m793.33154 135.33086l0 0c0 -14.350708 11.633545 -25.984253 25.984253 -25.984253l0 0c6.8914795 0 13.500671 2.7376175 18.373657 7.610611c4.872986 4.8729935 7.6105957 11.482193 7.6105957 18.373642l0 0c0 14.350708 -11.633545 25.984253 -25.984253 25.984253l0 0c-14.350708 0 -25.984253 -11.633545 -25.984253 -25.984253z" fill-rule="evenodd"/><path fill="#000000" d="m814.0111 139.85086l0 -8.59375l3.25 0q0.84375 0 1.296875 0.078125q0.640625 0.109375 1.0625 0.40625q0.4375 0.296875 0.6875 0.828125q0.265625 0.53125 0.265625 1.171875q0 1.09375 -0.703125 1.859375q-0.6875 0.75 -2.515625 0.75l-2.203125 0l0 3.5l-1.140625 0zm1.140625 -4.5l2.21875 0q1.109375 0 1.5625 -0.40625q0.46875 -0.421875 0.46875 -1.171875q0 -0.53125 -0.28125 -0.90625q-0.265625 -0.390625 -0.703125 -0.515625q-0.296875 -0.078125 -1.0625 -0.078125l-2.203125 0l0 3.078125z" fill-rule="nonzero"/><path fill="#000000" d="m821.42126 142.85086l0.75 -0.0625q0.078125 0.53125 0.375 0.8125q0.296875 0.265625 0.71875 0.265625q0.515625 0 0.859375 -0.375q0.359375 -0.390625 0.359375 -1.015625q0 -0.609375 -0.34375 -0.953125q-0.34375 -0.34375 -0.890625 -0.34375q-0.328125 0 -0.609375 0.15625q-0.265625 0.140625 -0.421875 0.390625l-0.671875 -0.078125l0.5625 -2.953125l2.84375 0l0 0.671875l-2.28125 0l-0.3125 1.546875q0.515625 -0.359375 1.078125 -0.359375q0.75 0 1.265625 0.515625q0.515625 0.515625 0.515625 1.34375q0 0.765625 -0.453125 1.34375q-0.546875 0.6875 -1.5 0.6875q-0.78125 0 -1.28125 -0.4375q-0.484375 -0.4375 -0.5625 -1.15625z" fill-rule="nonzero"/><path fill="#fff2cc" d="m667.148 241.21379l0 0c0 -14.350708 11.633545 -25.984253 25.984253 -25.984253l0 0c6.8914185 0 13.50061 2.7376251 18.373596 7.610611c4.872986 4.873001 7.6106567 11.482193 7.6106567 18.373642l0 0c0 14.350708 -11.633545 25.984268 -25.984253 25.984268l0 0c-14.350708 0 -25.984253 -11.63356 -25.984253 -25.984268z" fill-rule="evenodd"/><path stroke="#595959" stroke-width="1.0" stroke-linejoin="round" stroke-linecap="butt" d="m667.148 241.21379l0 0c0 -14.350708 11.633545 -25.984253 25.984253 -25.984253l0 0c6.8914185 0 13.50061 2.7376251 18.373596 7.610611c4.872986 4.873001 7.6106567 11.482193 7.6106567 18.373642l0 0c0 14.350708 -11.633545 25.984268 -25.984253 25.984268l0 0c-14.350708 0 -25.984253 -11.63356 -25.984253 -25.984268z" fill-rule="evenodd"/><path fill="#000000" d="m687.66644 245.7338l-2.28125 -8.59375l1.171875 0l1.3125 5.640625q0.203125 0.875 0.359375 1.75q0.328125 -1.375 0.390625 -1.59375l1.625 -5.796875l1.375 0l1.234375 4.34375q0.453125 1.625 0.671875 3.046875q0.15625 -0.8125 0.421875 -1.875l1.34375 -5.515625l1.140625 0l-2.34375 8.59375l-1.109375 0l-1.796875 -6.546875q-0.234375 -0.8125 -0.28125 -1.0q-0.125 0.578125 -0.25 1.0l-1.8125 6.546875l-1.171875 0z" fill-rule="nonzero"/><path fill="#000000" d="m700.5551 245.90567l-0.703125 0.0625q-0.09375 -0.421875 -0.265625 -0.609375q-0.28125 -0.296875 -0.703125 -0.296875q-0.328125 0 -0.59375 0.1875q-0.328125 0.234375 -0.515625 0.703125q-0.1875 0.46875 -0.203125 1.328125q0.25 -0.390625 0.609375 -0.578125q0.375 -0.1875 0.78125 -0.1875q0.703125 0 1.1875 0.515625q0.5 0.515625 0.5 1.34375q0 0.53125 -0.234375 1.0q-0.21875 0.46875 -0.625 0.71875q-0.40625 0.234375 -0.921875 0.234375q-0.890625 0 -1.453125 -0.640625q-0.546875 -0.65625 -0.546875 -2.140625q0 -1.65625 0.625 -2.40625q0.53125 -0.65625 1.4375 -0.65625q0.671875 0 1.09375 0.375q0.4375 0.375 0.53125 1.046875zm-2.875 2.46875q0 0.359375 0.15625 0.703125q0.15625 0.328125 0.421875 0.5q0.28125 0.171875 0.59375 0.171875q0.4375 0 0.75 -0.359375q0.328125 -0.359375 0.328125 -0.96875q0 -0.59375 -0.3125 -0.9375q-0.3125 -0.34375 -0.796875 -0.34375q-0.46875 0 -0.8125 0.34375q-0.328125 0.34375 -0.328125 0.890625z" fill-rule="nonzero"/><path fill="#f4cccc" d="m751.2692 241.21379l0 0c0 -14.350708 11.633545 -25.984253 25.984253 -25.984253l0 0c6.8914185 0 13.50061 2.7376251 18.373596 7.610611c4.873047 4.873001 7.6106567 11.482193 7.6106567 18.373642l0 0c0 14.350708 -11.633545 25.984268 -25.984253 25.984268l0 0c-14.350708 0 -25.984253 -11.63356 -25.984253 -25.984268z" fill-rule="evenodd"/><path stroke="#595959" stroke-width="1.0" stroke-linejoin="round" stroke-linecap="butt" d="m751.2692 241.21379l0 0c0 -14.350708 11.633545 -25.984253 25.984253 -25.984253l0 0c6.8914185 0 13.50061 2.7376251 18.373596 7.610611c4.873047 4.873001 7.6106567 11.482193 7.6106567 18.373642l0 0c0 14.350708 -11.633545 25.984268 -25.984253 25.984268l0 0c-14.350708 0 -25.984253 -11.63356 -25.984253 -25.984268z" fill-rule="evenodd"/><path fill="#000000" d="m771.78766 245.7338l-2.28125 -8.59375l1.171875 0l1.3125 5.640625q0.203125 0.875 0.359375 1.75q0.328125 -1.375 0.390625 -1.59375l1.625 -5.796875l1.375 0l1.234375 4.34375q0.453125 1.625 0.671875 3.046875q0.15625 -0.8125 0.421875 -1.875l1.34375 -5.515625l1.140625 0l-2.34375 8.59375l-1.109375 0l-1.796875 -6.546875q-0.234375 -0.8125 -0.28125 -1.0q-0.125 0.578125 -0.25 1.0l-1.8125 6.546875l-1.171875 0z" fill-rule="nonzero"/><path fill="#000000" d="m781.06696 245.24942l0 -0.671875l3.71875 0l0 0.546875q-0.546875 0.578125 -1.09375 1.546875q-0.53125 0.96875 -0.828125 1.984375q-0.203125 0.71875 -0.265625 1.578125l-0.71875 0q0 -0.671875 0.25 -1.625q0.265625 -0.96875 0.734375 -1.859375q0.484375 -0.890625 1.015625 -1.5l-2.8125 0z" fill-rule="nonzero"/><path fill="#d9ead3" d="m835.39044 241.21379l0 0c0 -14.350708 11.633545 -25.984253 25.984253 -25.984253l0 0c6.8914185 0 13.50061 2.7376251 18.373657 7.610611c4.872986 4.873001 7.6105957 11.482193 7.6105957 18.373642l0 0c0 14.350708 -11.633545 25.984268 -25.984253 25.984268l0 0c-14.350708 0 -25.984253 -11.63356 -25.984253 -25.984268z" fill-rule="evenodd"/><path stroke="#595959" stroke-width="1.0" stroke-linejoin="round" stroke-linecap="butt" d="m835.39044 241.21379l0 0c0 -14.350708 11.633545 -25.984253 25.984253 -25.984253l0 0c6.8914185 0 13.50061 2.7376251 18.373657 7.610611c4.872986 4.873001 7.6105957 11.482193 7.6105957 18.373642l0 0c0 14.350708 -11.633545 25.984268 -25.984253 25.984268l0 0c-14.350708 0 -25.984253 -11.63356 -25.984253 -25.984268z" fill-rule="evenodd"/><path fill="#000000" d="m855.9089 245.7338l-2.28125 -8.59375l1.171875 0l1.3125 5.640625q0.203125 0.875 0.359375 1.75q0.328125 -1.375 0.390625 -1.59375l1.625 -5.796875l1.375 0l1.234375 4.34375q0.453125 1.625 0.671875 3.046875q0.15625 -0.8125 0.421875 -1.875l1.34375 -5.515625l1.140625 0l-2.34375 8.59375l-1.109375 0l-1.796875 -6.546875q-0.234375 -0.8125 -0.28125 -1.0q-0.125 0.578125 -0.25 1.0l-1.8125 6.546875l-1.171875 0z" fill-rule="nonzero"/><path fill="#000000" d="m866.23505 247.12442q-0.4375 -0.15625 -0.65625 -0.453125q-0.203125 -0.296875 -0.203125 -0.71875q0 -0.625 0.4375 -1.046875q0.453125 -0.421875 1.203125 -0.421875q0.75 0 1.203125 0.4375q0.453125 0.4375 0.453125 1.0625q0 0.390625 -0.203125 0.6875q-0.203125 0.296875 -0.640625 0.453125q0.53125 0.171875 0.796875 0.5625q0.28125 0.375 0.28125 0.90625q0 0.734375 -0.515625 1.234375q-0.515625 0.5 -1.359375 0.5q-0.859375 0 -1.375 -0.5q-0.515625 -0.5 -0.515625 -1.25q0 -0.5625 0.28125 -0.9375q0.28125 -0.375 0.8125 -0.515625zm-0.140625 -1.1875q0 0.40625 0.25 0.671875q0.265625 0.25 0.6875 0.25q0.40625 0 0.65625 -0.25q0.265625 -0.265625 0.265625 -0.640625q0 -0.375 -0.265625 -0.640625q-0.265625 -0.265625 -0.671875 -0.265625q-0.390625 0 -0.65625 0.265625q-0.265625 0.25 -0.265625 0.609375zm-0.234375 2.640625q0 0.296875 0.140625 0.578125q0.140625 0.28125 0.421875 0.4375q0.28125 0.15625 0.609375 0.15625q0.5 0 0.828125 -0.3125q0.328125 -0.328125 0.328125 -0.828125q0 -0.515625 -0.34375 -0.84375q-0.328125 -0.328125 -0.828125 -0.328125q-0.5 0 -0.828125 0.328125q-0.328125 0.328125 -0.328125 0.8125z" fill-rule="nonzero"/><path fill="#000000" fill-opacity="0.0" d="m89.033066 43.39506l184.62993 0l0 65.95276l-184.62993 0z" fill-rule="evenodd"/><path fill="#595959" d="m101.42369 60.455685l-0.203125 1.0625q1.078125 -1.265625 2.4375 -1.234375q0.9375 0 1.484375 0.640625q0.5625 0.625 0.640625 1.703125q0.03125 0.625 -0.03125 1.234375l-1.078125 6.453129l-1.5625 0l1.078125 -6.484379l0.03125 -0.71875q0 -1.390625 -1.140625 -1.421875q-0.9375 -0.03125 -1.75 1.0625l-0.265625 0.390625l-1.25 7.171879l-1.578125 0l1.71875 -9.859379l1.46875 0z" fill-rule="nonzero"/><path fill="#595959" d="m119.47887 65.86194q0 2.34375 -0.84375 3.5q-0.84375 1.140625 -2.390625 1.140625q-1.484375 0 -2.28125 -1.125l0 4.734375l-1.59375 0l0 -13.656254l1.453125 0l0.078125 1.09375q0.8125 -1.265625 2.328125 -1.265625q1.625 0 2.421875 1.125q0.796875 1.125 0.828125 3.3750038l0 1.078125zm-1.609375 -0.921875q0 -1.6562538 -0.515625 -2.4375038q-0.5 -0.796875 -1.625 -0.796875q-1.15625 0 -1.765625 1.15625l0 5.125004q0.59375 1.140625 1.78125 1.140625q1.09375 0 1.609375 -0.78125q0.515625 -0.796875 0.515625 -2.421875l0 -0.984375zm8.763092 5.375q-0.15625 -0.3125 -0.21875 -1.078125q-0.859375 1.265625 -2.1875 1.265625q-1.328125 0 -2.09375 -0.75q-0.75 -0.765625 -0.75 -2.125q0 -1.5 1.015625 -2.375q1.03125 -0.890625 2.8125 -0.90625l1.1875 0l0 -1.0468788q0 -0.890625 -0.40625 -1.265625q-0.390625 -0.375 -1.1875 -0.375q-0.734375 0 -1.1875 0.4375q-0.453125 0.4375 -0.453125 1.09375l-1.609375 0q0 -0.75 0.4375 -1.4375q0.453125 -0.6875 1.203125 -1.078125q0.765625 -0.390625 1.6875 -0.390625q1.515625 0 2.296875 0.75q0.796875 0.75 0.8125 2.1875l0 4.968754q0.015625 1.140625 0.3125 1.984375l0 0.140625l-1.671875 0zm-2.15625 -1.28125q0.59375 0 1.125 -0.328125q0.546875 -0.328125 0.796875 -0.828125l0 -2.34375l-0.921875 0q-1.140625 0.015625 -1.8125 0.515625q-0.65625 0.5 -0.65625 1.390625q0 0.828125 0.328125 1.21875q0.34375 0.375 1.140625 0.375zm10.092667 -7.062504q-0.34375 -0.0625 -0.734375 -0.0625q-1.234375 0 -1.734375 1.359375l0 7.046879l-1.609375 0l0 -9.859379l1.5625 0l0.03125 1.0q0.640625 -1.171875 1.828125 -1.171875q0.390625 0 0.640625 0.125l0.015625 1.5625zm6.6752167 8.343754q-0.15625 -0.3125 -0.21875 -1.078125q-0.859375 1.265625 -2.1875 1.265625q-1.328125 0 -2.09375 -0.75q-0.75 -0.765625 -0.75 -2.125q0 -1.5 1.015625 -2.375q1.03125 -0.890625 2.8125 -0.90625l1.1875 0l0 -1.0468788q0 -0.890625 -0.40625 -1.265625q-0.390625 -0.375 -1.1875 -0.375q-0.734375 0 -1.1875 0.4375q-0.453125 0.4375 -0.453125 1.09375l-1.609375 0q0 -0.75 0.4375 -1.4375q0.453125 -0.6875 1.203125 -1.078125q0.765625 -0.390625 1.6875 -0.390625q1.515625 0 2.296875 0.75q0.796875 0.75 0.8125 2.1875l0 4.968754q0.015625 1.140625 0.3125 1.984375l0 0.140625l-1.671875 0zm-2.15625 -1.28125q0.59375 0 1.125 -0.328125q0.546875 -0.328125 0.796875 -0.828125l0 -2.34375l-0.921875 0q-1.140625 0.015625 -1.8125 0.515625q-0.65625 0.5 -0.65625 1.390625q0 0.828125 0.328125 1.21875q0.34375 0.375 1.140625 0.375zm7.5301666 -8.578129l0.046875 0.90625q0.890625 -1.078125 2.375 -1.078125q1.640625 0 2.296875 1.421875q0.9375 -1.421875 2.59375 -1.421875q2.71875 0 2.78125 3.390625l0 6.640629l-1.59375 0l0 -6.484379q0 -1.078125 -0.390625 -1.59375q-0.375 -0.53125 -1.296875 -0.53125q-0.71875 0 -1.1875 0.5625q-0.453125 0.5625 -0.515625 1.4375l0 6.609379l-1.625 0l0 -6.562504q-0.03125 -2.046875 -1.671875 -2.046875q-1.21875 0 -1.71875 1.21875l0 7.390629l-1.59375 0l0 -9.859379l1.5 0zm16.05336 10.046879q-1.84375 0 -2.828125 -1.09375q-0.984375 -1.109375 -1.0 -3.234375l0 -1.1875q0 -2.2031288 0.953125 -3.4531288q0.96875 -1.25 2.6875 -1.25q1.734375 0 2.578125 1.109375q0.859375 1.09375 0.875 3.4218788l0 1.046875l-5.5 0l0 0.234375q0 1.59375 0.59375 2.3125q0.609375 0.71875 1.71875 0.71875q0.71875 0 1.25 -0.265625q0.546875 -0.28125 1.03125 -0.859375l0.828125 1.015625q-1.046875 1.484375 -3.1875 1.484375zm-0.1875 -8.843754q-1.0 0 -1.484375 0.6875q-0.484375 0.6875 -0.546875 2.1406288l3.875 0l0 -0.21875q-0.0625 -1.4062538 -0.5 -2.0000038q-0.4375 -0.609375 -1.34375 -0.609375zm7.5016327 -3.59375l0 2.390625l1.484375 0l0 1.3125l-1.484375 0l0 6.109379q0 0.578125 0.1875 0.890625q0.203125 0.296875 0.65625 0.296875q0.328125 0 0.65625 -0.109375l-0.015625 1.359375q-0.546875 0.1875 -1.125 0.1875q-0.953125 0 -1.453125 -0.6875q-0.5 -0.6875 -0.5 -1.9375l0 -6.109379l-1.515625 0l0 -1.3125l1.515625 0l0 -2.390625l1.59375 0zm6.9331207 12.437504q-1.84375 0 -2.828125 -1.09375q-0.984375 -1.109375 -1.0 -3.234375l0 -1.1875q0 -2.2031288 0.953125 -3.4531288q0.96875 -1.25 2.6875 -1.25q1.734375 0 2.578125 1.109375q0.859375 1.09375 0.875 3.4218788l0 1.046875l-5.5 0l0 0.234375q0 1.59375 0.59375 2.3125q0.609375 0.71875 1.71875 0.71875q0.71875 0 1.25 -0.265625q0.546875 -0.28125 1.03125 -0.859375l0.828125 1.015625q-1.046875 1.484375 -3.1875 1.484375zm-0.1875 -8.843754q-1.0 0 -1.484375 0.6875q-0.484375 0.6875 -0.546875 2.1406288l3.875 0l0 -0.21875q-0.0625 -1.4062538 -0.5 -2.0000038q-0.4375 -0.609375 -1.34375 -0.609375zm9.470383 0.3125q-0.34375 -0.0625 -0.734375 -0.0625q-1.234375 0 -1.734375 1.359375l0 7.046879l-1.609375 0l0 -9.859379l1.5625 0l0.03125 1.0q0.640625 -1.171875 1.828125 -1.171875q0.390625 0 0.640625 0.125l0.015625 1.5625zm10.666321 5.828129q0 -0.53125 -0.40625 -0.90625q-0.390625 -0.375 -1.5 -0.875q-1.3125 -0.53125 -1.84375 -0.90625q-0.53125 -0.390625 -0.796875 -0.875q-0.265625 -0.4843788 -0.265625 -1.1562538q0 -1.203125 0.875 -2.0q0.890625 -0.796875 2.25 -0.796875q1.4375 0 2.3125 0.84375q0.875 0.828125 0.875 2.140625l-1.59375 0q0 -0.671875 -0.453125 -1.140625q-0.4375 -0.46875 -1.140625 -0.46875q-0.703125 0 -1.109375 0.375q-0.40625 0.359375 -0.40625 0.984375q0 0.484375 0.296875 0.796875q0.296875 0.2968788 1.421875 0.7812538q1.796875 0.703125 2.4375 1.375q0.65625 0.671875 0.65625 1.703125q0 1.28125 -0.890625 2.0625q-0.875 0.765625 -2.359375 0.765625q-1.546875 0 -2.5 -0.875q-0.953125 -0.890625 -0.953125 -2.25l1.609375 0q0.03125 0.8125 0.5 1.28125q0.484375 0.46875 1.34375 0.46875q0.796875 0 1.21875 -0.359375q0.421875 -0.359375 0.421875 -0.96875zm7.233536 2.703125q-1.84375 0 -2.828125 -1.09375q-0.984375 -1.109375 -1.0 -3.234375l0 -1.1875q0 -2.2031288 0.953125 -3.4531288q0.96875 -1.25 2.6875 -1.25q1.734375 0 2.578125 1.109375q0.859375 1.09375 0.875 3.4218788l0 1.046875l-5.5 0l0 0.234375q0 1.59375 0.59375 2.3125q0.609375 0.71875 1.71875 0.71875q0.71875 0 1.25 -0.265625q0.546875 -0.28125 1.03125 -0.859375l0.828125 1.015625q-1.046875 1.484375 -3.1875 1.484375zm-0.1875 -8.843754q-1.0 0 -1.484375 0.6875q-0.484375 0.6875 -0.546875 2.1406288l3.875 0l0 -0.21875q-0.0625 -1.4062538 -0.5 -2.0000038q-0.4375 -0.609375 -1.34375 -0.609375zm9.470383 0.3125q-0.34375 -0.0625 -0.734375 -0.0625q-1.234375 0 -1.734375 1.359375l0 7.046879l-1.609375 0l0 -9.859379l1.5625 0l0.03125 1.0q0.640625 -1.171875 1.828125 -1.171875q0.390625 0 0.640625 0.125l0.015625 1.5625zm4.3939667 5.890629l1.859375 -7.406254l1.640625 0l-2.921875 9.859379l-1.203125 0l-2.953125 -9.859379l1.640625 0l1.9375 7.406254zm8.714294 2.640625q-1.84375 0 -2.828125 -1.09375q-0.984375 -1.109375 -1.0 -3.234375l0 -1.1875q0 -2.2031288 0.953125 -3.4531288q0.96875 -1.25 2.6875 -1.25q1.734375 0 2.578125 1.109375q0.859375 1.09375 0.875 3.4218788l0 1.046875l-5.5 0l0 0.234375q0 1.59375 0.59375 2.3125q0.609375 0.71875 1.71875 0.71875q0.71875 0 1.25 -0.265625q0.546875 -0.28125 1.03125 -0.859375l0.828125 1.015625q-1.046875 1.484375 -3.1875 1.484375zm-0.1875 -8.843754q-1.0 0 -1.484375 0.6875q-0.484375 0.6875 -0.546875 2.1406288l3.875 0l0 -0.21875q-0.0625 -1.4062538 -0.5 -2.0000038q-0.4375 -0.609375 -1.34375 -0.609375zm9.470383 0.3125q-0.34375 -0.0625 -0.734375 -0.0625q-1.234375 0 -1.734375 1.359375l0 7.046879l-1.609375 0l0 -9.859379l1.5625 0l0.03125 1.0q0.640625 -1.171875 1.828125 -1.171875q0.390625 0 0.640625 0.125l0.015625 1.5625zm6.3939667 5.828129q0 -0.53125 -0.40625 -0.90625q-0.390625 -0.375 -1.5 -0.875q-1.3125 -0.53125 -1.84375 -0.90625q-0.53125 -0.390625 -0.796875 -0.875q-0.265625 -0.4843788 -0.265625 -1.1562538q0 -1.203125 0.875 -2.0q0.890625 -0.796875 2.25 -0.796875q1.4375 0 2.3125 0.84375q0.875 0.828125 0.875 2.140625l-1.59375 0q0 -0.671875 -0.453125 -1.140625q-0.4375 -0.46875 -1.140625 -0.46875q-0.703125 0 -1.109375 0.375q-0.40625 0.359375 -0.40625 0.984375q0 0.484375 0.296875 0.796875q0.296875 0.2968788 1.421875 0.7812538q1.796875 0.703125 2.4375 1.375q0.65625 0.671875 0.65625 1.703125q0 1.28125 -0.890625 2.0625q-0.875 0.765625 -2.359375 0.765625q-1.546875 0 -2.5 -0.875q-0.953125 -0.890625 -0.953125 -2.25l1.609375 0q0.03125 0.8125 0.5 1.28125q0.484375 0.46875 1.34375 0.46875q0.796875 0 1.21875 -0.359375q0.421875 -0.359375 0.421875 -0.96875z" fill-rule="nonzero"/><path fill="#000000" fill-opacity="0.0" d="m377.6578 286.4591l184.62991 0l0 65.95276l-184.62991 0z" fill-rule="evenodd"/><path fill="#595959" d="m435.14908 303.51974l-0.1875 0.90625q1.046875 -1.125 2.421875 -1.078125q0.71875 0.015625 1.265625 0.375q0.546875 0.34375 0.765625 1.03125q1.1875 -1.4375 2.6875 -1.421875q1.0 0.03125 1.5625 0.640625q0.578125 0.59375 0.671875 1.65625q0.0625 0.640625 0 1.265625l-1.09375 6.484375l-1.5625 0l1.078125 -6.5l0.03125 -0.765625q-0.015625 -0.640625 -0.34375 -1.0q-0.328125 -0.359375 -0.921875 -0.359375q-0.71875 -0.015625 -1.296875 0.59375q-0.578125 0.59375 -0.703125 1.421875l0 0.046875l-1.109375 6.5625l-1.59375 0l1.09375 -6.484375q0.03125 -0.359375 0.015625 -0.75q-0.0625 -1.34375 -1.25 -1.390625q-1.109375 -0.015625 -1.859375 1.234375l-1.28125 7.390625l-1.5625 0l1.71875 -9.859375l1.453125 0z" fill-rule="nonzero"/><path fill="#595959" d="m458.25104 310.551l1.5 -7.03125l1.59375 0l-2.40625 9.859375l-1.296875 0l-1.921875 -7.046875l-1.875 7.046875l-1.296875 0l-2.390625 -9.859375l1.59375 0l1.53125 6.859375l1.828125 -6.859375l1.265625 0l1.875 7.03125zm4.4372253 -2.5625q0 -2.140625 1.046875 -3.390625q1.046875 -1.25 2.75 -1.25q1.71875 0 2.765625 1.21875q1.046875 1.21875 1.0625 3.3125l0 1.046875q0 2.140625 -1.046875 3.390625q-1.03125 1.25 -2.75 1.25q-1.71875 0 -2.75 -1.203125q-1.03125 -1.21875 -1.078125 -3.296875l0 -1.078125zm1.625 0.9375q0 1.515625 0.59375 2.390625q0.59375 0.875 1.609375 0.875q2.125 0 2.1875 -3.078125l0 -1.125q0 -1.5 -0.609375 -2.375q-0.59375 -0.890625 -1.59375 -0.890625q-1.0 0 -1.59375 0.890625q-0.59375 0.875 -0.59375 2.375l0 0.9375zm12.161438 -3.890625q-0.34375 -0.0625 -0.734375 -0.0625q-1.234375 0 -1.734375 1.359375l0 7.046875l-1.609375 0l0 -9.859375l1.5625 0l0.03125 1.0q0.640625 -1.171875 1.828125 -1.171875q0.390625 0 0.640625 0.125l0.015625 1.5625zm4.081482 3.828125l-0.859375 0.984375l0 3.53125l-1.609375 0l0 -14.0l1.609375 0l0 8.375l3.0625 -4.234375l1.9375 0l-3.140625 4.125l3.546875 5.734375l-1.875 0l-2.671875 -4.515625zm9.454926 4.703125q-1.84375 0 -2.828125 -1.09375q-0.984375 -1.109375 -1.0 -3.234375l0 -1.1875q0 -2.203125 0.953125 -3.453125q0.96875 -1.25 2.6875 -1.25q1.734375 0 2.578125 1.109375q0.859375 1.09375 0.875 3.421875l0 1.046875l-5.5 0l0 0.234375q0 1.59375 0.59375 2.3125q0.609375 0.71875 1.71875 0.71875q0.71875 0 1.25 -0.265625q0.546875 -0.28125 1.03125 -0.859375l0.828125 1.015625q-1.046875 1.484375 -3.1875 1.484375zm-0.1875 -8.84375q-1.0 0 -1.484375 0.6875q-0.484375 0.6875 -0.546875 2.140625l3.875 0l0 -0.21875q-0.0625 -1.40625 -0.5 -2.0q-0.4375 -0.609375 -1.34375 -0.609375zm9.470398 0.3125q-0.34375 -0.0625 -0.734375 -0.0625q-1.234375 0 -1.734375 1.359375l0 7.046875l-1.609375 0l0 -9.859375l1.5625 0l0.03125 1.0q0.640625 -1.171875 1.828125 -1.171875q0.390625 0 0.640625 0.125l0.015625 1.5625zm6.3939514 5.828125q0 -0.53125 -0.40625 -0.90625q-0.390625 -0.375 -1.5 -0.875q-1.3125 -0.53125 -1.84375 -0.90625q-0.53125 -0.390625 -0.796875 -0.875q-0.265625 -0.484375 -0.265625 -1.15625q0 -1.203125 0.875 -2.0q0.890625 -0.796875 2.25 -0.796875q1.4375 0 2.3125 0.84375q0.875 0.828125 0.875 2.140625l-1.59375 0q0 -0.671875 -0.453125 -1.140625q-0.4375 -0.46875 -1.140625 -0.46875q-0.703125 0 -1.109375 0.375q-0.40625 0.359375 -0.40625 0.984375q0 0.484375 0.296875 0.796875q0.296875 0.296875 1.421875 0.78125q1.796875 0.703125 2.4375 1.375q0.65625 0.671875 0.65625 1.703125q0 1.28125 -0.890625 2.0625q-0.875 0.765625 -2.359375 0.765625q-1.546875 0 -2.5 -0.875q-0.953125 -0.890625 -0.953125 -2.25l1.609375 0q0.03125 0.8125 0.5 1.28125q0.484375 0.46875 1.34375 0.46875q0.796875 0 1.21875 -0.359375q0.421875 -0.359375 0.421875 -0.96875z" fill-rule="nonzero"/><path fill="#000000" fill-opacity="0.0" d="m391.38754 20.461933l155.90549 0l0 53.952755l-155.90549 0z" fill-rule="evenodd"/><path fill="#595959" d="m414.7863 47.38193l0 -13.265625l3.15625 0q2.328125 0 3.609375 1.453125q1.28125 1.453125 1.28125 4.09375l0 2.21875q0 2.625 -1.3125 4.0625q-1.296875 1.4375 -3.765625 1.4375l-2.96875 0zm1.65625 -11.828125l0 10.390625l1.34375 0q1.75 0 2.5625 -1.0q0.8125 -1.0 0.828125 -2.984375l0 -2.34375q0 -2.09375 -0.8125 -3.078125q-0.796875 -0.984375 -2.421875 -0.984375l-1.5 0zm13.836487 11.828125q-0.15625 -0.3125 -0.21875 -1.078125q-0.859375 1.265625 -2.1875 1.265625q-1.328125 0 -2.09375 -0.75q-0.75 -0.765625 -0.75 -2.125q0 -1.5 1.015625 -2.375q1.03125 -0.890625 2.8125 -0.90625l1.1875 0l0 -1.046875q0 -0.890625 -0.40625 -1.265625q-0.390625 -0.375 -1.1875 -0.375q-0.734375 0 -1.1875 0.4375q-0.453125 0.4375 -0.453125 1.09375l-1.609375 0q0 -0.75 0.4375 -1.4375q0.453125 -0.6875 1.203125 -1.078125q0.765625 -0.390625 1.6875 -0.390625q1.515625 0 2.296875 0.75q0.796875 0.75 0.8125 2.1875l0 4.96875q0.015625 1.140625 0.3125 1.984375l0 0.140625l-1.671875 0zm-2.15625 -1.28125q0.59375 0 1.125 -0.328125q0.546875 -0.328125 0.796875 -0.828125l0 -2.34375l-0.921875 0q-1.140625 0.015625 -1.8125 0.515625q-0.65625 0.5 -0.65625 1.390625q0 0.828125 0.328125 1.21875q0.34375 0.375 1.140625 0.375zm8.123932 -10.96875l0 2.390625l1.484375 0l0 1.3125l-1.484375 0l0 6.109375q0 0.578125 0.1875 0.890625q0.203125 0.296875 0.65625 0.296875q0.328125 0 0.65625 -0.109375l-0.015625 1.359375q-0.546875 0.1875 -1.125 0.1875q-0.953125 0 -1.453125 -0.6875q-0.5 -0.6875 -0.5 -1.9375l0 -6.109375l-1.515625 0l0 -1.3125l1.515625 0l0 -2.390625l1.59375 0zm8.47998 12.25q-0.15625 -0.3125 -0.21875 -1.078125q-0.859375 1.265625 -2.1875 1.265625q-1.328125 0 -2.09375 -0.75q-0.75 -0.765625 -0.75 -2.125q0 -1.5 1.015625 -2.375q1.03125 -0.890625 2.8125 -0.90625l1.1875 0l0 -1.046875q0 -0.890625 -0.40625 -1.265625q-0.390625 -0.375 -1.1875 -0.375q-0.734375 0 -1.1875 0.4375q-0.453125 0.4375 -0.453125 1.09375l-1.609375 0q0 -0.75 0.4375 -1.4375q0.453125 -0.6875 1.203125 -1.078125q0.765625 -0.390625 1.6875 -0.390625q1.515625 0 2.296875 0.75q0.796875 0.75 0.8125 2.1875l0 4.96875q0.015625 1.140625 0.3125 1.984375l0 0.140625l-1.671875 0zm-2.15625 -1.28125q0.59375 0 1.125 -0.328125q0.546875 -0.328125 0.796875 -0.828125l0 -2.34375l-0.921875 0q-1.140625 0.015625 -1.8125 0.515625q-0.65625 0.5 -0.65625 1.390625q0 0.828125 0.328125 1.21875q0.34375 0.375 1.140625 0.375zm6.717682 1.28125l0 -8.546875l-1.28125 0l0 -1.3125l1.28125 0l0 -1.140625q0.03125 -1.5 0.765625 -2.34375q0.734375 -0.84375 2.078125 -0.84375q0.484375 0 0.96875 0.15625l-0.078125 1.375q-0.34375 -0.09375 -0.734375 -0.09375q-1.375 0 -1.375 1.96875l0 0.921875l1.671875 0l0 1.3125l-1.671875 0l0 8.546875l-1.625 0zm6.934204 0l-1.609375 0l0 -14.0l1.609375 0l0 14.0zm2.1942139 -5.390625q0 -2.140625 1.046875 -3.390625q1.046875 -1.25 2.75 -1.25q1.71875 0 2.765625 1.21875q1.046875 1.21875 1.0625 3.3125l0 1.046875q0 2.140625 -1.046875 3.390625q-1.03125 1.25 -2.75 1.25q-1.71875 0 -2.75 -1.203125q-1.03125 -1.21875 -1.078125 -3.296875l0 -1.078125zm1.625 0.9375q0 1.515625 0.59375 2.390625q0.59375 0.875 1.609375 0.875q2.125 0 2.1875 -3.078125l0 -1.125q0 -1.5 -0.609375 -2.375q-0.59375 -0.890625 -1.59375 -0.890625q-1.0 0 -1.59375 0.890625q-0.59375 0.875 -0.59375 2.375l0 0.9375zm15.427063 1.625l1.5 -7.03125l1.59375 0l-2.40625 9.859375l-1.296875 0l-1.921875 -7.046875l-1.875 7.046875l-1.296875 0l-2.390625 -9.859375l1.59375 0l1.53125 6.859375l1.828125 -6.859375l1.265625 0l1.875 7.03125zm8.740845 -2.546875q0 -2.296875 0.828125 -3.46875q0.84375 -1.1875 2.453125 -1.1875q1.5 0 2.28125 1.28125l0.09375 -1.109375l1.453125 0l0 9.953125q0 1.828125 -0.9375 2.796875q-0.9375 0.984375 -2.609375 0.984375q-0.734375 0 -1.640625 -0.359375q-0.90625 -0.359375 -1.359375 -0.890625l0.65625 -1.109375q1.0 0.984375 2.203125 0.984375q2.015625 0 2.078125 -2.1875l0 -1.28125q-0.78125 1.15625 -2.234375 1.15625q-1.53125 0 -2.390625 -1.15625q-0.84375 -1.15625 -0.875 -3.3125l0 -1.09375zm1.609375 0.921875q0 1.65625 0.484375 2.4375q0.484375 0.78125 1.59375 0.78125q1.203125 0 1.8125 -1.234375l0 -4.921875q-0.640625 -1.21875 -1.796875 -1.21875q-1.109375 0 -1.609375 0.78125q-0.484375 0.78125 -0.484375 2.390625l0 0.984375zm11.972748 -3.890625q-0.34375 -0.0625 -0.734375 -0.0625q-1.234375 0 -1.734375 1.359375l0 7.046875l-1.609375 0l0 -9.859375l1.5625 0l0.03125 1.0q0.640625 -1.171875 1.828125 -1.171875q0.390625 0 0.640625 0.125l0.015625 1.5625zm6.6752014 8.34375q-0.15625 -0.3125 -0.21875 -1.078125q-0.859375 1.265625 -2.1875 1.265625q-1.328125 0 -2.09375 -0.75q-0.75 -0.765625 -0.75 -2.125q0 -1.5 1.015625 -2.375q1.03125 -0.890625 2.8125 -0.90625l1.1875 0l0 -1.046875q0 -0.890625 -0.40625 -1.265625q-0.390625 -0.375 -1.1875 -0.375q-0.734375 0 -1.1875 0.4375q-0.453125 0.4375 -0.453125 1.09375l-1.609375 0q0 -0.75 0.4375 -1.4375q0.453125 -0.6875 1.203125 -1.078125q0.765625 -0.390625 1.6875 -0.390625q1.515625 0 2.296875 0.75q0.796875 0.75 0.8125 2.1875l0 4.96875q0.015625 1.140625 0.3125 1.984375l0 0.140625l-1.671875 0zm-2.15625 -1.28125q0.59375 0 1.125 -0.328125q0.546875 -0.328125 0.796875 -0.828125l0 -2.34375l-0.921875 0q-1.140625 0.015625 -1.8125 0.515625q-0.65625 0.5 -0.65625 1.390625q0 0.828125 0.328125 1.21875q0.34375 0.375 1.140625 0.375zm13.139557 -3.171875q0 2.34375 -0.84375 3.5q-0.84375 1.140625 -2.390625 1.140625q-1.484375 0 -2.28125 -1.125l0 4.734375l-1.59375 0l0 -13.65625l1.453125 0l0.078125 1.09375q0.8125 -1.265625 2.328125 -1.265625q1.625 0 2.421875 1.125q0.796875 1.125 0.828125 3.375l0 1.078125zm-1.609375 -0.921875q0 -1.65625 -0.515625 -2.4375q-0.5 -0.796875 -1.625 -0.796875q-1.15625 0 -1.765625 1.15625l0 5.125q0.59375 1.140625 1.78125 1.140625q1.09375 0 1.609375 -0.78125q0.515625 -0.796875 0.515625 -2.421875l0 -0.984375zm5.2943115 -3.46875q0.921875 -1.1875 2.359375 -1.1875q2.609375 0 2.640625 3.484375l0 6.546875l-1.59375 0l0 -6.484375q0 -1.15625 -0.390625 -1.640625q-0.390625 -0.484375 -1.15625 -0.484375q-0.609375 0 -1.09375 0.40625q-0.46875 0.390625 -0.765625 1.046875l0 7.15625l-1.609375 0l0 -14.0l1.609375 0l0 5.15625z" fill-rule="nonzero"/><path fill="#000000" fill-opacity="0.0" d="m469.3403 74.41469l0 21.41732" fill-rule="evenodd"/><path stroke="#595959" stroke-width="1.0" stroke-linejoin="round" stroke-linecap="butt" stroke-dasharray="4.0,3.0" d="m469.3403 74.41469l0 21.41732" fill-rule="evenodd"/><path fill="#000000" fill-opacity="0.0" d="m89.03355 114.18122l0 0c0 -5.841873 4.735771 -10.577644 10.577644 -10.577644l126.02582 0c2.8053741 0 5.4958344 1.1144333 7.4795227 3.0981216c1.9836884 1.983696 3.098114 4.674156 3.098114 7.4795227l0 42.309288c0 5.841873 -4.7357635 10.577637 -10.577637 10.577637l-126.02582 0c-5.841873 0 -10.577644 -4.7357635 -10.577644 -10.577637z" fill-rule="evenodd"/><path stroke="#595959" stroke-width="1.0" stroke-linejoin="round" stroke-linecap="butt" d="m89.03355 114.18122l0 0c0 -5.841873 4.735771 -10.577644 10.577644 -10.577644l126.02582 0c2.8053741 0 5.4958344 1.1144333 7.4795227 3.0981216c1.9836884 1.983696 3.098114 4.674156 3.098114 7.4795227l0 42.309288c0 5.841873 -4.7357635 10.577637 -10.577637 10.577637l-126.02582 0c-5.841873 0 -10.577644 -4.7357635 -10.577644 -10.577637z" fill-rule="evenodd"/><path fill="#000000" fill-opacity="0.0" d="m396.35092 114.18122l0 0c0 -5.841873 4.7357483 -10.577644 10.577637 -10.577644l126.02579 0c2.80542 0 5.4958496 1.1144333 7.479553 3.0981216c1.9837036 1.983696 3.0981445 4.674156 3.0981445 7.4795227l0 42.309288c0 5.841873 -4.735779 10.577637 -10.577698 10.577637l-126.02579 0c-5.8418884 0 -10.577637 -4.7357635 -10.577637 -10.577637z" fill-rule="evenodd"/><path stroke="#595959" stroke-width="1.0" stroke-linejoin="round" stroke-linecap="butt" d="m396.35092 114.18122l0 0c0 -5.841873 4.7357483 -10.577644 10.577637 -10.577644l126.02579 0c2.80542 0 5.4958496 1.1144333 7.479553 3.0981216c1.9837036 1.983696 3.0981445 4.674156 3.0981445 7.4795227l0 42.309288c0 5.841873 -4.735779 10.577637 -10.577698 10.577637l-126.02579 0c-5.8418884 0 -10.577637 -4.7357635 -10.577637 -10.577637z" fill-rule="evenodd"/><path fill="#000000" fill-opacity="0.0" d="m703.6701 114.18122l0 0c0 -5.841873 4.735779 -10.577644 10.577637 -10.577644l126.02582 0c2.805359 0 5.4958496 1.1144333 7.479492 3.0981216c1.9837036 1.983696 3.0981445 4.674156 3.0981445 7.4795227l0 42.309288c0 5.841873 -4.735779 10.577637 -10.577637 10.577637l-126.02582 0c-5.841858 0 -10.577637 -4.7357635 -10.577637 -10.577637z" fill-rule="evenodd"/><path stroke="#595959" stroke-width="1.0" stroke-linejoin="round" stroke-linecap="butt" d="m703.6701 114.18122l0 0c0 -5.841873 4.735779 -10.577644 10.577637 -10.577644l126.02582 0c2.805359 0 5.4958496 1.1144333 7.479492 3.0981216c1.9837036 1.983696 3.0981445 4.674156 3.0981445 7.4795227l0 42.309288c0 5.841873 -4.735779 10.577637 -10.577637 10.577637l-126.02582 0c-5.841858 0 -10.577637 -4.7357635 -10.577637 -10.577637z" fill-rule="evenodd"/><path fill="#000000" fill-opacity="0.0" d="m162.6241 167.06815c0 12.039612 -21.031494 18.05954 -42.062996 24.079224c-21.031494 6.019684 -42.06299 12.039124 -42.06299 24.078262" fill-rule="evenodd"/><path stroke="#595959" stroke-width="1.0" stroke-linejoin="round" stroke-linecap="butt" stroke-dasharray="1.0,3.0" d="m162.6241 167.06815c0 12.039612 -21.031494 18.05954 -42.062996 24.079224c-21.031494 6.019684 -42.06299 12.039124 -42.06299 24.078262" fill-rule="evenodd"/><path fill="#000000" fill-opacity="0.0" d="m469.94147 167.06815c0 12.039612 -97.85828 18.05954 -195.71655 24.079224c-97.85826 6.019684 -195.71652 12.039124 -195.71652 24.078262" fill-rule="evenodd"/><path stroke="#595959" stroke-width="1.0" stroke-linejoin="round" stroke-linecap="butt" stroke-dasharray="1.0,3.0" d="m469.94147 167.06815c0 12.039612 -97.85828 18.05954 -195.71655 24.079224c-97.85826 6.019684 -195.71652 12.039124 -195.71652 24.078262" fill-rule="evenodd"/><path fill="#000000" fill-opacity="0.0" d="m777.2606 167.06815c0 12.039612 -174.69287 18.05954 -349.3858 24.079224c-174.69292 6.019684 -349.38583 12.039124 -349.38583 24.078262" fill-rule="evenodd"/><path stroke="#595959" stroke-width="1.0" stroke-linejoin="round" stroke-linecap="butt" stroke-dasharray="1.0,3.0" d="m777.2606 167.06815c0 12.039612 -174.69287 18.05954 -349.3858 24.079224c-174.69292 6.019684 -349.38583 12.039124 -349.38583 24.078262" fill-rule="evenodd"/><path fill="#000000" fill-opacity="0.0" d="m162.6241 167.06815c0 12.039612 0.01574707 18.05954 0.03149414 24.079224c0.01574707 6.019684 0.03149414 12.039124 0.03149414 24.078262" fill-rule="evenodd"/><path stroke="#595959" stroke-width="1.0" stroke-linejoin="round" stroke-linecap="butt" stroke-dasharray="1.0,3.0" d="m162.6241 167.06815c0 12.039612 0.01574707 18.05954 0.03149414 24.079224c0.01574707 6.019684 0.03149414 12.039124 0.03149414 24.078262" fill-rule="evenodd"/><path fill="#000000" fill-opacity="0.0" d="m469.94147 167.06815c0 12.039612 -55.80316 18.05954 -111.60629 24.079224c-55.80316 6.019684 -111.60631 12.039124 -111.60631 24.078262" fill-rule="evenodd"/><path stroke="#595959" stroke-width="1.0" stroke-linejoin="round" stroke-linecap="butt" stroke-dasharray="1.0,3.0" d="m469.94147 167.06815c0 12.039612 -55.80316 18.05954 -111.60629 24.079224c-55.80316 6.019684 -111.60631 12.039124 -111.60631 24.078262" fill-rule="evenodd"/><path fill="#000000" fill-opacity="0.0" d="m777.2606 167.06815c0 12.039124 -97.85828 18.058578 -195.71649 24.078262c-97.85828 6.019684 -195.71655 12.039612 -195.71655 24.079224" fill-rule="evenodd"/><path stroke="#595959" stroke-width="1.0" stroke-linejoin="round" stroke-linecap="butt" stroke-dasharray="1.0,3.0" d="m777.2606 167.06815c0 12.039124 -97.85828 18.058578 -195.71649 24.078262c-97.85828 6.019684 -195.71655 12.039612 -195.71655 24.079224" fill-rule="evenodd"/><path fill="#000000" fill-opacity="0.0" d="m162.6241 167.06815c0 12.039124 97.85826 18.058578 195.71654 24.078262c97.85828 6.019684 195.71655 12.039612 195.71655 24.079224" fill-rule="evenodd"/><path stroke="#595959" stroke-width="1.0" stroke-linejoin="round" stroke-linecap="butt" stroke-dasharray="1.0,3.0" d="m162.6241 167.06815c0 12.039124 97.85826 18.058578 195.71654 24.078262c97.85828 6.019684 195.71655 12.039612 195.71655 24.079224" fill-rule="evenodd"/><path fill="#000000" fill-opacity="0.0" d="m469.94147 167.06815c0 12.0386505 55.795288 18.057617 111.590576 24.077301c55.795227 6.019684 111.590515 12.040085 111.590515 24.080185" fill-rule="evenodd"/><path stroke="#595959" stroke-width="1.0" stroke-linejoin="round" stroke-linecap="butt" stroke-dasharray="1.0,3.0" d="m469.94147 167.06815c0 12.0386505 55.795288 18.057617 111.590576 24.077301c55.795227 6.019684 111.590515 12.040085 111.590515 24.080185" fill-rule="evenodd"/><path fill="#000000" fill-opacity="0.0" d="m777.2606 167.06815c0 12.0386505 0.01574707 18.057617 0.03149414 24.077301c0.01574707 6.019684 0.03149414 12.040085 0.03149414 24.080185" fill-rule="evenodd"/><path stroke="#595959" stroke-width="1.0" stroke-linejoin="round" stroke-linecap="butt" stroke-dasharray="1.0,3.0" d="m777.2606 167.06815c0 12.0386505 0.01574707 18.057617 0.03149414 24.077301c0.01574707 6.019684 0.03149414 12.040085 0.03149414 24.080185" fill-rule="evenodd"/><path fill="#000000" fill-opacity="0.0" d="m777.2606 167.06815c0 12.0386505 21.031494 18.057617 42.06299 24.077301c21.031494 6.019684 42.06299 12.040085 42.06299 24.080185" fill-rule="evenodd"/><path stroke="#595959" stroke-width="1.0" stroke-linejoin="round" stroke-linecap="butt" stroke-dasharray="1.0,3.0" d="m777.2606 167.06815c0 12.0386505 21.031494 18.057617 42.06299 24.077301c21.031494 6.019684 42.06299 12.040085 42.06299 24.080185" fill-rule="evenodd"/><path fill="#000000" fill-opacity="0.0" d="m777.2606 167.06815c0 12.039124 -76.82672 18.058578 -153.6535 24.078262c-76.82678 6.019684 -153.65356 12.039612 -153.65356 24.079224" fill-rule="evenodd"/><path stroke="#595959" stroke-width="2.0" stroke-linejoin="round" stroke-linecap="butt" d="m777.2606 167.06815c0 12.039124 -76.82672 18.058578 -153.6535 24.078262c-76.82678 6.019684 -153.65356 12.039612 -153.65356 24.079224" fill-rule="evenodd"/><path fill="#000000" fill-opacity="0.0" d="m162.6241 167.06815c0 12.0386505 174.68504 18.057617 349.37006 24.077301c174.68503 6.019684 349.3701 12.040085 349.3701 24.080185" fill-rule="evenodd"/><path stroke="#595959" stroke-width="1.0" stroke-linejoin="round" stroke-linecap="butt" stroke-dasharray="1.0,3.0" d="m162.6241 167.06815c0 12.0386505 174.68504 18.057617 349.37006 24.077301c174.68503 6.019684 349.3701 12.040085 349.3701 24.080185" fill-rule="evenodd"/><path fill="#000000" fill-opacity="0.0" d="m162.6241 167.06815c0 12.039124 76.82677 18.058578 153.65355 24.078262c76.82675 6.019684 153.65353 12.039612 153.65353 24.079224" fill-rule="evenodd"/><path stroke="#595959" stroke-width="2.0" stroke-linejoin="round" stroke-linecap="butt" d="m162.6241 167.06815c0 12.039124 76.82677 18.058578 153.65355 24.078262c76.82675 6.019684 153.65353 12.039612 153.65353 24.079224" fill-rule="evenodd"/><path fill="#000000" fill-opacity="0.0" d="m469.94147 167.06815c0 12.039124 0.01574707 18.058578 0.03149414 24.078262c0.01574707 6.019684 0.03149414 12.039612 0.03149414 24.079224" fill-rule="evenodd"/><path stroke="#595959" stroke-width="2.0" stroke-linejoin="round" stroke-linecap="butt" d="m469.94147 167.06815c0 12.039124 0.01574707 18.058578 0.03149414 24.078262c0.01574707 6.019684 0.03149414 12.039612 0.03149414 24.079224" fill-rule="evenodd"/><path fill="#000000" fill-opacity="0.0" d="m726.5853 374.1659l0 0c0 -15.006195 12.164917 -27.171143 27.171143 -27.171143l123.04352 0c7.206238 0 14.11731 2.862671 19.21289 7.958252c5.095581 5.095581 7.958252 12.006653 7.958252 19.21289l0 108.681335c0 15.006195 -12.164917 27.171143 -27.171143 27.171143l-123.04352 0c-15.006226 0 -27.171143 -12.1649475 -27.171143 -27.171143z" fill-rule="evenodd"/><path stroke="#595959" stroke-width="1.0" stroke-linejoin="round" stroke-linecap="butt" d="m726.5853 374.1659l0 0c0 -15.006195 12.164917 -27.171143 27.171143 -27.171143l123.04352 0c7.206238 0 14.11731 2.862671 19.21289 7.958252c5.095581 5.095581 7.958252 12.006653 7.958252 19.21289l0 108.681335c0 15.006195 -12.164917 27.171143 -27.171143 27.171143l-123.04352 0c-15.006226 0 -27.171143 -12.1649475 -27.171143 -27.171143z" fill-rule="evenodd"/><path fill="#595959" d="m747.46533 367.22345l5.796875 0l0 2.203125l-8.53125 0l0 -13.265625l2.734375 0l0 11.0625zm11.727417 2.390625q-2.171875 0 -3.53125 -1.328125q-1.359375 -1.34375 -1.359375 -3.546875l0 -0.265625q0 -1.484375 0.5625 -2.640625q0.578125 -1.171875 1.625 -1.796875q1.0625 -0.640625 2.40625 -0.640625q2.03125 0 3.1875 1.28125q1.15625 1.265625 1.15625 3.609375l0 1.0625l-6.265625 0q0.125 0.96875 0.765625 1.5625q0.640625 0.578125 1.625 0.578125q1.515625 0 2.375 -1.109375l1.296875 1.453125q-0.59375 0.84375 -1.609375 1.3125q-1.0 0.46875 -2.234375 0.46875zm-0.296875 -8.09375q-0.78125 0 -1.28125 0.53125q-0.484375 0.53125 -0.609375 1.515625l3.65625 0l0 -0.21875q-0.015625 -0.875 -0.484375 -1.34375q-0.453125 -0.484375 -1.28125 -0.484375zm5.4592285 2.90625q0 -2.265625 1.078125 -3.640625q1.078125 -1.390625 2.921875 -1.390625q1.609375 0 2.515625 1.109375l0.109375 -0.9375l2.390625 0l0 9.53125q0 1.296875 -0.59375 2.25q-0.578125 0.953125 -1.65625 1.453125q-1.0625 0.5 -2.484375 0.5q-1.09375 0 -2.125 -0.4375q-1.015625 -0.421875 -1.546875 -1.109375l1.15625 -1.59375q0.984375 1.09375 2.390625 1.09375q1.046875 0 1.625 -0.5625q0.59375 -0.5625 0.59375 -1.578125l0 -0.53125q-0.921875 1.03125 -2.40625 1.03125q-1.765625 0 -2.875 -1.390625q-1.09375 -1.390625 -1.09375 -3.6875l0 -0.109375zm2.640625 0.1875q0 1.34375 0.53125 2.109375q0.546875 0.75 1.484375 0.75q1.203125 0 1.71875 -0.890625l0 -4.15625q-0.53125 -0.890625 -1.703125 -0.890625q-0.953125 0 -1.5 0.78125q-0.53125 0.765625 -0.53125 2.296875zm12.930237 5.0q-2.171875 0 -3.53125 -1.328125q-1.359375 -1.34375 -1.359375 -3.546875l0 -0.265625q0 -1.484375 0.5625 -2.640625q0.578125 -1.171875 1.625 -1.796875q1.0625 -0.640625 2.40625 -0.640625q2.03125 0 3.1875 1.28125q1.15625 1.265625 1.15625 3.609375l0 1.0625l-6.265625 0q0.125 0.96875 0.765625 1.5625q0.640625 0.578125 1.625 0.578125q1.515625 0 2.375 -1.109375l1.296875 1.453125q-0.59375 0.84375 -1.609375 1.3125q-1.0 0.46875 -2.234375 0.46875zm-0.296875 -8.09375q-0.78125 0 -1.28125 0.53125q-0.484375 0.53125 -0.609375 1.515625l3.65625 0l0 -0.21875q-0.015625 -0.875 -0.484375 -1.34375q-0.453125 -0.484375 -1.28125 -0.484375zm8.2717285 -1.953125l0.078125 1.140625q1.0625 -1.3125 2.828125 -1.3125q1.578125 0 2.34375 0.921875q0.765625 0.90625 0.78125 2.734375l0 6.375l-2.640625 0l0 -6.296875q0 -0.84375 -0.359375 -1.21875q-0.359375 -0.375 -1.21875 -0.375q-1.109375 0 -1.65625 0.9375l0 6.953125l-2.640625 0l0 -9.859375l2.484375 0zm7.6048584 4.859375q0 -2.3125 1.03125 -3.671875q1.046875 -1.359375 2.84375 -1.359375q1.4375 0 2.375 1.0625l0 -5.03125l2.640625 0l0 14.0l-2.375 0l-0.125 -1.046875q-0.984375 1.234375 -2.53125 1.234375q-1.75 0 -2.8125 -1.375q-1.046875 -1.375 -1.046875 -3.8125zm2.640625 0.1875q0 1.390625 0.484375 2.125q0.484375 0.734375 1.40625 0.734375q1.21875 0 1.71875 -1.03125l0 -3.890625q-0.5 -1.015625 -1.703125 -1.015625q-1.90625 0 -1.90625 3.078125z" fill-rule="nonzero"/><path fill="#595959" d="m748.9966 385.52032q-2.25 -0.65625 -3.28125 -1.59375q-1.03125 -0.9375 -1.03125 -2.328125q0 -1.5625 1.25 -2.59375q1.265625 -1.03125 3.265625 -1.03125q1.359375 0 2.4375 0.53125q1.078125 0.53125 1.65625 1.46875q0.59375 0.921875 0.59375 2.03125l-1.765625 0q0 -1.203125 -0.765625 -1.890625q-0.765625 -0.6875 -2.15625 -0.6875q-1.296875 0 -2.015625 0.5625q-0.71875 0.5625 -0.71875 1.578125q0 0.8125 0.6875 1.375q0.6875 0.5625 2.328125 1.03125q1.65625 0.453125 2.59375 1.015625q0.9375 0.5625 1.375 1.3125q0.453125 0.75 0.453125 1.75q0 1.609375 -1.25 2.59375q-1.25 0.96875 -3.359375 0.96875q-1.375 0 -2.5625 -0.515625q-1.171875 -0.53125 -1.8125 -1.4375q-0.640625 -0.921875 -0.640625 -2.078125l1.75 0q0 1.203125 0.890625 1.90625q0.890625 0.6875 2.375 0.6875q1.375 0 2.109375 -0.5625q0.75 -0.5625 0.75 -1.53125q0 -0.984375 -0.6875 -1.515625q-0.6875 -0.53125 -2.46875 -1.046875zm12.974304 4.9375q-0.984375 1.15625 -2.890625 1.15625q-1.578125 0 -2.40625 -0.921875q-0.8125 -0.921875 -0.828125 -2.703125l0 -6.421875l1.6875 0l0 6.375q0 2.234375 1.828125 2.234375q1.921875 0 2.5625 -1.4375l0 -7.171875l1.6875 0l0 9.859375l-1.609375 0l-0.03125 -0.96875zm12.550232 -3.84375q0 2.25 -1.046875 3.625q-1.03125 1.375 -2.78125 1.375q-1.875 0 -2.890625 -1.328125l-0.078125 1.140625l-1.546875 0l0 -14.0l1.671875 0l0 5.234375q1.03125 -1.265625 2.8125 -1.265625q1.796875 0 2.828125 1.359375q1.03125 1.34375 1.03125 3.703125l0 0.15625zm-1.6875 -0.203125q0 -1.71875 -0.671875 -2.65625q-0.65625 -0.9375 -1.90625 -0.9375q-1.671875 0 -2.40625 1.546875l0 4.265625q0.78125 1.546875 2.421875 1.546875q1.21875 0 1.890625 -0.9375q0.671875 -0.9375 0.671875 -2.828125zm5.404297 -4.84375l0.046875 1.234375q1.125 -1.40625 2.953125 -1.40625q3.125 0 3.15625 3.515625l0 6.515625l-1.6875 0l0 -6.515625q-0.015625 -1.078125 -0.5 -1.578125q-0.46875 -0.515625 -1.484375 -0.515625q-0.8125 0 -1.4375 0.4375q-0.609375 0.4375 -0.96875 1.15625l0 7.015625l-1.671875 0l0 -9.859375l1.59375 0zm12.778137 10.046875q-2.0 0 -3.265625 -1.3125q-1.25 -1.328125 -1.25 -3.53125l0 -0.3125q0 -1.46875 0.5625 -2.609375q0.5625 -1.15625 1.5625 -1.796875q1.015625 -0.65625 2.1875 -0.65625q1.921875 0 2.984375 1.265625q1.0625 1.265625 1.0625 3.625l0 0.6875l-6.671875 0q0.03125 1.46875 0.84375 2.375q0.828125 0.890625 2.078125 0.890625q0.890625 0 1.515625 -0.359375q0.625 -0.375 1.078125 -0.96875l1.03125 0.796875q-1.234375 1.90625 -3.71875 1.90625zm-0.203125 -8.84375q-1.015625 0 -1.71875 0.75q-0.6875 0.734375 -0.84375 2.078125l4.9375 0l0 -0.125q-0.078125 -1.28125 -0.703125 -1.984375q-0.609375 -0.71875 -1.671875 -0.71875zm8.290039 -3.59375l0 2.390625l1.84375 0l0 1.3125l-1.84375 0l0 6.109375q0 0.59375 0.234375 0.890625q0.25 0.296875 0.84375 0.296875q0.296875 0 0.8125 -0.109375l0 1.359375q-0.671875 0.1875 -1.296875 0.1875q-1.125 0 -1.703125 -0.6875q-0.578125 -0.6875 -0.578125 -1.9375l0 -6.109375l-1.796875 0l0 -1.3125l1.796875 0l0 -2.390625l1.6875 0zm12.531738 9.921875l1.890625 -7.53125l1.6875 0l-2.859375 9.859375l-1.375 0l-2.390625 -7.46875l-2.328125 7.46875l-1.375 0l-2.859375 -9.859375l1.671875 0l1.953125 7.375l2.28125 -7.375l1.359375 0l2.34375 7.53125zm4.8476562 -2.6875q0 -1.453125 0.5625 -2.609375q0.578125 -1.15625 1.59375 -1.78125q1.015625 -0.625 2.3125 -0.625q2.015625 0 3.25 1.390625q1.25 1.390625 1.25 3.703125l0 0.125q0 1.4375 -0.546875 2.578125q-0.546875 1.140625 -1.578125 1.78125q-1.015625 0.640625 -2.359375 0.640625q-2.0 0 -3.25 -1.390625q-1.234375 -1.40625 -1.234375 -3.703125l0 -0.109375zm1.6875 0.203125q0 1.640625 0.765625 2.640625q0.765625 0.984375 2.03125 0.984375q1.296875 0 2.046875 -1.0q0.75 -1.015625 0.75 -2.828125q0 -1.625 -0.765625 -2.625q-0.765625 -1.015625 -2.046875 -1.015625q-1.25 0 -2.015625 1.0q-0.765625 0.984375 -0.765625 2.84375zm14.171143 -3.53125q-0.390625 -0.0625 -0.84375 -0.0625q-1.65625 0 -2.25 1.40625l0 7.0l-1.671875 0l0 -9.859375l1.640625 0l0.015625 1.140625q0.828125 -1.3125 2.359375 -1.3125q0.484375 0 0.75 0.125l0 1.5625zm4.297241 3.78125l-1.0625 1.09375l0 3.46875l-1.6875 0l0 -14.0l1.6875 0l0 8.46875l0.90625 -1.078125l3.0625 -3.25l2.046875 0l-3.828125 4.125l4.28125 5.734375l-1.984375 0l-3.421875 -4.5625zm12.440063 1.953125q0 -0.6875 -0.515625 -1.0625q-0.515625 -0.375 -1.796875 -0.640625q-1.28125 -0.28125 -2.03125 -0.65625q-0.75 -0.390625 -1.109375 -0.921875q-0.359375 -0.53125 -0.359375 -1.265625q0 -1.203125 1.015625 -2.03125q1.03125 -0.84375 2.625 -0.84375q1.671875 0 2.71875 0.859375q1.046875 0.859375 1.046875 2.21875l-1.6875 0q0 -0.703125 -0.59375 -1.203125q-0.59375 -0.5 -1.484375 -0.5q-0.921875 0 -1.4375 0.40625q-0.515625 0.390625 -0.515625 1.046875q0 0.609375 0.484375 0.921875q0.484375 0.3125 1.734375 0.59375q1.265625 0.28125 2.046875 0.671875q0.78125 0.390625 1.15625 0.9375q0.390625 0.546875 0.390625 1.34375q0 1.328125 -1.0625 2.125q-1.046875 0.796875 -2.734375 0.796875q-1.1875 0 -2.109375 -0.421875q-0.90625 -0.421875 -1.421875 -1.171875q-0.515625 -0.75 -0.515625 -1.625l1.6875 0q0.046875 0.84375 0.671875 1.34375q0.640625 0.5 1.6875 0.5q0.953125 0 1.53125 -0.390625q0.578125 -0.390625 0.578125 -1.03125zm3.916504 1.71875q0 -0.4375 0.25 -0.71875q0.265625 -0.296875 0.78125 -0.296875q0.53125 0 0.796875 0.296875q0.265625 0.28125 0.265625 0.71875q0 0.421875 -0.265625 0.703125q-0.265625 0.28125 -0.796875 0.28125q-0.515625 0 -0.78125 -0.28125q-0.25 -0.28125 -0.25 -0.703125zm0 -8.0q0 -0.4375 0.25 -0.71875q0.265625 -0.296875 0.78125 -0.296875q0.53125 0 0.796875 0.296875q0.265625 0.28125 0.265625 0.71875q0 0.421875 -0.265625 0.703125q-0.265625 0.28125 -0.796875 0.28125q-0.515625 0 -0.78125 -0.28125q-0.25 -0.28125 -0.25 -0.703125z" fill-rule="nonzero"/><path fill="#595959" d="m752.5747 451.30154l-5.75 0l0 4.6875l6.6875 0l0 1.4375l-8.421875 0l0 -13.265625l8.328125 0l0 1.4375l-6.59375 0l0 4.265625l5.75 0l0 1.4375zm4.4472046 -3.734375l0.046875 1.234375q1.125 -1.40625 2.953125 -1.40625q3.125 0 3.15625 3.515625l0 6.515625l-1.6875 0l0 -6.515625q-0.015625 -1.078125 -0.5 -1.578125q-0.46875 -0.515625 -1.484375 -0.515625q-0.8125 0 -1.4375 0.4375q-0.609375 0.4375 -0.96875 1.15625l0 7.015625l-1.671875 0l0 -9.859375l1.59375 0zm14.434387 7.25q0 -0.6875 -0.515625 -1.0625q-0.515625 -0.375 -1.796875 -0.640625q-1.28125 -0.28125 -2.03125 -0.65625q-0.75 -0.390625 -1.109375 -0.921875q-0.359375 -0.53125 -0.359375 -1.265625q0 -1.203125 1.015625 -2.03125q1.03125 -0.84375 2.625 -0.84375q1.671875 0 2.71875 0.859375q1.046875 0.859375 1.046875 2.21875l-1.6875 0q0 -0.703125 -0.59375 -1.203125q-0.59375 -0.5 -1.484375 -0.5q-0.921875 0 -1.4375 0.40625q-0.515625 0.390625 -0.515625 1.046875q0 0.609375 0.484375 0.921875q0.484375 0.3125 1.734375 0.59375q1.265625 0.28125 2.046875 0.671875q0.78125 0.390625 1.15625 0.9375q0.390625 0.546875 0.390625 1.34375q0 1.328125 -1.0625 2.125q-1.046875 0.796875 -2.734375 0.796875q-1.1875 0 -2.109375 -0.421875q-0.90625 -0.421875 -1.421875 -1.171875q-0.515625 -0.75 -0.515625 -1.625l1.6875 0q0.046875 0.84375 0.671875 1.34375q0.640625 0.5 1.6875 0.5q0.953125 0 1.53125 -0.390625q0.578125 -0.390625 0.578125 -1.03125zm7.963379 2.796875q-2.0 0 -3.265625 -1.3125q-1.25 -1.328125 -1.25 -3.53125l0 -0.3125q0 -1.46875 0.5625 -2.609375q0.5625 -1.15625 1.5625 -1.796875q1.015625 -0.65625 2.1875 -0.65625q1.921875 0 2.984375 1.265625q1.0625 1.265625 1.0625 3.625l0 0.6875l-6.671875 0q0.03125 1.46875 0.84375 2.375q0.828125 0.890625 2.078125 0.890625q0.890625 0 1.515625 -0.359375q0.625 -0.375 1.078125 -0.96875l1.03125 0.796875q-1.234375 1.90625 -3.71875 1.90625zm-0.203125 -8.84375q-1.015625 0 -1.71875 0.75q-0.6875 0.734375 -0.84375 2.078125l4.9375 0l0 -0.125q-0.078125 -1.28125 -0.703125 -1.984375q-0.609375 -0.71875 -1.671875 -0.71875zm7.586914 -1.203125l0.046875 1.09375q1.078125 -1.265625 2.921875 -1.265625q2.0625 0 2.8125 1.578125q0.5 -0.71875 1.28125 -1.140625q0.796875 -0.4375 1.859375 -0.4375q3.25 0 3.296875 3.421875l0 6.609375l-1.671875 0l0 -6.5q0 -1.0625 -0.484375 -1.578125q-0.484375 -0.53125 -1.625 -0.53125q-0.9375 0 -1.5625 0.5625q-0.609375 0.5625 -0.71875 1.5l0 6.546875l-1.6875 0l0 -6.453125q0 -2.15625 -2.109375 -2.15625q-1.65625 0 -2.265625 1.40625l0 7.203125l-1.6875 0l0 -9.859375l1.59375 0zm23.117188 5.046875q0 2.25 -1.046875 3.625q-1.03125 1.375 -2.78125 1.375q-1.875 0 -2.890625 -1.328125l-0.078125 1.140625l-1.546875 0l0 -14.0l1.671875 0l0 5.234375q1.03125 -1.265625 2.8125 -1.265625q1.796875 0 2.828125 1.359375q1.03125 1.34375 1.03125 3.703125l0 0.15625zm-1.6875 -0.203125q0 -1.71875 -0.671875 -2.65625q-0.65625 -0.9375 -1.90625 -0.9375q-1.671875 0 -2.40625 1.546875l0 4.265625q0.78125 1.546875 2.421875 1.546875q1.21875 0 1.890625 -0.9375q0.671875 -0.9375 0.671875 -2.828125zm5.638672 5.015625l-1.6875 0l0 -14.0l1.6875 0l0 14.0zm6.777405 0.1875q-2.0 0 -3.265625 -1.3125q-1.25 -1.328125 -1.25 -3.53125l0 -0.3125q0 -1.46875 0.5625 -2.609375q0.5625 -1.15625 1.5625 -1.796875q1.015625 -0.65625 2.1875 -0.65625q1.921875 0 2.984375 1.265625q1.0625 1.265625 1.0625 3.625l0 0.6875l-6.671875 0q0.03125 1.46875 0.84375 2.375q0.828125 0.890625 2.078125 0.890625q0.890625 0 1.515625 -0.359375q0.625 -0.375 1.078125 -0.96875l1.03125 0.796875q-1.234375 1.90625 -3.71875 1.90625zm-0.203125 -8.84375q-1.015625 0 -1.71875 0.75q-0.6875 0.734375 -0.84375 2.078125l4.9375 0l0 -0.125q-0.078125 -1.28125 -0.703125 -1.984375q-0.609375 -0.71875 -1.671875 -0.71875zm6.040039 7.765625q0 -0.4375 0.25 -0.71875q0.265625 -0.296875 0.78125 -0.296875q0.53125 0 0.796875 0.296875q0.265625 0.28125 0.265625 0.71875q0 0.421875 -0.265625 0.703125q-0.265625 0.28125 -0.796875 0.28125q-0.515625 0 -0.78125 -0.28125q-0.25 -0.28125 -0.25 -0.703125zm0 -8.0q0 -0.4375 0.25 -0.71875q0.265625 -0.296875 0.78125 -0.296875q0.53125 0 0.796875 0.296875q0.265625 0.28125 0.265625 0.71875q0 0.421875 -0.265625 0.703125q-0.265625 0.28125 -0.796875 0.28125q-0.515625 0 -0.78125 -0.28125q-0.25 -0.28125 -0.25 -0.703125z" fill-rule="nonzero"/><path fill="#cfe2f3" d="m744.63257 407.88724l0 0c0 -2.8006287 2.2703247 -5.0709534 5.070923 -5.0709534l20.283264 0l0 0c1.3449097 0 2.6347656 0.5342407 3.5857544 1.4852295c0.95098877 0.95098877 1.4852295 2.2408142 1.4852295 3.5857239l0 20.283264c0 2.8006287 -2.2703247 5.0709534 -5.070984 5.0709534l-20.283264 0c-2.8005981 0 -5.070923 -2.2703247 -5.070923 -5.0709534z" fill-rule="evenodd"/><path stroke="#595959" stroke-width="1.0" stroke-linejoin="round" stroke-linecap="butt" d="m744.63257 407.88724l0 0c0 -2.8006287 2.2703247 -5.0709534 5.070923 -5.0709534l20.283264 0l0 0c1.3449097 0 2.6347656 0.5342407 3.5857544 1.4852295c0.95098877 0.95098877 1.4852295 2.2408142 1.4852295 3.5857239l0 20.283264c0 2.8006287 -2.2703247 5.0709534 -5.070984 5.0709534l-20.283264 0c-2.8005981 0 -5.070923 -2.2703247 -5.070923 -5.0709534z" fill-rule="evenodd"/><path fill="#f4cccc" d="m824.3123 407.88724l0 0c0 -2.8006287 2.2703857 -5.0709534 5.070984 -5.0709534l20.283264 0l0 0c1.3449097 0 2.6347046 0.5342407 3.5856934 1.4852295c0.95098877 0.95098877 1.4852905 2.2408142 1.4852905 3.5857239l0 20.283264c0 2.8006287 -2.2703857 5.0709534 -5.070984 5.0709534l-20.283264 0c-2.8005981 0 -5.070984 -2.2703247 -5.070984 -5.0709534z" fill-rule="evenodd"/><path stroke="#595959" stroke-width="1.0" stroke-linejoin="round" stroke-linecap="butt" d="m824.3123 407.88724l0 0c0 -2.8006287 2.2703857 -5.0709534 5.070984 -5.0709534l20.283264 0l0 0c1.3449097 0 2.6347046 0.5342407 3.5856934 1.4852295c0.95098877 0.95098877 1.4852905 2.2408142 1.4852905 3.5857239l0 20.283264c0 2.8006287 -2.2703857 5.0709534 -5.070984 5.0709534l-20.283264 0c-2.8005981 0 -5.070984 -2.2703247 -5.070984 -5.0709534z" fill-rule="evenodd"/><path fill="#fff2cc" d="m784.4711 407.88724l0 0c0 -2.8006287 2.2703247 -5.0709534 5.070984 -5.0709534l20.283264 0l0 0c1.3449097 0 2.6347046 0.5342407 3.5856934 1.4852295c0.95098877 0.95098877 1.4852295 2.2408142 1.4852295 3.5857239l0 20.283264c0 2.8006287 -2.2703247 5.0709534 -5.070923 5.0709534l-20.283264 0c-2.8006592 0 -5.070984 -2.2703247 -5.070984 -5.0709534z" fill-rule="evenodd"/><path stroke="#595959" stroke-width="1.0" stroke-linejoin="round" stroke-linecap="butt" d="m784.4711 407.88724l0 0c0 -2.8006287 2.2703247 -5.0709534 5.070984 -5.0709534l20.283264 0l0 0c1.3449097 0 2.6347046 0.5342407 3.5856934 1.4852295c0.95098877 0.95098877 1.4852295 2.2408142 1.4852295 3.5857239l0 20.283264c0 2.8006287 -2.2703247 5.0709534 -5.070923 5.0709534l-20.283264 0c-2.8006592 0 -5.070984 -2.2703247 -5.070984 -5.0709534z" fill-rule="evenodd"/><path fill="#d9ead3" d="m744.63257 470.1996l0 0c0 -2.8006287 2.2703247 -5.070984 5.070923 -5.070984l20.283264 0l0 0c1.3449097 0 2.6347656 0.53427124 3.5857544 1.48526c0.95098877 0.95098877 1.4852295 2.2408142 1.4852295 3.5857239l0 20.283264c0 2.8005981 -2.2703247 5.0709534 -5.070984 5.0709534l-20.283264 0c-2.8005981 0 -5.070923 -2.2703552 -5.070923 -5.0709534z" fill-rule="evenodd"/><path stroke="#595959" stroke-width="1.0" stroke-linejoin="round" stroke-linecap="butt" d="m744.63257 470.1996l0 0c0 -2.8006287 2.2703247 -5.070984 5.070923 -5.070984l20.283264 0l0 0c1.3449097 0 2.6347656 0.53427124 3.5857544 1.48526c0.95098877 0.95098877 1.4852295 2.2408142 1.4852295 3.5857239l0 20.283264c0 2.8005981 -2.2703247 5.0709534 -5.070984 5.0709534l-20.283264 0c-2.8005981 0 -5.070923 -2.2703552 -5.070923 -5.0709534z" fill-rule="evenodd"/></g></svg>