<svg version="1.1" viewBox="0.0 0.0 960.0 540.0" fill="none" stroke="none" stroke-linecap="square" stroke-miterlimit="10" xmlns:xlink="http://www.w3.org/1999/xlink" xmlns="http://www.w3.org/2000/svg"><clipPath id="g4d271b9ccd_0_175.0"><path d="m0 0l960.0 0l0 540.0l-960.0 0l0 -540.0z" clip-rule="nonzero"/></clipPath><g clip-path="url(#g4d271b9ccd_0_175.0)"><path fill="#000000" fill-opacity="0.0" d="m0 0l960.0 0l0 540.0l-960.0 0z" fill-rule="evenodd"/><path fill="#d9ead3" d="m172.89764 157.48923l0 0c0 -28.84404 23.38272 -52.22676 52.22676 -52.22676l509.75122 0c13.851379 0 27.135498 5.502449 36.92987 15.296867c9.794434 9.794411 15.296875 23.078499 15.296875 36.929893l0 208.90082c0 28.844025 -23.38269 52.226746 -52.226746 52.226746l-509.75122 0l0 0c-28.84404 0 -52.22676 -23.38272 -52.22676 -52.226746z" fill-rule="evenodd"/><path stroke="#595959" stroke-width="1.0" stroke-linejoin="round" stroke-linecap="butt" d="m172.89764 157.48923l0 0c0 -28.84404 23.38272 -52.22676 52.22676 -52.22676l509.75122 0c13.851379 0 27.135498 5.502449 36.92987 15.296867c9.794434 9.794411 15.296875 23.078499 15.296875 36.929893l0 208.90082c0 28.844025 -23.38269 52.226746 -52.226746 52.226746l-509.75122 0l0 0c-28.84404 0 -52.22676 -23.38272 -52.22676 -52.226746z" fill-rule="evenodd"/><path fill="#cfe2f3" d="m212.05774 353.71143l0 0c0 -4.258911 3.45253 -7.711426 7.711441 -7.711426l518.5929 0c2.045166 0 4.006653 0.81243896 5.45282 2.2586365c1.446167 1.446167 2.258606 3.4075928 2.258606 5.4527893l0 30.844849c0 4.258911 -3.4525146 7.7114563 -7.711426 7.7114563l-518.5929 0c-4.258911 0 -7.711441 -3.4525452 -7.711441 -7.7114563z" fill-rule="evenodd"/><path stroke="#595959" stroke-width="1.0" stroke-linejoin="round" stroke-linecap="butt" d="m212.05774 353.71143l0 0c0 -4.258911 3.45253 -7.711426 7.711441 -7.711426l518.5929 0c2.045166 0 4.006653 0.81243896 5.45282 2.2586365c1.446167 1.446167 2.258606 3.4075928 2.258606 5.4527893l0 30.844849c0 4.258911 -3.4525146 7.7114563 -7.711426 7.7114563l-518.5929 0c-4.258911 0 -7.711441 -3.4525452 -7.711441 -7.7114563z" fill-rule="evenodd"/><path fill="#434343" d="m397.84296 373.18948q0 -1.03125 -0.53125 -1.5625q-0.53125 -0.546875 -1.9375 -1.109375q-2.5625 -0.984375 -3.6875 -2.28125q-1.125 -1.3125 -1.125 -3.09375q0 -2.15625 1.515625 -3.453125q1.53125 -1.3125 3.890625 -1.3125q1.578125 0 2.796875 0.671875q1.234375 0.65625 1.890625 1.859375q0.671875 1.203125 0.671875 2.734375l-3.4375 0q0 -1.1875 -0.515625 -1.8125q-0.5 -0.625 -1.46875 -0.625q-0.890625 0 -1.40625 0.53125q-0.5 0.53125 -0.5 1.4375q0 0.703125 0.5625 1.265625q0.5625 0.5625 2.0 1.171875q2.484375 0.90625 3.609375 2.21875q1.140625 1.3125 1.140625 3.34375q0 2.21875 -1.421875 3.484375q-1.40625 1.25 -3.84375 1.25q-1.65625 0 -3.015625 -0.671875q-1.359375 -0.6875 -2.125 -1.953125q-0.765625 -1.265625 -0.765625 -2.984375l3.453125 0q0 1.46875 0.5625 2.140625q0.578125 0.671875 1.890625 0.671875q1.796875 0 1.796875 -1.921875zm8.8203125 -7.078125q1.078125 -1.359375 2.65625 -1.359375q1.734375 0 2.625 1.21875q0.90625 1.21875 0.921875 3.640625l0 8.0625l-3.328125 0l0 -8.03125q0 -1.109375 -0.34375 -1.609375q-0.34375 -0.5 -1.125 -0.5q-0.890625 0 -1.40625 0.828125l0 9.3125l-3.3125 0l0 -18.0l3.3125 0l0 6.4375zm14.609375 11.5625q-0.140625 -0.296875 -0.28125 -0.984375q-0.890625 1.21875 -2.421875 1.21875q-1.59375 0 -2.640625 -1.046875q-1.046875 -1.0625 -1.046875 -2.734375q0 -2.0 1.265625 -3.078125q1.28125 -1.09375 3.671875 -1.125l1.0 0l0 -1.015625q0 -0.859375 -0.296875 -1.203125q-0.28125 -0.359375 -0.84375 -0.359375q-1.25 0 -1.25 1.453125l-3.3125 0q0 -1.75 1.3125 -2.890625q1.328125 -1.15625 3.34375 -1.15625q2.078125 0 3.21875 1.09375q1.15625 1.078125 1.15625 3.09375l0 5.96875q0.015625 1.640625 0.46875 2.5625l0 0.203125l-3.34375 0zm-1.953125 -2.375q0.546875 0 0.921875 -0.21875q0.390625 -0.21875 0.578125 -0.53125l0 -2.625l-0.796875 0q-0.84375 0 -1.328125 0.546875q-0.484375 0.53125 -0.484375 1.421875q0 1.40625 1.109375 1.40625zm13.484375 -7.109375l-1.109375 -0.09375q-1.359375 0 -1.828125 1.203125l0 8.375l-3.328125 0l0 -12.6875l3.125 0l0.09375 1.375q0.78125 -1.609375 2.171875 -1.609375q0.5625 0 0.90625 0.15625l-0.03125 3.28125zm6.8164062 9.71875q-2.546875 0 -3.984375 -1.515625q-1.421875 -1.53125 -1.421875 -4.375l0 -1.0q0 -3.0 1.3125 -4.625q1.3125 -1.640625 3.75 -1.640625q2.390625 0 3.59375 1.53125q1.21875 1.53125 1.234375 4.53125l0 1.625l-6.59375 0q0.078125 1.40625 0.625 2.0625q0.546875 0.65625 1.703125 0.65625q1.65625 0 2.765625 -1.140625l1.3125 2.0q-0.609375 0.84375 -1.78125 1.375q-1.15625 0.515625 -2.515625 0.515625zm-2.078125 -7.78125l3.3125 0l0 -0.3125q-0.03125 -1.125 -0.390625 -1.703125q-0.34375 -0.59375 -1.21875 -0.59375q-0.859375 0 -1.25 0.625q-0.390625 0.609375 -0.453125 1.984375zm8.0 0.8125q0 -3.109375 1.046875 -4.640625q1.0625 -1.546875 3.078125 -1.546875q1.46875 0 2.4375 1.265625l0 -6.34375l3.34375 0l0 18.0l-3.015625 0l-0.15625 -1.296875q-1.015625 1.53125 -2.625 1.53125q-1.984375 0 -3.046875 -1.515625q-1.046875 -1.53125 -1.0625 -4.484375l0 -0.96875zm3.328125 0.84375q0 1.875 0.390625 2.625q0.40625 0.734375 1.359375 0.734375q0.984375 0 1.484375 -0.875l0 -5.796875q-0.5 -0.9375 -1.484375 -0.9375q-0.90625 0 -1.328125 0.75q-0.421875 0.734375 -0.421875 2.609375l0 0.890625zm23.519531 -1.5l-5.375 0l0 4.53125l6.359375 0l0 2.859375l-9.796875 0l0 -17.0625l9.765625 0l0 2.875l-6.328125 0l0 4.03125l5.375 0l0 2.765625zm5.9179688 -5.296875l0.09375 1.171875q1.109375 -1.40625 2.9375 -1.40625q1.90625 0 2.6875 1.71875q1.09375 -1.71875 3.109375 -1.71875q3.328125 0 3.40625 4.609375l0 8.3125l-3.3125 0l0 -8.09375q0 -1.109375 -0.3125 -1.578125q-0.296875 -0.46875 -1.03125 -0.46875q-0.921875 0 -1.375 1.140625l0.015625 0.390625l0 8.609375l-3.3125 0l0 -8.078125q0 -1.09375 -0.296875 -1.578125q-0.296875 -0.484375 -1.046875 -0.484375q-0.84375 0 -1.359375 0.921875l0 9.21875l-3.3125 0l0 -12.6875l3.109375 0zm24.566406 6.75q0 3.09375 -0.984375 4.640625q-0.984375 1.53125 -3.09375 1.53125q-1.640625 0 -2.640625 -1.484375l-0.109375 1.25l-3.0625 0l0 -18.0l3.328125 0l0 6.34375q0.9375 -1.265625 2.46875 -1.265625q2.109375 0 3.09375 1.53125q0.984375 1.53125 1.0 4.484375l0 0.96875zm-3.3125 -0.828125q0 -2.0 -0.390625 -2.6875q-0.375 -0.6875 -1.34375 -0.6875q-1.046875 0 -1.515625 0.953125l0 5.78125q0.4375 0.890625 1.546875 0.890625q0.9375 0 1.3125 -0.625q0.375 -0.625 0.390625 -2.421875l0 -1.203125zm10.4296875 7.0q-2.546875 0 -3.984375 -1.515625q-1.421875 -1.53125 -1.421875 -4.375l0 -1.0q0 -3.0 1.3125 -4.625q1.3125 -1.640625 3.75 -1.640625q2.390625 0 3.59375 1.53125q1.21875 1.53125 1.234375 4.53125l0 1.625l-6.59375 0q0.078125 1.40625 0.625 2.0625q0.546875 0.65625 1.703125 0.65625q1.65625 0 2.765625 -1.140625l1.3125 2.0q-0.609375 0.84375 -1.78125 1.375q-1.15625 0.515625 -2.515625 0.515625zm-2.078125 -7.78125l3.3125 0l0 -0.3125q-0.03125 -1.125 -0.390625 -1.703125q-0.34375 -0.59375 -1.21875 -0.59375q-0.859375 0 -1.25 0.625q-0.390625 0.609375 -0.453125 1.984375zm8.0 0.8125q0 -3.109375 1.046875 -4.640625q1.0625 -1.546875 3.078125 -1.546875q1.46875 0 2.4375 1.265625l0 -6.34375l3.34375 0l0 18.0l-3.015625 0l-0.15625 -1.296875q-1.015625 1.53125 -2.625 1.53125q-1.984375 0 -3.046875 -1.515625q-1.046875 -1.53125 -1.0625 -4.484375l0 -0.96875zm3.328125 0.84375q0 1.875 0.390625 2.625q0.40625 0.734375 1.359375 0.734375q0.984375 0 1.484375 -0.875l0 -5.796875q-0.5 -0.9375 -1.484375 -0.9375q-0.90625 0 -1.328125 0.75q-0.421875 0.734375 -0.421875 2.609375l0 0.890625zm8.566406 -0.84375q0 -3.109375 1.046875 -4.640625q1.0625 -1.546875 3.078125 -1.546875q1.46875 0 2.4375 1.265625l0 -6.34375l3.34375 0l0 18.0l-3.015625 0l-0.15625 -1.296875q-1.015625 1.53125 -2.625 1.53125q-1.984375 0 -3.046875 -1.515625q-1.046875 -1.53125 -1.0625 -4.484375l0 -0.96875zm3.328125 0.84375q0 1.875 0.390625 2.625q0.40625 0.734375 1.359375 0.734375q0.984375 0 1.484375 -0.875l0 -5.796875q-0.5 -0.9375 -1.484375 -0.9375q-0.90625 0 -1.328125 0.75q-0.421875 0.734375 -0.421875 2.609375l0 0.890625zm12.488281 5.890625l-3.328125 0l0 -12.6875l3.328125 0l0 12.6875zm-3.484375 -15.96875q0 -0.765625 0.484375 -1.25q0.5 -0.5 1.3125 -0.5q0.828125 0 1.3125 0.5q0.5 0.484375 0.5 1.25q0 0.765625 -0.484375 1.28125q-0.484375 0.5 -1.3125 0.5q-0.828125 0 -1.328125 -0.5q-0.484375 -0.515625 -0.484375 -1.28125zm9.09375 3.28125l0.09375 1.265625q1.125 -1.5 2.9375 -1.5q3.265625 0 3.359375 4.59375l0 8.328125l-3.328125 0l0 -8.09375q0 -1.078125 -0.328125 -1.5625q-0.3125 -0.484375 -1.125 -0.484375q-0.90625 0 -1.40625 0.921875l0 9.21875l-3.328125 0l0 -12.6875l3.125 0zm8.375 5.953125q0 -3.109375 1.125 -4.640625q1.125 -1.546875 3.15625 -1.546875q1.71875 0 2.65625 1.359375l0.125 -1.125l2.984375 0l0 12.6875q0 2.421875 -1.359375 3.703125q-1.359375 1.296875 -3.890625 1.296875q-1.046875 0 -2.203125 -0.421875q-1.140625 -0.421875 -1.703125 -1.0625l1.109375 -2.296875q0.46875 0.5 1.21875 0.796875q0.75 0.3125 1.421875 0.3125q1.109375 0 1.59375 -0.53125q0.484375 -0.53125 0.5 -1.71875l0 -1.09375q-0.953125 1.25 -2.46875 1.25q-2.03125 0 -3.140625 -1.578125q-1.109375 -1.578125 -1.125 -4.453125l0 -0.9375zm3.3125 0.84375q0 1.75 0.453125 2.5625q0.46875 0.796875 1.453125 0.796875q1.03125 0 1.515625 -0.734375l0 -6.0625q-0.515625 -0.8125 -1.484375 -0.8125q-0.984375 0 -1.46875 0.8125q-0.46875 0.8125 -0.46875 2.59375l0 0.84375z" fill-rule="nonzero"/><path fill="#cfe2f3" d="m486.33334 248.28635l0 0c0 -6.1752777 5.0060425 -11.181335 11.181305 -11.181335l44.724 0l0 0c2.965454 0 5.8094482 1.1780243 7.906372 3.2749329c2.0969238 2.0969086 3.2749023 4.940918 3.2749023 7.9064026l0 52.28302c0 6.1752625 -5.0060425 11.181305 -11.181274 11.181305l-44.724 0c-6.1752625 0 -11.181305 -5.0060425 -11.181305 -11.181305z" fill-rule="evenodd"/><path stroke="#595959" stroke-width="1.0" stroke-linejoin="round" stroke-linecap="butt" d="m486.33334 248.28635l0 0c0 -6.1752777 5.0060425 -11.181335 11.181305 -11.181335l44.724 0l0 0c2.965454 0 5.8094482 1.1780243 7.906372 3.2749329c2.0969238 2.0969086 3.2749023 4.940918 3.2749023 7.9064026l0 52.28302c0 6.1752625 -5.0060425 11.181305 -11.181274 11.181305l-44.724 0c-6.1752625 0 -11.181305 -5.0060425 -11.181305 -11.181305z" fill-rule="evenodd"/><path fill="#434343" d="m504.24597 281.34784l0 -13.265625l3.515625 0q2.3125 0 3.6875 1.484375q1.390625 1.46875 1.421875 4.03125l0 2.15625q0 2.609375 -1.390625 4.109375q-1.375 1.484375 -3.796875 1.484375l-3.4375 0zm2.6875 -11.03125l0 8.8125l0.796875 0q1.34375 0 1.890625 -0.703125q0.546875 -0.71875 0.5625 -2.4375l0 -2.3125q0 -1.859375 -0.515625 -2.59375q-0.515625 -0.734375 -1.765625 -0.765625l-0.96875 0zm17.133484 11.03125l-2.687561 0l-3.90625 -8.703125l0 8.703125l-2.6875 0l0 -13.265625l2.6875 0l3.921875 8.703125l0 -8.703125l2.671936 0l0 13.265625zm11.423279 0l-2.6875 0l-3.90625 -8.703125l0 8.703125l-2.6875 0l0 -13.265625l2.6875 0l3.921875 8.703125l0 -8.703125l2.671875 0l0 13.265625z" fill-rule="nonzero"/><path fill="#fff2cc" d="m212.05774 165.24686l0 0c0 -3.8037415 3.0835419 -6.8872833 6.8872833 -6.8872833l520.2412 0c1.8265991 0 3.5784302 0.7256317 4.870056 2.0172424c1.291565 1.2916107 2.017212 3.0434265 2.017212 4.870041l0 27.548279c0 3.8037415 -3.0835571 6.8872833 -6.887268 6.8872833l-520.2412 0c-3.8037415 0 -6.8872833 -3.0835419 -6.8872833 -6.8872833z" fill-rule="evenodd"/><path stroke="#595959" stroke-width="1.0" stroke-linejoin="round" stroke-linecap="butt" d="m212.05774 165.24686l0 0c0 -3.8037415 3.0835419 -6.8872833 6.8872833 -6.8872833l520.2412 0c1.8265991 0 3.5784302 0.7256317 4.870056 2.0172424c1.291565 1.2916107 2.017212 3.0434265 2.017212 4.870041l0 27.548279c0 3.8037415 -3.0835571 6.8872833 -6.887268 6.8872833l-520.2412 0c-3.8037415 0 -6.8872833 -3.0835419 -6.8872833 -6.8872833z" fill-rule="evenodd"/><path fill="#434343" d="m421.4875 184.70161l6.046875 0l0 2.859375l-9.484375 0l0 -17.0625l3.4375 0l0 14.203125zm11.359375 2.859375l-3.328125 0l0 -12.6875l3.328125 0l0 12.6875zm-3.484375 -15.96875q0 -0.765625 0.484375 -1.25q0.5 -0.5 1.3125 -0.5q0.828125 0 1.3125 0.5q0.5 0.484375 0.5 1.25q0 0.765625 -0.484375 1.28125q-0.484375 0.5 -1.3125 0.5q-0.828125 0 -1.328125 -0.5q-0.484375 -0.515625 -0.484375 -1.28125zm9.09375 3.28125l0.09375 1.265625q1.125 -1.5 2.9375 -1.5q3.265625 0 3.359375 4.59375l0 8.328125l-3.328125 0l0 -8.09375q0 -1.078125 -0.328125 -1.5625q-0.3125 -0.484375 -1.125 -0.484375q-0.90625 0 -1.40625 0.921875l0 9.21875l-3.328125 0l0 -12.6875l3.125 0zm13.890625 12.921875q-2.546875 0 -3.984375 -1.515625q-1.421875 -1.53125 -1.421875 -4.375l0 -1.0q0 -3.0 1.3125 -4.625q1.3125 -1.640625 3.75 -1.640625q2.390625 0 3.59375 1.53125q1.21875 1.53125 1.234375 4.53125l0 1.625l-6.59375 0q0.078125 1.40625 0.625 2.0625q0.546875 0.65625 1.703125 0.65625q1.65625 0 2.765625 -1.140625l1.3125 2.0q-0.609375 0.84375 -1.78125 1.375q-1.15625 0.515625 -2.515625 0.515625zm-2.078125 -7.78125l3.3125 0l0 -0.3125q-0.03125 -1.125 -0.390625 -1.703125q-0.34375 -0.59375 -1.21875 -0.59375q-0.859375 0 -1.25 0.625q-0.390625 0.609375 -0.453125 1.984375zm14.46875 7.546875q-0.140625 -0.296875 -0.28125 -0.984375q-0.890625 1.21875 -2.421875 1.21875q-1.59375 0 -2.640625 -1.046875q-1.046875 -1.0625 -1.046875 -2.734375q0 -2.0 1.265625 -3.078125q1.28125 -1.09375 3.671875 -1.125l1.0 0l0 -1.015625q0 -0.859375 -0.296875 -1.203125q-0.28125 -0.359375 -0.84375 -0.359375q-1.25 0 -1.25 1.453125l-3.3125 0q0 -1.75 1.3125 -2.890625q1.328125 -1.15625 3.34375 -1.15625q2.078125 0 3.21875 1.09375q1.15625 1.078125 1.15625 3.09375l0 5.96875q0.015625 1.640625 0.46875 2.5625l0 0.203125l-3.34375 0zm-1.953125 -2.375q0.546875 0 0.921875 -0.21875q0.390625 -0.21875 0.578125 -0.53125l0 -2.625l-0.796875 0q-0.84375 0 -1.328125 0.546875q-0.484375 0.53125 -0.484375 1.421875q0 1.40625 1.109375 1.40625zm13.484375 -7.109375l-1.109375 -0.09375q-1.359375 0 -1.828125 1.203125l0 8.375l-3.328125 0l0 -12.6875l3.125 0l0.09375 1.375q0.78125 -1.609375 2.171875 -1.609375q0.5625 0 0.90625 0.15625l-0.03125 3.28125zm10.347656 -3.203125l0.09375 1.171875q1.109375 -1.40625 2.9375 -1.40625q1.90625 0 2.6875 1.71875q1.09375 -1.71875 3.109375 -1.71875q3.328125 0 3.40625 4.609375l0 8.3125l-3.3125 0l0 -8.09375q0 -1.109375 -0.3125 -1.578125q-0.296875 -0.46875 -1.03125 -0.46875q-0.921875 0 -1.375 1.140625l0.015625 0.390625l0 8.609375l-3.3125 0l0 -8.078125q0 -1.09375 -0.296875 -1.578125q-0.296875 -0.484375 -1.046875 -0.484375q-0.84375 0 -1.359375 0.921875l0 9.21875l-3.3125 0l0 -12.6875l3.109375 0zm14.300781 5.9375q0 -2.890625 1.359375 -4.53125q1.359375 -1.640625 3.75 -1.640625q2.4375 0 3.796875 1.640625q1.359375 1.640625 1.359375 4.546875l0 0.8125q0 2.890625 -1.359375 4.53125q-1.34375 1.625 -3.765625 1.625q-2.4375 0 -3.796875 -1.625q-1.34375 -1.640625 -1.34375 -4.546875l0 -0.8125zm3.328125 0.828125q0 3.40625 1.8125 3.40625q1.671875 0 1.796875 -2.84375l0.015625 -1.390625q0 -1.734375 -0.484375 -2.5625q-0.46875 -0.84375 -1.359375 -0.84375q-0.84375 0 -1.3125 0.84375q-0.46875 0.828125 -0.46875 2.5625l0 0.828125zm8.550781 -0.8125q0 -3.109375 1.046875 -4.640625q1.0625 -1.546875 3.078125 -1.546875q1.46875 0 2.4375 1.265625l0 -6.34375l3.34375 0l0 18.0l-3.015625 0l-0.15625 -1.296875q-1.015625 1.53125 -2.625 1.53125q-1.984375 0 -3.046875 -1.515625q-1.046875 -1.53125 -1.0625 -4.484375l0 -0.96875zm3.328125 0.84375q0 1.875 0.390625 2.625q0.40625 0.734375 1.359375 0.734375q0.984375 0 1.484375 -0.875l0 -5.796875q-0.5 -0.9375 -1.484375 -0.9375q-0.90625 0 -1.328125 0.75q-0.421875 0.734375 -0.421875 2.609375l0 0.890625zm14.128906 6.125q-2.546875 0 -3.984375 -1.515625q-1.421875 -1.53125 -1.421875 -4.375l0 -1.0q0 -3.0 1.3125 -4.625q1.3125 -1.640625 3.75 -1.640625q2.390625 0 3.59375 1.53125q1.21875 1.53125 1.234375 4.53125l0 1.625l-6.59375 0q0.078125 1.40625 0.625 2.0625q0.546875 0.65625 1.703125 0.65625q1.65625 0 2.765625 -1.140625l1.3125 2.0q-0.609375 0.84375 -1.78125 1.375q-1.15625 0.515625 -2.515625 0.515625zm-2.078125 -7.78125l3.3125 0l0 -0.3125q-0.03125 -1.125 -0.390625 -1.703125q-0.34375 -0.59375 -1.21875 -0.59375q-0.859375 0 -1.25 0.625q-0.390625 0.609375 -0.453125 1.984375zm11.921875 7.546875l-3.328125 0l0 -18.0l3.328125 0l0 18.0z" fill-rule="nonzero"/><path fill="#000000" fill-opacity="0.0" d="m212.05774 109.79527l160.62991 0l0 34.992126l-160.62991 0z" fill-rule="evenodd"/><path fill="#434343" d="m231.24524 134.44466l-5.375 0l0 4.53125l6.359375 0l0 2.859375l-9.796875 0l0 -17.062508l9.765625 0l0 2.875l-6.328125 0l0 4.0312576l5.375 0l0 2.765625zm5.8398438 -5.296875l0.09375 1.265625q1.125 -1.5 2.9375 -1.5q3.265625 0 3.359375 4.59375l0 8.328125l-3.328125 0l0 -8.09375q0 -1.078125 -0.328125 -1.5625q-0.3125 -0.484375 -1.125 -0.484375q-0.90625 0 -1.40625 0.921875l0 9.21875l-3.328125 0l0 -12.6875l3.125 0zm14.390625 9.28125q0 -0.421875 -0.40625 -0.765625q-0.40625 -0.359375 -1.796875 -0.96875q-2.0625 -0.84375 -2.828125 -1.734375q-0.765625 -0.890625 -0.765625 -2.203125q0 -1.671875 1.203125 -2.75q1.203125 -1.09375 3.1875 -1.09375q2.078125 0 3.328125 1.078125q1.265625 1.078125 1.265625 2.90625l-3.328125 0q0 -1.546875 -1.28125 -1.546875q-0.53125 0 -0.875 0.328125q-0.328125 0.328125 -0.328125 0.90625q0 0.421875 0.375 0.75q0.375 0.3125 1.765625 0.921875q2.03125 0.75 2.859375 1.671875q0.84375 0.90625 0.84375 2.375q0 1.703125 -1.28125 2.734375q-1.28125 1.03125 -3.34375 1.03125q-1.40625 0 -2.46875 -0.546875q-1.0625 -0.546875 -1.671875 -1.515625q-0.59375 -0.96875 -0.59375 -2.09375l3.140625 0q0.03125 0.859375 0.40625 1.296875q0.390625 0.4375 1.25 0.4375q1.34375 0 1.34375 -1.21875zm10.3984375 3.640625q-2.546875 0 -3.984375 -1.515625q-1.421875 -1.53125 -1.421875 -4.375l0 -1.0q0 -3.0 1.3125 -4.625q1.3125 -1.640625 3.75 -1.640625q2.390625 0 3.59375 1.53125q1.21875 1.53125 1.234375 4.53125l0 1.625l-6.59375 0q0.078125 1.40625 0.625 2.0625q0.546875 0.65625 1.703125 0.65625q1.65625 0 2.765625 -1.140625l1.3125 2.0q-0.609375 0.84375 -1.78125 1.375q-1.15625 0.515625 -2.515625 0.515625zm-2.078125 -7.78125l3.3125 0l0 -0.3125q-0.03125 -1.125 -0.390625 -1.703125q-0.34375 -0.59375 -1.21875 -0.59375q-0.859375 0 -1.25 0.625q-0.390625 0.609375 -0.453125 1.984375zm11.5625 -5.140625l0.09375 1.171875q1.109375 -1.40625 2.9375 -1.40625q1.90625 0 2.6875 1.71875q1.09375 -1.71875 3.109375 -1.71875q3.328125 0 3.40625 4.609375l0 8.3125l-3.3125 0l0 -8.09375q0 -1.109375 -0.3125 -1.578125q-0.296875 -0.46875 -1.03125 -0.46875q-0.921875 0 -1.375 1.140625l0.015625 0.390625l0 8.609375l-3.3125 0l0 -8.078125q0 -1.09375 -0.296875 -1.578125q-0.296875 -0.484375 -1.046875 -0.484375q-0.84375 0 -1.359375 0.921875l0 9.21875l-3.3125 0l0 -12.6875l3.109375 0zm24.566406 6.75q0 3.09375 -0.984375 4.640625q-0.984375 1.53125 -3.09375 1.53125q-1.640625 0 -2.640625 -1.484375l-0.109375 1.25l-3.0625 0l0 -18.000008l3.328125 0l0 6.3437576q0.9375 -1.265625 2.46875 -1.265625q2.109375 0 3.09375 1.53125q0.984375 1.53125 1.0 4.484375l0 0.96875zm-3.3125 -0.828125q0 -2.0 -0.390625 -2.6875q-0.375 -0.6875 -1.34375 -0.6875q-1.046875 0 -1.515625 0.953125l0 5.78125q0.4375 0.890625 1.546875 0.890625q0.9375 0 1.3125 -0.625q0.375 -0.625 0.390625 -2.421875l0 -1.203125zm8.7890625 6.765625l-3.328125 0l0 -18.000008l3.328125 0l0 18.000008zm7.6875 0.234375q-2.546875 0 -3.984375 -1.515625q-1.421875 -1.53125 -1.421875 -4.375l0 -1.0q0 -3.0 1.3125 -4.625q1.3125 -1.640625 3.75 -1.640625q2.390625 0 3.59375 1.53125q1.21875 1.53125 1.234375 4.53125l0 1.625l-6.59375 0q0.078125 1.40625 0.625 2.0625q0.546875 0.65625 1.703125 0.65625q1.65625 0 2.765625 -1.140625l1.3125 2.0q-0.609375 0.84375 -1.78125 1.375q-1.15625 0.515625 -2.515625 0.515625zm-2.078125 -7.78125l3.3125 0l0 -0.3125q-0.03125 -1.125 -0.390625 -1.703125q-0.34375 -0.59375 -1.21875 -0.59375q-0.859375 0 -1.25 0.625q-0.390625 0.609375 -0.453125 1.984375z" fill-rule="nonzero"/><path fill="#000000" fill-opacity="0.0" d="m479.0656 158.35957l-0.22045898 -105.44881" fill-rule="evenodd"/><path stroke="#595959" stroke-width="3.0" stroke-linejoin="round" stroke-linecap="butt" d="m479.0656 158.35957l-0.18283081 -87.44885" fill-rule="evenodd"/><path fill="#595959" stroke="#595959" stroke-width="3.0" stroke-linecap="butt" d="m483.83795 70.90036l-4.9836426 -13.603901l-4.9267273 13.624622z" fill-rule="evenodd"/><path fill="#000000" fill-opacity="0.0" d="m478.6719 489.7034l0.56692505 -71.08661" fill-rule="evenodd"/><path stroke="#595959" stroke-width="3.0" stroke-linejoin="round" stroke-linecap="butt" d="m478.6719 489.7034l0.42340088 -53.08719" fill-rule="evenodd"/><path fill="#595959" stroke="#595959" stroke-width="3.0" stroke-linecap="butt" d="m484.05032 436.65573l-4.846466 -13.653351l-5.0635986 13.574341z" fill-rule="evenodd"/><path fill="#000000" fill-opacity="0.0" d="m480.0 418.6168l-0.94488525 -26.362183" fill-rule="evenodd"/><path stroke="#595959" stroke-width="3.0" stroke-linejoin="round" stroke-linecap="butt" d="m480.0 418.6168l-0.30010986 -8.373749" fill-rule="evenodd"/><path fill="#595959" stroke="#595959" stroke-width="3.0" stroke-linecap="butt" d="m484.6519 410.06555l-5.4396667 -13.42807l-4.464386 13.783051z" fill-rule="evenodd"/><path fill="#000000" fill-opacity="0.0" d="m479.3281 419.10236l-0.25198364 -26.834625" fill-rule="evenodd"/><path stroke="#595959" stroke-width="3.0" stroke-linejoin="round" stroke-linecap="butt" d="m479.3281 419.10236l-0.082977295 -8.835419" fill-rule="evenodd"/><path fill="#595959" stroke="#595959" stroke-width="3.0" stroke-linecap="butt" d="m484.2001 410.2204l-5.0828247 -13.567169l-4.8271484 13.660217z" fill-rule="evenodd"/><path fill="#000000" fill-opacity="0.0" d="m519.87665 237.10501l0.25195312 -37.13385" fill-rule="evenodd"/><path stroke="#595959" stroke-width="3.0" stroke-linejoin="round" stroke-linecap="butt" d="m519.87665 237.10501l0.12982178 -19.134277" fill-rule="evenodd"/><path fill="#595959" stroke="#595959" stroke-width="3.0" stroke-linecap="butt" d="m524.96155 218.00435l-4.862671 -13.647598l-5.0474854 13.580368z" fill-rule="evenodd"/><path fill="#cfe2f3" d="m404.33334 248.28635l0 0c0 -6.1752777 5.0060425 -11.181335 11.181305 -11.181335l44.72397 0l0 0c2.9654846 0 5.8094788 1.1780243 7.9064026 3.2749329c2.0968933 2.0969086 3.2749329 4.940918 3.2749329 7.9064026l0 52.28302c0 6.1752625 -5.0060425 11.181305 -11.181335 11.181305l-44.72397 0c-6.1752625 0 -11.181305 -5.0060425 -11.181305 -11.181305z" fill-rule="evenodd"/><path stroke="#595959" stroke-width="1.0" stroke-linejoin="round" stroke-linecap="butt" d="m404.33334 248.28635l0 0c0 -6.1752777 5.0060425 -11.181335 11.181305 -11.181335l44.72397 0l0 0c2.9654846 0 5.8094788 1.1780243 7.9064026 3.2749329c2.0968933 2.0969086 3.2749329 4.940918 3.2749329 7.9064026l0 52.28302c0 6.1752625 -5.0060425 11.181305 -11.181335 11.181305l-44.72397 0c-6.1752625 0 -11.181305 -5.0060425 -11.181305 -11.181305z" fill-rule="evenodd"/><path fill="#434343" d="m422.24597 281.34784l0 -13.265625l3.515625 0q2.3125 0 3.6875 1.484375q1.390625 1.46875 1.421875 4.03125l0 2.15625q0 2.609375 -1.390625 4.109375q-1.375 1.484375 -3.796875 1.484375l-3.4375 0zm2.6875 -11.03125l0 8.8125l0.796875 0q1.34375 0 1.890625 -0.703125q0.546875 -0.71875 0.5625 -2.4375l0 -2.3125q0 -1.859375 -0.515625 -2.59375q-0.515625 -0.734375 -1.765625 -0.765625l-0.96875 0zm17.133453 11.03125l-2.6875 0l-3.90625 -8.703125l0 8.703125l-2.6875 0l0 -13.265625l2.6875 0l3.921875 8.703125l0 -8.703125l2.671875 0l0 13.265625zm11.423309 0l-2.6875 0l-3.90625 -8.703125l0 8.703125l-2.6875 0l0 -13.265625l2.6875 0l3.921875 8.703125l0 -8.703125l2.671875 0l0 13.265625z" fill-rule="nonzero"/><path fill="#000000" fill-opacity="0.0" d="m437.87665 237.10501l0.25195312 -37.13385" fill-rule="evenodd"/><path stroke="#595959" stroke-width="3.0" stroke-linejoin="round" stroke-linecap="butt" d="m437.87665 237.10501l0.12982178 -19.134277" fill-rule="evenodd"/><path fill="#595959" stroke="#595959" stroke-width="3.0" stroke-linecap="butt" d="m442.96155 218.00435l-4.8627014 -13.647598l-5.047455 13.580368z" fill-rule="evenodd"/><path fill="#cfe2f3" d="m322.33334 248.28635l0 0c0 -6.1752777 5.0060425 -11.181335 11.181305 -11.181335l44.72397 0l0 0c2.9654846 0 5.8094788 1.1780243 7.9064026 3.2749329c2.0968933 2.0969086 3.2749329 4.940918 3.2749329 7.9064026l0 52.28302c0 6.1752625 -5.0060425 11.181305 -11.181335 11.181305l-44.72397 0c-6.1752625 0 -11.181305 -5.0060425 -11.181305 -11.181305z" fill-rule="evenodd"/><path stroke="#595959" stroke-width="1.0" stroke-linejoin="round" stroke-linecap="butt" d="m322.33334 248.28635l0 0c0 -6.1752777 5.0060425 -11.181335 11.181305 -11.181335l44.72397 0l0 0c2.9654846 0 5.8094788 1.1780243 7.9064026 3.2749329c2.0968933 2.0969086 3.2749329 4.940918 3.2749329 7.9064026l0 52.28302c0 6.1752625 -5.0060425 11.181305 -11.181335 11.181305l-44.72397 0c-6.1752625 0 -11.181305 -5.0060425 -11.181305 -11.181305z" fill-rule="evenodd"/><path fill="#434343" d="m340.24597 281.34784l0 -13.265625l3.515625 0q2.3125 0 3.6875 1.484375q1.390625 1.46875 1.421875 4.03125l0 2.15625q0 2.609375 -1.390625 4.109375q-1.375 1.484375 -3.796875 1.484375l-3.4375 0zm2.6875 -11.03125l0 8.8125l0.796875 0q1.34375 0 1.890625 -0.703125q0.546875 -0.71875 0.5625 -2.4375l0 -2.3125q0 -1.859375 -0.515625 -2.59375q-0.515625 -0.734375 -1.765625 -0.765625l-0.96875 0zm17.133453 11.03125l-2.6875 0l-3.90625 -8.703125l0 8.703125l-2.6875 0l0 -13.265625l2.6875 0l3.921875 8.703125l0 -8.703125l2.671875 0l0 13.265625zm11.423309 0l-2.6875 0l-3.90625 -8.703125l0 8.703125l-2.6875 0l0 -13.265625l2.6875 0l3.921875 8.703125l0 -8.703125l2.671875 0l0 13.265625z" fill-rule="nonzero"/><path fill="#000000" fill-opacity="0.0" d="m355.87665 237.10501l0.25195312 -37.13385" fill-rule="evenodd"/><path stroke="#595959" stroke-width="3.0" stroke-linejoin="round" stroke-linecap="butt" d="m355.87665 237.10501l0.12982178 -19.134277" fill-rule="evenodd"/><path fill="#595959" stroke="#595959" stroke-width="3.0" stroke-linecap="butt" d="m360.96155 218.00435l-4.8627014 -13.647598l-5.047455 13.580368z" fill-rule="evenodd"/><path fill="#cfe2f3" d="m240.33333 249.46744l0 0c0 -6.1752777 5.0060577 -11.18132 11.181335 -11.18132l44.723953 0l0 0c2.9654846 0 5.8094788 1.1780243 7.9064026 3.2749329c2.0968933 2.0969086 3.2749329 4.940918 3.2749329 7.9063873l0 52.28302c0 6.1752625 -5.0060425 11.181335 -11.181335 11.181335l-44.723953 0c-6.1752777 0 -11.181335 -5.006073 -11.181335 -11.181335z" fill-rule="evenodd"/><path stroke="#595959" stroke-width="1.0" stroke-linejoin="round" stroke-linecap="butt" d="m240.33333 249.46744l0 0c0 -6.1752777 5.0060577 -11.18132 11.181335 -11.18132l44.723953 0l0 0c2.9654846 0 5.8094788 1.1780243 7.9064026 3.2749329c2.0968933 2.0969086 3.2749329 4.940918 3.2749329 7.9063873l0 52.28302c0 6.1752625 -5.0060425 11.181335 -11.181335 11.181335l-44.723953 0c-6.1752777 0 -11.181335 -5.006073 -11.181335 -11.181335z" fill-rule="evenodd"/><path fill="#434343" d="m258.24597 282.52896l0 -13.265625l3.515625 0q2.3125 0 3.6875 1.484375q1.390625 1.46875 1.421875 4.03125l0 2.15625q0 2.609375 -1.390625 4.109375q-1.375 1.484375 -3.796875 1.484375l-3.4375 0zm2.6875 -11.03125l0 8.8125l0.796875 0q1.34375 0 1.890625 -0.703125q0.546875 -0.71875 0.5625 -2.4375l0 -2.3125q0 -1.859375 -0.515625 -2.59375q-0.515625 -0.734375 -1.765625 -0.765625l-0.96875 0zm17.133453 11.03125l-2.6875 0l-3.90625 -8.703125l0 8.703125l-2.6875 0l0 -13.265625l2.6875 0l3.921875 8.703125l0 -8.703125l2.671875 0l0 13.265625zm11.423309 0l-2.6875 0l-3.90625 -8.703125l0 8.703125l-2.6875 0l0 -13.265625l2.6875 0l3.921875 8.703125l0 -8.703125l2.671875 0l0 13.265625z" fill-rule="nonzero"/><path fill="#000000" fill-opacity="0.0" d="m273.87665 238.28612l0.25195312 -37.133865" fill-rule="evenodd"/><path stroke="#595959" stroke-width="3.0" stroke-linejoin="round" stroke-linecap="butt" d="m273.87665 238.2861l0.12982178 -19.134262" fill-rule="evenodd"/><path fill="#595959" stroke="#595959" stroke-width="3.0" stroke-linecap="butt" d="m278.96155 219.18546l-4.8627014 -13.647598l-5.047455 13.580353z" fill-rule="evenodd"/><path fill="#000000" fill-opacity="0.0" d="m274.0 348.0l0.12597656 -35.055115" fill-rule="evenodd"/><path stroke="#595959" stroke-width="3.0" stroke-linejoin="round" stroke-linecap="butt" d="m274.0 348.0l0.061279297 -17.055237" fill-rule="evenodd"/><path fill="#595959" stroke="#595959" stroke-width="3.0" stroke-linecap="butt" d="m279.01645 330.9626l-4.9062195 -13.632019l-5.0040894 13.596405z" fill-rule="evenodd"/><path fill="#cfe2f3" d="m650.3333 248.87689l0 0c0 -6.1752777 5.0060425 -11.18132 11.181335 -11.18132l44.724 0l0 0c2.965454 0 5.8094482 1.1780243 7.906372 3.2749329c2.0969238 2.0968933 3.2749023 4.940918 3.2749023 7.9063873l0 52.28302c0 6.1752625 -5.0060425 11.181335 -11.181274 11.181335l-44.724 0c-6.175293 0 -11.181335 -5.006073 -11.181335 -11.181335z" fill-rule="evenodd"/><path stroke="#595959" stroke-width="1.0" stroke-linejoin="round" stroke-linecap="butt" d="m650.3333 248.87689l0 0c0 -6.1752777 5.0060425 -11.18132 11.181335 -11.18132l44.724 0l0 0c2.965454 0 5.8094482 1.1780243 7.906372 3.2749329c2.0969238 2.0968933 3.2749023 4.940918 3.2749023 7.9063873l0 52.28302c0 6.1752625 -5.0060425 11.181335 -11.181274 11.181335l-44.724 0c-6.175293 0 -11.181335 -5.006073 -11.181335 -11.181335z" fill-rule="evenodd"/><path fill="#434343" d="m668.246 281.9384l0 -13.265625l3.515625 0q2.3125 0 3.6875 1.484375q1.390625 1.46875 1.421875 4.03125l0 2.15625q0 2.609375 -1.390625 4.109375q-1.375 1.484375 -3.796875 1.484375l-3.4375 0zm2.6875 -11.03125l0 8.8125l0.796875 0q1.34375 0 1.890625 -0.703125q0.546875 -0.71875 0.5625 -2.4375l0 -2.3125q0 -1.859375 -0.515625 -2.59375q-0.515625 -0.734375 -1.765625 -0.765625l-0.96875 0zm17.133484 11.03125l-2.687561 0l-3.90625 -8.703125l0 8.703125l-2.6875 0l0 -13.265625l2.6875 0l3.921875 8.703125l0 -8.703125l2.671936 0l0 13.265625zm11.423279 0l-2.6875 0l-3.90625 -8.703125l0 8.703125l-2.6875 0l0 -13.265625l2.6875 0l3.921875 8.703125l0 -8.703125l2.671875 0l0 13.265625z" fill-rule="nonzero"/><path fill="#000000" fill-opacity="0.0" d="m683.87665 237.69557l0.25195312 -37.133865" fill-rule="evenodd"/><path stroke="#595959" stroke-width="3.0" stroke-linejoin="round" stroke-linecap="butt" d="m683.87665 237.69556l0.12982178 -19.134262" fill-rule="evenodd"/><path fill="#595959" stroke="#595959" stroke-width="3.0" stroke-linecap="butt" d="m688.96155 218.59491l-4.862671 -13.647598l-5.0474854 13.580353z" fill-rule="evenodd"/><path fill="#cfe2f3" d="m568.3333 250.058l0 0c0 -6.1752777 5.0060425 -11.181335 11.181335 -11.181335l44.724 0l0 0c2.965454 0 5.8094482 1.1780396 7.906372 3.2749329c2.0969238 2.0969086 3.2749023 4.940918 3.2749023 7.9064026l0 52.283005c0 6.175293 -5.0060425 11.181335 -11.181274 11.181335l-44.724 0c-6.175293 0 -11.181335 -5.0060425 -11.181335 -11.181335z" fill-rule="evenodd"/><path stroke="#595959" stroke-width="1.0" stroke-linejoin="round" stroke-linecap="butt" d="m568.3333 250.058l0 0c0 -6.1752777 5.0060425 -11.181335 11.181335 -11.181335l44.724 0l0 0c2.965454 0 5.8094482 1.1780396 7.906372 3.2749329c2.0969238 2.0969086 3.2749023 4.940918 3.2749023 7.9064026l0 52.283005c0 6.175293 -5.0060425 11.181335 -11.181274 11.181335l-44.724 0c-6.175293 0 -11.181335 -5.0060425 -11.181335 -11.181335z" fill-rule="evenodd"/><path fill="#434343" d="m586.246 283.1195l0 -13.265625l3.515625 0q2.3125 0 3.6875 1.484375q1.390625 1.46875 1.421875 4.03125l0 2.15625q0 2.609375 -1.390625 4.109375q-1.375 1.484375 -3.796875 1.484375l-3.4375 0zm2.6875 -11.03125l0 8.8125l0.796875 0q1.34375 0 1.890625 -0.703125q0.546875 -0.71875 0.5625 -2.4375l0 -2.3125q0 -1.859375 -0.515625 -2.59375q-0.515625 -0.734375 -1.765625 -0.765625l-0.96875 0zm17.133484 11.03125l-2.687561 0l-3.90625 -8.703125l0 8.703125l-2.6875 0l0 -13.265625l2.6875 0l3.921875 8.703125l0 -8.703125l2.671936 0l0 13.265625zm11.423279 0l-2.6875 0l-3.90625 -8.703125l0 8.703125l-2.6875 0l0 -13.265625l2.6875 0l3.921875 8.703125l0 -8.703125l2.671875 0l0 13.265625z" fill-rule="nonzero"/><path fill="#000000" fill-opacity="0.0" d="m601.87665 238.87666l0.25195312 -37.13385" fill-rule="evenodd"/><path stroke="#595959" stroke-width="3.0" stroke-linejoin="round" stroke-linecap="butt" d="m601.87665 238.87666l0.12982178 -19.134277" fill-rule="evenodd"/><path fill="#595959" stroke="#595959" stroke-width="3.0" stroke-linecap="butt" d="m606.96155 219.77602l-4.862671 -13.647614l-5.0474854 13.580368z" fill-rule="evenodd"/><path fill="#000000" fill-opacity="0.0" d="m355.81366 347.84515l0.12597656 -35.055115" fill-rule="evenodd"/><path stroke="#595959" stroke-width="3.0" stroke-linejoin="round" stroke-linecap="butt" d="m355.81366 347.84515l0.061309814 -17.055237" fill-rule="evenodd"/><path fill="#595959" stroke="#595959" stroke-width="3.0" stroke-linecap="butt" d="m360.8301 330.8077l-4.90625 -13.632019l-5.0040894 13.596405z" fill-rule="evenodd"/><path fill="#000000" fill-opacity="0.0" d="m437.81366 347.84515l0.12597656 -35.055115" fill-rule="evenodd"/><path stroke="#595959" stroke-width="3.0" stroke-linejoin="round" stroke-linecap="butt" d="m437.81366 347.84515l0.061309814 -17.055237" fill-rule="evenodd"/><path fill="#595959" stroke="#595959" stroke-width="3.0" stroke-linecap="butt" d="m442.8301 330.8077l-4.90625 -13.632019l-5.0040894 13.596405z" fill-rule="evenodd"/><path fill="#000000" fill-opacity="0.0" d="m519.81366 347.84515l0.12597656 -35.055115" fill-rule="evenodd"/><path stroke="#595959" stroke-width="3.0" stroke-linejoin="round" stroke-linecap="butt" d="m519.81366 347.84515l0.061279297 -17.055237" fill-rule="evenodd"/><path fill="#595959" stroke="#595959" stroke-width="3.0" stroke-linecap="butt" d="m524.8301 330.8077l-4.906189 -13.632019l-5.0040894 13.596405z" fill-rule="evenodd"/><path fill="#000000" fill-opacity="0.0" d="m601.81366 347.84515l0.12597656 -35.055115" fill-rule="evenodd"/><path stroke="#595959" stroke-width="3.0" stroke-linejoin="round" stroke-linecap="butt" d="m601.81366 347.84515l0.061279297 -17.055237" fill-rule="evenodd"/><path fill="#595959" stroke="#595959" stroke-width="3.0" stroke-linecap="butt" d="m606.8301 330.8077l-4.906189 -13.632019l-5.0040894 13.596405z" fill-rule="evenodd"/><path fill="#000000" fill-opacity="0.0" d="m683.81366 347.84515l0.12597656 -35.055115" fill-rule="evenodd"/><path stroke="#595959" stroke-width="3.0" stroke-linejoin="round" stroke-linecap="butt" d="m683.81366 347.84515l0.061279297 -17.055237" fill-rule="evenodd"/><path fill="#595959" stroke="#595959" stroke-width="3.0" stroke-linecap="butt" d="m688.8301 330.8077l-4.906189 -13.632019l-5.0040894 13.596405z" fill-rule="evenodd"/></g></svg>