<svg version="1.1" viewBox="0.0 0.0 960.0 540.0" fill="none" stroke="none" stroke-linecap="square" stroke-miterlimit="10" xmlns:xlink="http://www.w3.org/1999/xlink" xmlns="http://www.w3.org/2000/svg"><clipPath id="g4d271b9ccd_0_0.0"><path d="m0 0l960.0 0l0 540.0l-960.0 0l0 -540.0z" clip-rule="nonzero"/></clipPath><g clip-path="url(#g4d271b9ccd_0_0.0)"><path fill="#000000" fill-opacity="0.0" d="m0 0l960.0 0l0 540.0l-960.0 0z" fill-rule="evenodd"/><path fill="#d9ead3" d="m172.89764 157.48923l0 0c0 -28.84404 23.38272 -52.22676 52.22676 -52.22676l509.75122 0c13.851379 0 27.135498 5.502449 36.92987 15.296867c9.794434 9.794411 15.296875 23.078499 15.296875 36.929893l0 208.90082c0 28.844025 -23.38269 52.226746 -52.226746 52.226746l-509.75122 0l0 0c-28.84404 0 -52.22676 -23.38272 -52.22676 -52.226746z" fill-rule="evenodd"/><path stroke="#595959" stroke-width="1.0" stroke-linejoin="round" stroke-linecap="butt" d="m172.89764 157.48923l0 0c0 -28.84404 23.38272 -52.22676 52.22676 -52.22676l509.75122 0c13.851379 0 27.135498 5.502449 36.92987 15.296867c9.794434 9.794411 15.296875 23.078499 15.296875 36.929893l0 208.90082c0 28.844025 -23.38269 52.226746 -52.226746 52.226746l-509.75122 0l0 0c-28.84404 0 -52.22676 -23.38272 -52.22676 -52.226746z" fill-rule="evenodd"/><path fill="#cfe2f3" d="m212.05774 256.36795l0 0c0 -13.791443 11.180176 -24.971619 24.971634 -24.971619l99.8835 0l0 0c6.6228943 0 12.974518 2.6309204 17.657623 7.3140106c4.683075 4.68309 7.314026 11.034729 7.314026 17.657608l0 110.93863c0 13.791443 -11.180176 24.97165 -24.97165 24.97165l-99.8835 0l0 0c-13.791458 0 -24.971634 -11.180206 -24.971634 -24.97165z" fill-rule="evenodd"/><path stroke="#595959" stroke-width="1.0" stroke-linejoin="round" stroke-linecap="butt" d="m212.05774 256.36795l0 0c0 -13.791443 11.180176 -24.971619 24.971634 -24.971619l99.8835 0l0 0c6.6228943 0 12.974518 2.6309204 17.657623 7.3140106c4.683075 4.68309 7.314026 11.034729 7.314026 17.657608l0 110.93863c0 13.791443 -11.180176 24.97165 -24.97165 24.97165l-99.8835 0l0 0c-13.791458 0 -24.971634 -11.180206 -24.971634 -24.97165z" fill-rule="evenodd"/><path fill="#434343" d="m238.60199 315.89288q0 -1.03125 -0.53125 -1.5625q-0.53125 -0.546875 -1.9375 -1.109375q-2.5625 -0.984375 -3.6875 -2.28125q-1.125 -1.3125 -1.125 -3.09375q0 -2.15625 1.515625 -3.453125q1.53125 -1.3125 3.890625 -1.3125q1.578125 0 2.796875 0.671875q1.234375 0.65625 1.890625 1.859375q0.671875 1.203125 0.671875 2.734375l-3.4375 0q0 -1.1875 -0.515625 -1.8125q-0.5 -0.625 -1.46875 -0.625q-0.890625 0 -1.40625 0.53125q-0.5 0.53125 -0.5 1.4375q0 0.703125 0.5625 1.265625q0.5625 0.5625 2.0 1.171875q2.484375 0.90625 3.609375 2.21875q1.140625 1.3125 1.140625 3.34375q0 2.21875 -1.421875 3.484375q-1.40625 1.25 -3.84375 1.25q-1.65625 0 -3.015625 -0.671875q-1.359375 -0.6875 -2.125 -1.953125q-0.765625 -1.265625 -0.765625 -2.984375l3.453125 0q0 1.46875 0.5625 2.140625q0.578125 0.671875 1.890625 0.671875q1.796875 0 1.796875 -1.921875zm11.8203125 3.328125q-1.03125 1.390625 -2.765625 1.390625q-1.734375 0 -2.640625 -1.203125q-0.90625 -1.203125 -0.90625 -3.5l0 -8.21875l3.3125 0l0 8.296875q0.03125 1.859375 1.234375 1.859375q1.140625 0 1.640625 -0.984375l0 -9.171875l3.34375 0l0 12.6875l-3.125 0l-0.09375 -1.15625zm15.46875 -4.78125q0 3.09375 -0.984375 4.640625q-0.984375 1.53125 -3.09375 1.53125q-1.640625 0 -2.640625 -1.484375l-0.109375 1.25l-3.0625 0l0 -18.0l3.328125 0l0 6.34375q0.9375 -1.265625 2.46875 -1.265625q2.109375 0 3.09375 1.53125q0.984375 1.53125 1.0 4.484375l0 0.96875zm-3.3125 -0.828125q0 -2.0 -0.390625 -2.6875q-0.375 -0.6875 -1.34375 -0.6875q-1.046875 0 -1.515625 0.953125l0 5.78125q0.4375 0.890625 1.546875 0.890625q0.9375 0 1.3125 -0.625q0.375 -0.625 0.390625 -2.421875l0 -1.203125zm8.3515625 -5.921875l0.09375 1.265625q1.125 -1.5 2.9375 -1.5q3.265625 0 3.359375 4.59375l0 8.328125l-3.328125 0l0 -8.09375q0 -1.078125 -0.328125 -1.5625q-0.3125 -0.484375 -1.125 -0.484375q-0.90625 0 -1.40625 0.921875l0 9.21875l-3.328125 0l0 -12.6875l3.125 0zm13.890625 12.921875q-2.546875 0 -3.984375 -1.515625q-1.421875 -1.53125 -1.421875 -4.375l0 -1.0q0 -3.0 1.3125 -4.625q1.3125 -1.640625 3.75 -1.640625q2.390625 0 3.59375 1.53125q1.21875 1.53125 1.234375 4.53125l0 1.625l-6.59375 0q0.078125 1.40625 0.625 2.0625q0.546875 0.65625 1.703125 0.65625q1.65625 0 2.765625 -1.140625l1.3125 2.0q-0.609375 0.84375 -1.78125 1.375q-1.15625 0.515625 -2.515625 0.515625zm-2.078125 -7.78125l3.3125 0l0 -0.3125q-0.03125 -1.125 -0.390625 -1.703125q-0.34375 -0.59375 -1.21875 -0.59375q-0.859375 0 -1.25 0.625q-0.390625 0.609375 -0.453125 1.984375zm12.296875 -8.25l0 3.109375l1.703125 0l0 2.5l-1.703125 0l0 6.296875q0 0.75 0.203125 1.03125q0.203125 0.28125 0.796875 0.28125q0.484375 0 0.78125 -0.078125l-0.015625 2.578125q-0.84375 0.3125 -1.828125 0.3125q-3.21875 0 -3.25 -3.6875l0 -6.734375l-1.46875 0l0 -2.5l1.46875 0l0 -3.109375l3.3125 0zm12.746094 10.234375l1.140625 -7.125l3.171875 0l-2.625 12.6875l-2.75 0l-1.796875 -7.34375l-1.78125 7.34375l-2.765625 0l-2.625 -12.6875l3.1875 0l1.125 7.125l1.6875 -7.125l2.34375 0l1.6875 7.125zm5.578125 -1.1875q0 -2.890625 1.359375 -4.53125q1.359375 -1.640625 3.75 -1.640625q2.4375 0 3.796875 1.640625q1.359375 1.640625 1.359375 4.546875l0 0.8125q0 2.890625 -1.359375 4.53125q-1.34375 1.625 -3.765625 1.625q-2.4375 0 -3.796875 -1.625q-1.34375 -1.640625 -1.34375 -4.546875l0 -0.8125zm3.328125 0.828125q0 3.40625 1.8125 3.40625q1.671875 0 1.796875 -2.84375l0.015625 -1.390625q0 -1.734375 -0.484375 -2.5625q-0.46875 -0.84375 -1.359375 -0.84375q-0.84375 0 -1.3125 0.84375q-0.46875 0.828125 -0.46875 2.5625l0 0.828125zm15.253906 -3.5625l-1.109375 -0.09375q-1.359375 0 -1.828125 1.203125l0 8.375l-3.328125 0l0 -12.6875l3.125 0l0.09375 1.375q0.78125 -1.609375 2.171875 -1.609375q0.5625 0 0.90625 0.15625l-0.03125 3.28125zm5.9101562 4.59375l-0.890625 1.0l0 3.890625l-3.328125 0l0 -18.0l3.328125 0l0 9.71875l0.40625 -0.609375l2.296875 -3.796875l3.953125 0l-3.6875 5.234375l4.03125 7.453125l-3.796875 0l-2.3125 -4.890625z" fill-rule="nonzero"/><path fill="#cfe2f3" d="m404.16272 256.36795l0 0c0 -13.791443 11.180176 -24.971619 24.97165 -24.971619l99.883514 0l0 0c6.622864 0 12.974487 2.6309204 17.657593 7.3140106c4.6831055 4.68309 7.314026 11.034729 7.314026 17.657608l0 110.93863c0 13.791443 -11.180176 24.97165 -24.971619 24.97165l-99.883514 0l0 0c-13.791473 0 -24.97165 -11.180206 -24.97165 -24.97165z" fill-rule="evenodd"/><path stroke="#595959" stroke-width="1.0" stroke-linejoin="round" stroke-linecap="butt" d="m404.16272 256.36795l0 0c0 -13.791443 11.180176 -24.971619 24.97165 -24.971619l99.883514 0l0 0c6.622864 0 12.974487 2.6309204 17.657593 7.3140106c4.6831055 4.68309 7.314026 11.034729 7.314026 17.657608l0 110.93863c0 13.791443 -11.180176 24.97165 -24.971619 24.97165l-99.883514 0l0 0c-13.791473 0 -24.97165 -11.180206 -24.97165 -24.97165z" fill-rule="evenodd"/><path fill="#434343" d="m430.70697 315.89288q0 -1.03125 -0.53125 -1.5625q-0.53125 -0.546875 -1.9375 -1.109375q-2.5625 -0.984375 -3.6875 -2.28125q-1.125 -1.3125 -1.125 -3.09375q0 -2.15625 1.515625 -3.453125q1.53125 -1.3125 3.890625 -1.3125q1.578125 0 2.796875 0.671875q1.234375 0.65625 1.890625 1.859375q0.671875 1.203125 0.671875 2.734375l-3.4375 0q0 -1.1875 -0.515625 -1.8125q-0.5 -0.625 -1.46875 -0.625q-0.890625 0 -1.40625 0.53125q-0.5 0.53125 -0.5 1.4375q0 0.703125 0.5625 1.265625q0.5625 0.5625 2.0 1.171875q2.484375 0.90625 3.609375 2.21875q1.140625 1.3125 1.140625 3.34375q0 2.21875 -1.421875 3.484375q-1.40625 1.25 -3.84375 1.25q-1.65625 0 -3.015625 -0.671875q-1.359375 -0.6875 -2.125 -1.953125q-0.765625 -1.265625 -0.765625 -2.984375l3.453125 0q0 1.46875 0.5625 2.140625q0.578125 0.671875 1.890625 0.671875q1.796875 0 1.796875 -1.921875zm11.8203125 3.328125q-1.03125 1.390625 -2.765625 1.390625q-1.734375 0 -2.640625 -1.203125q-0.90625 -1.203125 -0.90625 -3.5l0 -8.21875l3.3125 0l0 8.296875q0.03125 1.859375 1.234375 1.859375q1.140625 0 1.640625 -0.984375l0 -9.171875l3.34375 0l0 12.6875l-3.125 0l-0.09375 -1.15625zm15.46875 -4.78125q0 3.09375 -0.984375 4.640625q-0.984375 1.53125 -3.09375 1.53125q-1.640625 0 -2.640625 -1.484375l-0.109375 1.25l-3.0625 0l0 -18.0l3.328125 0l0 6.34375q0.9375 -1.265625 2.46875 -1.265625q2.109375 0 3.09375 1.53125q0.984375 1.53125 1.0 4.484375l0 0.96875zm-3.3125 -0.828125q0 -2.0 -0.390625 -2.6875q-0.375 -0.6875 -1.34375 -0.6875q-1.046875 0 -1.515625 0.953125l0 5.78125q0.4375 0.890625 1.546875 0.890625q0.9375 0 1.3125 -0.625q0.375 -0.625 0.390625 -2.421875l0 -1.203125zm8.3515625 -5.921875l0.09375 1.265625q1.125 -1.5 2.9375 -1.5q3.265625 0 3.359375 4.59375l0 8.328125l-3.328125 0l0 -8.09375q0 -1.078125 -0.328125 -1.5625q-0.3125 -0.484375 -1.125 -0.484375q-0.90625 0 -1.40625 0.921875l0 9.21875l-3.328125 0l0 -12.6875l3.125 0zm13.890625 12.921875q-2.546875 0 -3.984375 -1.515625q-1.421875 -1.53125 -1.421875 -4.375l0 -1.0q0 -3.0 1.3125 -4.625q1.3125 -1.640625 3.75 -1.640625q2.390625 0 3.59375 1.53125q1.21875 1.53125 1.234375 4.53125l0 1.625l-6.59375 0q0.078125 1.40625 0.625 2.0625q0.546875 0.65625 1.703125 0.65625q1.65625 0 2.765625 -1.140625l1.3125 2.0q-0.609375 0.84375 -1.78125 1.375q-1.15625 0.515625 -2.515625 0.515625zm-2.078125 -7.78125l3.3125 0l0 -0.3125q-0.03125 -1.125 -0.390625 -1.703125q-0.34375 -0.59375 -1.21875 -0.59375q-0.859375 0 -1.25 0.625q-0.390625 0.609375 -0.453125 1.984375zm12.296875 -8.25l0 3.109375l1.703125 0l0 2.5l-1.703125 0l0 6.296875q0 0.75 0.203125 1.03125q0.203125 0.28125 0.796875 0.28125q0.484375 0 0.78125 -0.078125l-0.015625 2.578125q-0.84375 0.3125 -1.828125 0.3125q-3.21875 0 -3.25 -3.6875l0 -6.734375l-1.46875 0l0 -2.5l1.46875 0l0 -3.109375l3.3125 0zm12.746094 10.234375l1.140625 -7.125l3.171875 0l-2.625 12.6875l-2.75 0l-1.796875 -7.34375l-1.78125 7.34375l-2.765625 0l-2.625 -12.6875l3.1875 0l1.125 7.125l1.6875 -7.125l2.34375 0l1.6875 7.125zm5.578125 -1.1875q0 -2.890625 1.359375 -4.53125q1.359375 -1.640625 3.75 -1.640625q2.4375 0 3.796875 1.640625q1.359375 1.640625 1.359375 4.546875l0 0.8125q0 2.890625 -1.359375 4.53125q-1.34375 1.625 -3.765625 1.625q-2.4375 0 -3.796875 -1.625q-1.34375 -1.640625 -1.34375 -4.546875l0 -0.8125zm3.328125 0.828125q0 3.40625 1.8125 3.40625q1.671875 0 1.796875 -2.84375l0.015625 -1.390625q0 -1.734375 -0.484375 -2.5625q-0.46875 -0.84375 -1.359375 -0.84375q-0.84375 0 -1.3125 0.84375q-0.46875 0.828125 -0.46875 2.5625l0 0.828125zm15.253906 -3.5625l-1.109375 -0.09375q-1.359375 0 -1.828125 1.203125l0 8.375l-3.328125 0l0 -12.6875l3.125 0l0.09375 1.375q0.78125 -1.609375 2.171875 -1.609375q0.5625 0 0.90625 0.15625l-0.03125 3.28125zm5.9101562 4.59375l-0.890625 1.0l0 3.890625l-3.328125 0l0 -18.0l3.328125 0l0 9.71875l0.40625 -0.609375l2.296875 -3.796875l3.953125 0l-3.6875 5.234375l4.03125 7.453125l-3.796875 0l-2.3125 -4.890625z" fill-rule="nonzero"/><path fill="#cfe2f3" d="m596.2677 256.36795l0 0c0 -13.791443 11.180176 -24.971619 24.971619 -24.971619l99.883545 0l0 0c6.622864 0 12.974487 2.6309204 17.657593 7.3140106c4.6831055 4.68309 7.314026 11.034729 7.314026 17.657608l0 110.93863c0 13.791443 -11.180176 24.97165 -24.971619 24.97165l-99.883545 0l0 0c-13.791443 0 -24.971619 -11.180206 -24.971619 -24.97165z" fill-rule="evenodd"/><path stroke="#595959" stroke-width="1.0" stroke-linejoin="round" stroke-linecap="butt" d="m596.2677 256.36795l0 0c0 -13.791443 11.180176 -24.971619 24.971619 -24.971619l99.883545 0l0 0c6.622864 0 12.974487 2.6309204 17.657593 7.3140106c4.6831055 4.68309 7.314026 11.034729 7.314026 17.657608l0 110.93863c0 13.791443 -11.180176 24.97165 -24.971619 24.97165l-99.883545 0l0 0c-13.791443 0 -24.971619 -11.180206 -24.971619 -24.97165z" fill-rule="evenodd"/><path fill="#434343" d="m622.81195 315.89288q0 -1.03125 -0.53125 -1.5625q-0.53125 -0.546875 -1.9375 -1.109375q-2.5625 -0.984375 -3.6875 -2.28125q-1.125 -1.3125 -1.125 -3.09375q0 -2.15625 1.515625 -3.453125q1.53125 -1.3125 3.890625 -1.3125q1.578125 0 2.796875 0.671875q1.234375 0.65625 1.890625 1.859375q0.671875 1.203125 0.671875 2.734375l-3.4375 0q0 -1.1875 -0.515625 -1.8125q-0.5 -0.625 -1.46875 -0.625q-0.890625 0 -1.40625 0.53125q-0.5 0.53125 -0.5 1.4375q0 0.703125 0.5625 1.265625q0.5625 0.5625 2.0 1.171875q2.484375 0.90625 3.609375 2.21875q1.140625 1.3125 1.140625 3.34375q0 2.21875 -1.421875 3.484375q-1.40625 1.25 -3.84375 1.25q-1.65625 0 -3.015625 -0.671875q-1.359375 -0.6875 -2.125 -1.953125q-0.765625 -1.265625 -0.765625 -2.984375l3.453125 0q0 1.46875 0.5625 2.140625q0.578125 0.671875 1.890625 0.671875q1.796875 0 1.796875 -1.921875zm11.8203125 3.328125q-1.03125 1.390625 -2.765625 1.390625q-1.734375 0 -2.640625 -1.203125q-0.90625 -1.203125 -0.90625 -3.5l0 -8.21875l3.3125 0l0 8.296875q0.03125 1.859375 1.234375 1.859375q1.140625 0 1.640625 -0.984375l0 -9.171875l3.34375 0l0 12.6875l-3.125 0l-0.09375 -1.15625zm15.46875 -4.78125q0 3.09375 -0.984375 4.640625q-0.984375 1.53125 -3.09375 1.53125q-1.640625 0 -2.640625 -1.484375l-0.109375 1.25l-3.0625 0l0 -18.0l3.328125 0l0 6.34375q0.9375 -1.265625 2.46875 -1.265625q2.109375 0 3.09375 1.53125q0.984375 1.53125 1.0 4.484375l0 0.96875zm-3.3125 -0.828125q0 -2.0 -0.390625 -2.6875q-0.375 -0.6875 -1.34375 -0.6875q-1.046875 0 -1.515625 0.953125l0 5.78125q0.4375 0.890625 1.546875 0.890625q0.9375 0 1.3125 -0.625q0.375 -0.625 0.390625 -2.421875l0 -1.203125zm8.3515625 -5.921875l0.09375 1.265625q1.125 -1.5 2.9375 -1.5q3.265625 0 3.359375 4.59375l0 8.328125l-3.328125 0l0 -8.09375q0 -1.078125 -0.328125 -1.5625q-0.3125 -0.484375 -1.125 -0.484375q-0.90625 0 -1.40625 0.921875l0 9.21875l-3.328125 0l0 -12.6875l3.125 0zm13.890625 12.921875q-2.546875 0 -3.984375 -1.515625q-1.421875 -1.53125 -1.421875 -4.375l0 -1.0q0 -3.0 1.3125 -4.625q1.3125 -1.640625 3.75 -1.640625q2.390625 0 3.59375 1.53125q1.21875 1.53125 1.234375 4.53125l0 1.625l-6.59375 0q0.078125 1.40625 0.625 2.0625q0.546875 0.65625 1.703125 0.65625q1.65625 0 2.765625 -1.140625l1.3125 2.0q-0.609375 0.84375 -1.78125 1.375q-1.15625 0.515625 -2.515625 0.515625zm-2.078125 -7.78125l3.3125 0l0 -0.3125q-0.03125 -1.125 -0.390625 -1.703125q-0.34375 -0.59375 -1.21875 -0.59375q-0.859375 0 -1.25 0.625q-0.390625 0.609375 -0.453125 1.984375zm12.296875 -8.25l0 3.109375l1.703125 0l0 2.5l-1.703125 0l0 6.296875q0 0.75 0.203125 1.03125q0.203125 0.28125 0.796875 0.28125q0.484375 0 0.78125 -0.078125l-0.015625 2.578125q-0.84375 0.3125 -1.828125 0.3125q-3.21875 0 -3.25 -3.6875l0 -6.734375l-1.46875 0l0 -2.5l1.46875 0l0 -3.109375l3.3125 0zm12.746094 10.234375l1.140625 -7.125l3.171875 0l-2.625 12.6875l-2.75 0l-1.796875 -7.34375l-1.78125 7.34375l-2.765625 0l-2.625 -12.6875l3.1875 0l1.125 7.125l1.6875 -7.125l2.34375 0l1.6875 7.125zm5.578125 -1.1875q0 -2.890625 1.359375 -4.53125q1.359375 -1.640625 3.75 -1.640625q2.4375 0 3.796875 1.640625q1.359375 1.640625 1.359375 4.546875l0 0.8125q0 2.890625 -1.359375 4.53125q-1.34375 1.625 -3.765625 1.625q-2.4375 0 -3.796875 -1.625q-1.34375 -1.640625 -1.34375 -4.546875l0 -0.8125zm3.328125 0.828125q0 3.40625 1.8125 3.40625q1.671875 0 1.796875 -2.84375l0.015625 -1.390625q0 -1.734375 -0.484375 -2.5625q-0.46875 -0.84375 -1.359375 -0.84375q-0.84375 0 -1.3125 0.84375q-0.46875 0.828125 -0.46875 2.5625l0 0.828125zm15.253906 -3.5625l-1.109375 -0.09375q-1.359375 0 -1.828125 1.203125l0 8.375l-3.328125 0l0 -12.6875l3.125 0l0.09375 1.375q0.78125 -1.609375 2.171875 -1.609375q0.5625 0 0.90625 0.15625l-0.03125 3.28125zm5.9101562 4.59375l-0.890625 1.0l0 3.890625l-3.328125 0l0 -18.0l3.328125 0l0 9.71875l0.40625 -0.609375l2.296875 -3.796875l3.953125 0l-3.6875 5.234375l4.03125 7.453125l-3.796875 0l-2.3125 -4.890625z" fill-rule="nonzero"/><path fill="#fff2cc" d="m212.05774 165.24686l0 0c0 -3.8037415 3.0835419 -6.8872833 6.8872833 -6.8872833l520.2412 0c1.8265991 0 3.5784302 0.7256317 4.870056 2.0172424c1.291565 1.2916107 2.017212 3.0434265 2.017212 4.870041l0 27.548279c0 3.8037415 -3.0835571 6.8872833 -6.887268 6.8872833l-520.2412 0c-3.8037415 0 -6.8872833 -3.0835419 -6.8872833 -6.8872833z" fill-rule="evenodd"/><path stroke="#595959" stroke-width="1.0" stroke-linejoin="round" stroke-linecap="butt" d="m212.05774 165.24686l0 0c0 -3.8037415 3.0835419 -6.8872833 6.8872833 -6.8872833l520.2412 0c1.8265991 0 3.5784302 0.7256317 4.870056 2.0172424c1.291565 1.2916107 2.017212 3.0434265 2.017212 4.870041l0 27.548279c0 3.8037415 -3.0835571 6.8872833 -6.887268 6.8872833l-520.2412 0c-3.8037415 0 -6.8872833 -3.0835419 -6.8872833 -6.8872833z" fill-rule="evenodd"/><path fill="#434343" d="m438.68085 180.17036l-5.375 0l0 4.53125l6.359375 0l0 2.859375l-9.796875 0l0 -17.0625l9.765625 0l0 2.875l-6.328125 0l0 4.03125l5.375 0l0 2.765625zm5.8398438 -5.296875l0.09375 1.265625q1.125 -1.5 2.9375 -1.5q3.265625 0 3.359375 4.59375l0 8.328125l-3.328125 0l0 -8.09375q0 -1.078125 -0.328125 -1.5625q-0.3125 -0.484375 -1.125 -0.484375q-0.90625 0 -1.40625 0.921875l0 9.21875l-3.328125 0l0 -12.6875l3.125 0zm14.390625 9.28125q0 -0.421875 -0.40625 -0.765625q-0.40625 -0.359375 -1.796875 -0.96875q-2.0625 -0.84375 -2.828125 -1.734375q-0.765625 -0.890625 -0.765625 -2.203125q0 -1.671875 1.203125 -2.75q1.203125 -1.09375 3.1875 -1.09375q2.078125 0 3.328125 1.078125q1.265625 1.078125 1.265625 2.90625l-3.328125 0q0 -1.546875 -1.28125 -1.546875q-0.53125 0 -0.875 0.328125q-0.328125 0.328125 -0.328125 0.90625q0 0.421875 0.375 0.75q0.375 0.3125 1.765625 0.921875q2.03125 0.75 2.859375 1.671875q0.84375 0.90625 0.84375 2.375q0 1.703125 -1.28125 2.734375q-1.28125 1.03125 -3.34375 1.03125q-1.40625 0 -2.46875 -0.546875q-1.0625 -0.546875 -1.671875 -1.515625q-0.59375 -0.96875 -0.59375 -2.09375l3.140625 0q0.03125 0.859375 0.40625 1.296875q0.390625 0.4375 1.25 0.4375q1.34375 0 1.34375 -1.21875zm10.3984375 3.640625q-2.546875 0 -3.984375 -1.515625q-1.421875 -1.53125 -1.421875 -4.375l0 -1.0q0 -3.0 1.3125 -4.625q1.3125 -1.640625 3.75 -1.640625q2.390625 0 3.59375 1.53125q1.21875 1.53125 1.234375 4.53125l0 1.625l-6.59375 0q0.078125 1.40625 0.625 2.0625q0.546875 0.65625 1.703125 0.65625q1.65625 0 2.765625 -1.140625l1.3125 2.0q-0.609375 0.84375 -1.78125 1.375q-1.15625 0.515625 -2.515625 0.515625zm-2.078125 -7.78125l3.3125 0l0 -0.3125q-0.03125 -1.125 -0.390625 -1.703125q-0.34375 -0.59375 -1.21875 -0.59375q-0.859375 0 -1.25 0.625q-0.390625 0.609375 -0.453125 1.984375zm11.5625 -5.140625l0.09375 1.171875q1.109375 -1.40625 2.9375 -1.40625q1.90625 0 2.6875 1.71875q1.09375 -1.71875 3.109375 -1.71875q3.328125 0 3.40625 4.609375l0 8.3125l-3.3125 0l0 -8.09375q0 -1.109375 -0.3125 -1.578125q-0.296875 -0.46875 -1.03125 -0.46875q-0.921875 0 -1.375 1.140625l0.015625 0.390625l0 8.609375l-3.3125 0l0 -8.078125q0 -1.09375 -0.296875 -1.578125q-0.296875 -0.484375 -1.046875 -0.484375q-0.84375 0 -1.359375 0.921875l0 9.21875l-3.3125 0l0 -12.6875l3.109375 0zm24.566406 6.75q0 3.09375 -0.984375 4.640625q-0.984375 1.53125 -3.09375 1.53125q-1.640625 0 -2.640625 -1.484375l-0.109375 1.25l-3.0625 0l0 -18.0l3.328125 0l0 6.34375q0.9375 -1.265625 2.46875 -1.265625q2.109375 0 3.09375 1.53125q0.984375 1.53125 1.0 4.484375l0 0.96875zm-3.3125 -0.828125q0 -2.0 -0.390625 -2.6875q-0.375 -0.6875 -1.34375 -0.6875q-1.046875 0 -1.515625 0.953125l0 5.78125q0.4375 0.890625 1.546875 0.890625q0.9375 0 1.3125 -0.625q0.375 -0.625 0.390625 -2.421875l0 -1.203125zm8.7890625 6.765625l-3.328125 0l0 -18.0l3.328125 0l0 18.0zm7.6875 0.234375q-2.546875 0 -3.984375 -1.515625q-1.421875 -1.53125 -1.421875 -4.375l0 -1.0q0 -3.0 1.3125 -4.625q1.3125 -1.640625 3.75 -1.640625q2.390625 0 3.59375 1.53125q1.21875 1.53125 1.234375 4.53125l0 1.625l-6.59375 0q0.078125 1.40625 0.625 2.0625q0.546875 0.65625 1.703125 0.65625q1.65625 0 2.765625 -1.140625l1.3125 2.0q-0.609375 0.84375 -1.78125 1.375q-1.15625 0.515625 -2.515625 0.515625zm-2.078125 -7.78125l3.3125 0l0 -0.3125q-0.03125 -1.125 -0.390625 -1.703125q-0.34375 -0.59375 -1.21875 -0.59375q-0.859375 0 -1.25 0.625q-0.390625 0.609375 -0.453125 1.984375zm14.703125 -1.9375l-1.109375 -0.09375q-1.359375 0 -1.828125 1.203125l0 8.375l-3.328125 0l0 -12.6875l3.125 0l0.09375 1.375q0.78125 -1.609375 2.171875 -1.609375q0.5625 0 0.90625 0.15625l-0.03125 3.28125z" fill-rule="nonzero"/><path fill="#000000" fill-opacity="0.0" d="m212.05774 109.79527l160.62991 0l0 34.992126l-160.62991 0z" fill-rule="evenodd"/><path fill="#434343" d="m231.24524 134.44466l-5.375 0l0 4.53125l6.359375 0l0 2.859375l-9.796875 0l0 -17.062508l9.765625 0l0 2.875l-6.328125 0l0 4.0312576l5.375 0l0 2.765625zm5.8398438 -5.296875l0.09375 1.265625q1.125 -1.5 2.9375 -1.5q3.265625 0 3.359375 4.59375l0 8.328125l-3.328125 0l0 -8.09375q0 -1.078125 -0.328125 -1.5625q-0.3125 -0.484375 -1.125 -0.484375q-0.90625 0 -1.40625 0.921875l0 9.21875l-3.328125 0l0 -12.6875l3.125 0zm14.390625 9.28125q0 -0.421875 -0.40625 -0.765625q-0.40625 -0.359375 -1.796875 -0.96875q-2.0625 -0.84375 -2.828125 -1.734375q-0.765625 -0.890625 -0.765625 -2.203125q0 -1.671875 1.203125 -2.75q1.203125 -1.09375 3.1875 -1.09375q2.078125 0 3.328125 1.078125q1.265625 1.078125 1.265625 2.90625l-3.328125 0q0 -1.546875 -1.28125 -1.546875q-0.53125 0 -0.875 0.328125q-0.328125 0.328125 -0.328125 0.90625q0 0.421875 0.375 0.75q0.375 0.3125 1.765625 0.921875q2.03125 0.75 2.859375 1.671875q0.84375 0.90625 0.84375 2.375q0 1.703125 -1.28125 2.734375q-1.28125 1.03125 -3.34375 1.03125q-1.40625 0 -2.46875 -0.546875q-1.0625 -0.546875 -1.671875 -1.515625q-0.59375 -0.96875 -0.59375 -2.09375l3.140625 0q0.03125 0.859375 0.40625 1.296875q0.390625 0.4375 1.25 0.4375q1.34375 0 1.34375 -1.21875zm10.3984375 3.640625q-2.546875 0 -3.984375 -1.515625q-1.421875 -1.53125 -1.421875 -4.375l0 -1.0q0 -3.0 1.3125 -4.625q1.3125 -1.640625 3.75 -1.640625q2.390625 0 3.59375 1.53125q1.21875 1.53125 1.234375 4.53125l0 1.625l-6.59375 0q0.078125 1.40625 0.625 2.0625q0.546875 0.65625 1.703125 0.65625q1.65625 0 2.765625 -1.140625l1.3125 2.0q-0.609375 0.84375 -1.78125 1.375q-1.15625 0.515625 -2.515625 0.515625zm-2.078125 -7.78125l3.3125 0l0 -0.3125q-0.03125 -1.125 -0.390625 -1.703125q-0.34375 -0.59375 -1.21875 -0.59375q-0.859375 0 -1.25 0.625q-0.390625 0.609375 -0.453125 1.984375zm11.5625 -5.140625l0.09375 1.171875q1.109375 -1.40625 2.9375 -1.40625q1.90625 0 2.6875 1.71875q1.09375 -1.71875 3.109375 -1.71875q3.328125 0 3.40625 4.609375l0 8.3125l-3.3125 0l0 -8.09375q0 -1.109375 -0.3125 -1.578125q-0.296875 -0.46875 -1.03125 -0.46875q-0.921875 0 -1.375 1.140625l0.015625 0.390625l0 8.609375l-3.3125 0l0 -8.078125q0 -1.09375 -0.296875 -1.578125q-0.296875 -0.484375 -1.046875 -0.484375q-0.84375 0 -1.359375 0.921875l0 9.21875l-3.3125 0l0 -12.6875l3.109375 0zm24.566406 6.75q0 3.09375 -0.984375 4.640625q-0.984375 1.53125 -3.09375 1.53125q-1.640625 0 -2.640625 -1.484375l-0.109375 1.25l-3.0625 0l0 -18.000008l3.328125 0l0 6.3437576q0.9375 -1.265625 2.46875 -1.265625q2.109375 0 3.09375 1.53125q0.984375 1.53125 1.0 4.484375l0 0.96875zm-3.3125 -0.828125q0 -2.0 -0.390625 -2.6875q-0.375 -0.6875 -1.34375 -0.6875q-1.046875 0 -1.515625 0.953125l0 5.78125q0.4375 0.890625 1.546875 0.890625q0.9375 0 1.3125 -0.625q0.375 -0.625 0.390625 -2.421875l0 -1.203125zm8.7890625 6.765625l-3.328125 0l0 -18.000008l3.328125 0l0 18.000008zm7.6875 0.234375q-2.546875 0 -3.984375 -1.515625q-1.421875 -1.53125 -1.421875 -4.375l0 -1.0q0 -3.0 1.3125 -4.625q1.3125 -1.640625 3.75 -1.640625q2.390625 0 3.59375 1.53125q1.21875 1.53125 1.234375 4.53125l0 1.625l-6.59375 0q0.078125 1.40625 0.625 2.0625q0.546875 0.65625 1.703125 0.65625q1.65625 0 2.765625 -1.140625l1.3125 2.0q-0.609375 0.84375 -1.78125 1.375q-1.15625 0.515625 -2.515625 0.515625zm-2.078125 -7.78125l3.3125 0l0 -0.3125q-0.03125 -1.125 -0.390625 -1.703125q-0.34375 -0.59375 -1.21875 -0.59375q-0.859375 0 -1.25 0.625q-0.390625 0.609375 -0.453125 1.984375z" fill-rule="nonzero"/><path fill="#000000" fill-opacity="0.0" d="m479.0656 158.35957l-0.22045898 -105.44881" fill-rule="evenodd"/><path stroke="#595959" stroke-width="3.0" stroke-linejoin="round" stroke-linecap="butt" d="m479.0656 158.35957l-0.18283081 -87.44885" fill-rule="evenodd"/><path fill="#595959" stroke="#595959" stroke-width="3.0" stroke-linecap="butt" d="m483.83795 70.90036l-4.9836426 -13.603901l-4.9267273 13.624622z" fill-rule="evenodd"/><path fill="#000000" fill-opacity="0.0" d="m478.59317 487.08923l0.56692505 -71.08661" fill-rule="evenodd"/><path stroke="#595959" stroke-width="3.0" stroke-linejoin="round" stroke-linecap="butt" d="m478.59317 487.08923l0.42340088 -53.08719" fill-rule="evenodd"/><path fill="#595959" stroke="#595959" stroke-width="3.0" stroke-linecap="butt" d="m483.9716 434.04156l-4.846466 -13.653381l-5.0635986 13.574341z" fill-rule="evenodd"/><path fill="#000000" fill-opacity="0.0" d="m480.0 418.6168l-193.03937 -26.330688" fill-rule="evenodd"/><path stroke="#595959" stroke-width="3.0" stroke-linejoin="round" stroke-linecap="butt" d="m480.0 418.6168l-175.20453 -23.89801" fill-rule="evenodd"/><path fill="#595959" stroke="#595959" stroke-width="3.0" stroke-linecap="butt" d="m305.46518 389.80905l-14.159088 3.0697632l12.819702 6.749695z" fill-rule="evenodd"/><path fill="#000000" fill-opacity="0.0" d="m479.3281 419.11285l-0.25198364 -26.834625" fill-rule="evenodd"/><path stroke="#595959" stroke-width="3.0" stroke-linejoin="round" stroke-linecap="butt" d="m479.3281 419.11285l-0.082977295 -8.835419" fill-rule="evenodd"/><path fill="#595959" stroke="#595959" stroke-width="3.0" stroke-linecap="butt" d="m484.2001 410.2309l-5.0828247 -13.567169l-4.8271484 13.660217z" fill-rule="evenodd"/><path fill="#000000" fill-opacity="0.0" d="m480.0 418.6168l191.18109 -26.330688" fill-rule="evenodd"/><path stroke="#595959" stroke-width="3.0" stroke-linejoin="round" stroke-linecap="butt" d="m480.0 418.6168l173.34943 -23.874786" fill-rule="evenodd"/><path fill="#595959" stroke="#595959" stroke-width="3.0" stroke-linecap="butt" d="m654.0255 399.65085l12.810913 -6.766388l-14.163086 -3.0513306z" fill-rule="evenodd"/><path fill="#000000" fill-opacity="0.0" d="m286.97113 231.39633l1.3543396 -29.16536" fill-rule="evenodd"/><path stroke="#595959" stroke-width="3.0" stroke-linejoin="round" stroke-linecap="butt" d="m286.97113 231.39633l0.51937866 -11.184738" fill-rule="evenodd"/><path fill="#595959" stroke="#595959" stroke-width="3.0" stroke-linecap="butt" d="m292.44037 220.44145l-4.3183594 -13.829498l-5.58136 13.3697815z" fill-rule="evenodd"/><path fill="#000000" fill-opacity="0.0" d="m479.0761 231.39633l0 -31.716537" fill-rule="evenodd"/><path stroke="#595959" stroke-width="3.0" stroke-linejoin="round" stroke-linecap="butt" d="m479.0761 231.39633l0 -13.716537" fill-rule="evenodd"/><path fill="#595959" stroke="#595959" stroke-width="3.0" stroke-linecap="butt" d="m484.0313 217.6798l-4.9552 -13.614304l-4.9552 13.614304z" fill-rule="evenodd"/><path fill="#000000" fill-opacity="0.0" d="m671.1811 231.39633l0.5039673 -31.2126" fill-rule="evenodd"/><path stroke="#595959" stroke-width="3.0" stroke-linejoin="round" stroke-linecap="butt" d="m671.1811 231.39633l0.2133789 -13.214935" fill-rule="evenodd"/><path fill="#595959" stroke="#595959" stroke-width="3.0" stroke-linecap="butt" d="m676.349 218.26137l-4.734741 -13.692505l-5.1743774 13.532532z" fill-rule="evenodd"/></g></svg>